SplineFontDB: 3.0
FontName: SPRama-Bold
FullName: SP Rama Bold
FamilyName: SP Rama
Weight: Bold
Copyright: Copyright (c) 2006 by Department of Intellectual Property (DIP), Ministry of Commerce and Software Industry Promotion Agency (Public Organization) (SIPA). All rights reserved.
Version: 2.1
ItalicAngle: 0
UnderlinePosition: -35
UnderlineWidth: 30
Ascent: 800
Descent: 200
LayerCount: 2
Layer: 0 0 "Back" 
Layer: 1 0 "Fore" 
XUID: [1021 375 425136265 12889808]
FSType: 0
OS2Version: 3
OS2_WeightWidthSlopeOnly: 0
OS2_UseTypoMetrics: 1
CreationTime: 1157457558
ModificationTime: 1211185740
PfmFamily: 17
TTFWeight: 700
TTFWidth: 5
LineGap: 60
VLineGap: 0
Panose: 2 0 5 6 0 0 0 2 0 4
OS2TypoAscent: 0
OS2TypoAOffset: 1
OS2TypoDescent: 0
OS2TypoDOffset: 1
OS2TypoLinegap: 0
OS2WinAscent: 15
OS2WinAOffset: 1
OS2WinDescent: 1
OS2WinDOffset: 1
HheadAscent: -105
HheadAOffset: 1
HheadDescent: 299
HheadDOffset: 1
OS2SubXSize: 700
OS2SubYSize: 650
OS2SubXOff: 0
OS2SubYOff: 140
OS2SupXSize: 700
OS2SupYSize: 650
OS2SupXOff: 0
OS2SupYOff: 477
OS2StrikeYSize: 30
OS2StrikeYPos: 250
OS2FamilyClass: 773
OS2Vendor: 'IPTH'
Lookup: 4 0 0 "'frac' Diagonal Fractions in Latin lookup 0"  {"'frac' Diagonal Fractions in Latin lookup 0 subtable"  } ['frac' ('latn' <'dflt' > ) ]
Lookup: 6 0 0 "'liga' Standard Ligatures in Latin lookup 1"  {"'liga' Standard Ligatures in Latin lookup 1 subtable"  } ['liga' ('latn' <'dflt' > ) ]
Lookup: 6 0 0 "'liga' Standard Ligatures in Latin lookup 2"  {"'liga' Standard Ligatures in Latin lookup 2 subtable"  } ['liga' ('latn' <'dflt' > ) ]
Lookup: 6 0 0 "'liga' Standard Ligatures in Latin lookup 3"  {"'liga' Standard Ligatures in Latin lookup 3 subtable"  } ['liga' ('latn' <'dflt' > ) ]
Lookup: 6 0 0 "'liga' Standard Ligatures in Latin lookup 4"  {"'liga' Standard Ligatures in Latin lookup 4 subtable"  } ['liga' ('latn' <'dflt' > ) ]

StartChar: .notdef
Encoding: 65536 -1 0
Width: 747
VWidth: 1494
Flags: W
HStem: 0 52<145 601> 987 52<145 601>
VStem: 94 51<52 987> 601 51<52 987>
LayerCount: 2
Fore
SplineSet
601 52 m 1
 601 987 l 1
 145 987 l 1
 145 52 l 1
 601 52 l 1
652 0 m 1
 94 0 l 1
 94 1039 l 1
 652 1039 l 1
 652 0 l 1
EndSplineSet
EndChar

StartChar: numbersign
Encoding: 35 35 4
Width: 602
VWidth: 1494
Flags: W
HStem: -7 21G<102 178.243 314 390.243> 215 73<42 136 223 348 435 523> 448 74<76 173 260 386 472 558> 695 20G<213.684 291 428 498.859>
LayerCount: 2
Fore
SplineSet
558 448 m 1
 460 448 l 1
 435 288 l 1
 537 288 l 1
 523 215 l 1
 423 215 l 1
 387 -7 l 1
 314 -6 l 1
 348 215 l 1
 211 215 l 1
 175 -7 l 1
 102 -6 l 1
 136 215 l 1
 31 215 l 1
 42 288 l 1
 148 288 l 1
 173 448 l 1
 66 448 l 1
 76 522 l 1
 185 522 l 1
 217 715 l 1
 291 713 l 1
 260 522 l 1
 398 522 l 1
 428 712 l 1
 502 713 l 1
 472 522 l 1
 571 522 l 1
 558 448 l 1
248 448 m 1
 223 288 l 1
 360 288 l 1
 386 448 l 1
 248 448 l 1
EndSplineSet
EndChar

StartChar: dollar
Encoding: 36 36 5
Width: 578
VWidth: 1494
Flags: W
HStem: -31 103<197.828 263 332 385.411> 534 21G<438 466.308> 604 102<207.386 263 332 393.595>
VStem: 58 105<455.296 561.758> 263 69<-102 -31 75 269 417 599 706 765> 439 105<117.838 214.68>
LayerCount: 2
Fore
SplineSet
332 390 m 1
 430 342 544 318 544 176 c 0
 544 47 436 -24 332 -31 c 1
 332 -102 l 1
 263 -102 l 1
 263 -31 l 1
 166 -22 87 27 31 97 c 1
 117 173 l 1
 172 91 222 77 263 72 c 1
 263 297 l 1
 198 325 l 2
 197.977 325.01 58 370.871 58 516 c 0
 58 567 98 691 263 706 c 1
 263 765 l 1
 332 765 l 1
 332 704 l 1
 406 694 463 664 510 625 c 1
 454 534 l 1
 422 568 383 589 332 599 c 1
 332 390 l 1
263 604 m 1
 213 598 163 559 163 504 c 0
 163 445 223 436 263 417 c 1
 263 604 l 1
332 75 m 1
 374 82 439 107 439 170 c 0
 439 229 341 266 332 269 c 1
 332 75 l 1
EndSplineSet
EndChar

StartChar: percent
Encoding: 37 37 6
Width: 847
VWidth: 1494
Flags: W
HStem: -1 80<596.24 685.594> 303 81<595.722 685.179> 326 81<160.018 249.758> 631 81<158.741 248.513>
VStem: 57 76<435.58 604.493> 277 76<436.786 598.711> 493 77<106.756 276.408> 713 76<108.004 273.731>
LayerCount: 2
Fore
SplineSet
205 712 m 0xbf
 294 712 353 624 353 519 c 0
 353 435 308 326 205 326 c 0
 101 326 57 432 57 519 c 0
 57 593 96 712 205 712 c 0xbf
205 407 m 0
 263 407 277 482 277 519 c 0
 277 550 263 631 205 631 c 0
 148 631 133 566 133 519 c 0
 133 472 150 407 205 407 c 0
187 -33 m 1
 574 756 l 1
 664 756 l 1
 277 -33 l 1
 187 -33 l 1
641 384 m 0xdf
 745 384 789 278 789 191 c 0
 789 104 744 -1 641 -1 c 0
 538 -1 493 104 493 191 c 0
 493 273 537 384 641 384 c 0xdf
641 79 m 0
 695 79 713 146 713 191 c 0
 713 227 699 303 641 303 c 0
 584 303 570 239 570 191 c 0
 570 122 598 79 641 79 c 0
EndSplineSet
EndChar

StartChar: ampersand
Encoding: 38 38 7
Width: 701
VWidth: 1494
Flags: W
HStem: -13 106<216.217 367.28> 637 88<252.216 327.286>
VStem: 52 109<147.889 267.845> 123 110<524.42 628.706> 335 100<532.354 628.597> 502 97<261.088 386>
LayerCount: 2
Fore
SplineSet
599 386 m 1xdc
 595 297 577 241 541 166 c 1
 677 1 l 1
 535 1 l 1
 477 73 l 1
 425 16 365 -13 296 -13 c 0
 161 -13 52 75 52 208 c 0xec
 52 293 101 352 191 420 c 1
 126 505 123 548 123 580 c 0
 123 674 194 725 278 725 c 0
 362 725 435 678 435 583 c 0
 435 541 421 476 338 407 c 1
 474 247 l 1
 492 281 501 330 502 386 c 1
 599 386 l 1xdc
277 492 m 1
 327 542 335 560 335 589 c 0
 335 618 313 637 286 637 c 0
 273 637 233 632 233 589 c 0xdc
 233 562 248 530 277 492 c 1
256 341 m 1
 180 278 161 240 161 221 c 0xec
 161 144 217 93 291 93 c 0
 351 93 385 123 413 154 c 1
 256 341 l 1
EndSplineSet
EndChar

StartChar: quotesingle
Encoding: 39 39 8
Width: 273
VWidth: 1494
Flags: W
HStem: 459 242<106 172>
VStem: 91 94<557.133 701 587 701 587 587>
LayerCount: 2
Fore
SplineSet
172 459 m 1
 106 459 l 1
 91 587 l 1
 91 701 l 1
 185 701 l 1
 185 587 l 1
 172 459 l 1
EndSplineSet
EndChar

StartChar: parenleft
Encoding: 40 40 9
Width: 364
VWidth: 1494
Flags: W
HStem: 698 20G<181.5 291>
VStem: 73 87<145.788 454.776>
LayerCount: 2
Fore
SplineSet
160 297 m 0
 160 134 218 -0 294 -111 c 1
 220 -111 l 1
 122 26 73 163 73 300 c 0
 73 467 143 601 220 718 c 1
 291 718 l 1
 204 578 160 438 160 297 c 0
EndSplineSet
EndChar

StartChar: parenright
Encoding: 41 41 10
Width: 366
VWidth: 1494
Flags: W
HStem: 698 20G<81 190.5>
VStem: 212 87<146.509 454.668>
LayerCount: 2
Fore
SplineSet
152 718 m 1
 229 600 299 467 299 300 c 0
 299 163 250 26 152 -111 c 1
 78 -111 l 1
 148 -9 212 126 212 297 c 0
 212 438 168 578 81 718 c 1
 152 718 l 1
EndSplineSet
EndChar

StartChar: asterisk
Encoding: 42 42 11
Width: 548
VWidth: 1494
Flags: W
HStem: 468 108<80.5558 129.766 408.188 458.948>
VStem: 68 402<491.013 551.165>
LayerCount: 2
Fore
SplineSet
421 576 m 0
 449 576 470 548 470 518 c 0
 470 496 451 468 420 468 c 0
 414 468 l 1
 329 490 l 1
 387 422 l 2
 395 413 399 403 399 393 c 0
 399 369 373 338 341 338 c 0
 324 338 298 347 293 371 c 2
 274 457 l 1
 238 379 247 338 196 338 c 0
 153 338 143 373 143 393 c 0
 143 426 169 429 215 489 c 1
 130 468 l 2
 125 466 120 465 116 465 c 0
 97 465 68 486 68 520 c 0
 68 548 90 573 119 573 c 0
 137 573 212 552 212 552 c 1
 151 620 l 2
 144 628 140 637 140 647 c 0
 140 672 163 703 197 703 c 0
 220 703 238 688 245 671 c 2
 271 578 l 1
 290 623 294 673 300 679 c 1
 309 694 329 703 345 703 c 0
 366 703 397 686 397 649 c 0
 397 616 376 617 329 552 c 1
 408 574 l 2
 412 575 417 576 421 576 c 0
EndSplineSet
EndChar

StartChar: plus
Encoding: 43 43 12
Width: 597
VWidth: 1494
Flags: W
HStem: 209 102<69 248 350 529>
VStem: 248 102<30 209 311 490>
LayerCount: 2
Fore
SplineSet
248 209 m 1
 69 209 l 1
 69 311 l 1
 248 311 l 1
 248 490 l 1
 350 490 l 1
 350 311 l 1
 529 311 l 1
 529 209 l 1
 350 209 l 1
 350 30 l 1
 248 30 l 1
 248 209 l 1
EndSplineSet
EndChar

StartChar: comma
Encoding: 44 44 13
Width: 364
VWidth: 1494
Flags: W
HStem: -158 307<133 175 175 175>
VStem: 96 163<18.0625 121.925>
LayerCount: 2
Fore
SplineSet
175 149 m 0
 219 149 259 117 259 63 c 0
 259 8 243 -67 133 -158 c 1
 76 -121 l 1
 107 -104 163 -37 173 -7 c 1
 128 -7 96 30 96 70 c 256
 96 112 129 149 175 149 c 0
EndSplineSet
EndChar

StartChar: hyphen
Encoding: 45 45 14
Width: 597
VWidth: 1494
Flags: W
HStem: 209 102<69 529 69 529 69 69>
LayerCount: 2
Fore
SplineSet
69 209 m 1
 69 311 l 1
 529 311 l 1
 529 209 l 1
 69 209 l 1
EndSplineSet
EndChar

StartChar: period
Encoding: 46 46 15
Width: 307
VWidth: 1494
Flags: W
HStem: 0 146<102.211 205.789>
VStem: 81 146<18.7072 124.888>
LayerCount: 2
Fore
SplineSet
154 146 m 256
 198 146 227 111 227 72 c 256
 227 29 196 0 154 0 c 256
 112 0 81 29 81 72 c 256
 81 111 110 146 154 146 c 256
EndSplineSet
EndChar

StartChar: slash
Encoding: 47 47 16
Width: 291
VWidth: 1494
Flags: MW
LayerCount: 2
Fore
SplineSet
-19 -94 m 1
 223 768 l 1
 312 768 l 1
 70 -94 l 1
 -19 -94 l 1
EndSplineSet
EndChar

StartChar: zero
Encoding: 48 48 17
Width: 597
VWidth: 1494
Flags: W
HStem: -10 92<218.63 375.095> 637 91<218.63 380.828>
VStem: 40 89<197.204 516.551> 466 87<198.333 523.558>
LayerCount: 2
Fore
SplineSet
297 -10 m 256
 195 -10 40 42 40 359 c 0
 40 658 195 728 297 728 c 0
 399 728 553 676 553 359 c 256
 553 42 399 -10 297 -10 c 256
299 82 m 0
 439 82 466 234 466 359 c 0
 466 514 433 637 299 637 c 256
 197 637 129 561 129 359 c 0
 129 153 197 82 299 82 c 0
EndSplineSet
EndChar

StartChar: one
Encoding: 49 49 18
Width: 440
VWidth: 1494
Flags: W
HStem: 0 21G<226 315> 700 20G<289 310>
VStem: 226 89<0 561>
LayerCount: 2
Fore
SplineSet
344 668 m 0
 344 653 330 636 315 631 c 1
 315 0 l 1
 226 0 l 1
 226 561 l 1
 218 555 156 502 129 481 c 1
 63 541 l 1
 262 709 l 1
 262 710 l 1
 273 717 284 720 294 720 c 0
 326 720 344 679 344 668 c 0
EndSplineSet
EndChar

StartChar: two
Encoding: 50 50 19
Width: 581
VWidth: 1494
Flags: W
HStem: 0 91<54.9485 75 188 432> 634 87<208.108 353.759>
VStem: 71 82<483.894 580.413> 405 90<425.949 581.18>
LayerCount: 2
Fore
SplineSet
282 721 m 0
 384 721 495 654 495 505 c 0
 495 372 370 252 275 172 c 2
 226 130 l 2
 211 115 198 102 188 91 c 1
 432 91 l 1
 440 108 458 134 463 146 c 1
 469.592 146 484.548 134.726 538 108 c 1
 487 0 l 1
 87 0 l 2
 83 -0 80 -1 77 -1 c 0
 52 -1 40 10 40 33 c 0
 40 42 44 68 50 82 c 0
 53 88 59 91 69 91 c 0
 75 91 l 1
 83 104 111 145 183 208 c 2
 214 235 l 2
 279 289 405 398 405 507 c 0
 403 610 324 634 283 634 c 0
 206 634 153 578 153 519 c 0
 153 504 156 487 163 469 c 1
 79 448 l 1
 74 476 71 502 71 526 c 0
 71 664.1 185.183 721 282 721 c 0
EndSplineSet
EndChar

StartChar: three
Encoding: 51 51 20
Width: 594
VWidth: 1494
Flags: W
HStem: -13 79<214.462 379.787> 394 77<342 391.951> 534 21G<123 136> 625 90<166 354 467.721 502.161>
VStem: 33 84<96.3656 209> 455 94<146.051 326.631>
LayerCount: 2
Fore
SplineSet
219 341 m 0
 199 341 172 365 172 392 c 0
 172 411 168 401 312 575 c 2
 354 625 l 1
 166 625 l 1
 157 600 137 544 135 534 c 1
 111 546 77 558 58 573 c 1
 100 715 l 1
 481 715 l 2
 500 715 510 702 510 684 c 0
 510 679 509 673 507 667 c 0
 500 631 497 625 471 625 c 1
 469 623 462 616 452 602 c 2
 342 471 l 1
 485 471 549 365 549 247 c 0
 549 122 470 -13 321 -13 c 0
 205 -13 94 15 33 209 c 1
 117 235 l 1
 143 132 198 66 299 66 c 0
 424 66 455 173 455 236 c 0
 455 321 405 394 329 394 c 0
 312 394 292 390 271 383 c 1
 250 360 239 341 219 341 c 0
EndSplineSet
EndChar

StartChar: four
Encoding: 52 52 21
Width: 560
VWidth: 1494
Flags: W
HStem: 0 21G<350 439> 141 91<149 350 439 531> 700 20G<397.5 416.5>
VStem: 350 89<0 141 232 520>
LayerCount: 2
Fore
SplineSet
448 663 m 0
 448 659 446 654 439 643 c 1
 439 232 l 1
 531 232 l 1
 531 141 l 1
 439 141 l 1
 439 0 l 1
 350 0 l 1
 350 141 l 1
 58 141 l 2
 34 142 18 168 18 190 c 0
 18 197 20 204 24 211 c 2
 380 707 l 2
 386 716 393 720 402 720 c 0
 431 720 448 685 448 663 c 0
350 520 m 1
 340 507 325 487 306 458 c 2
 187 284 l 2
 169 258 156 241 149 232 c 1
 350 232 l 1
 350 520 l 1
EndSplineSet
EndChar

StartChar: five
Encoding: 53 53 22
Width: 594
VWidth: 1494
Flags: W
HStem: -14 86<237.619 373.122> 422 87<220.719 387.443> 625 90<199 525>
VStem: 469 84<174.809 344.262>
LayerCount: 2
Fore
SplineSet
469 263 m 0
 469 375 379 422 304 422 c 0
 241 422 172 392 144 294 c 1
 64 326 l 1
 83 371 97 559 111 641 c 1
 105 650 103 661 103 669 c 0
 103 677 108 702 120 710 c 1
 127 713 135 715 146 715 c 2
 525 715 l 1
 525 625 l 1
 199 625 l 1
 196 594 188 531 179 469 c 1
 222 495 266 509 312 509 c 0
 467 509 553 403 553 261 c 0
 553 87 435 -14 295 -14 c 0
 259 -14 171 -5 70 94 c 1
 130 160 l 1
 212 85 259 72 291 72 c 0
 406 72 469 175 469 263 c 0
EndSplineSet
EndChar

StartChar: six
Encoding: 54 54 23
Width: 587
VWidth: 1494
Flags: W
HStem: -15 84<229.076 387.188> 401 89<235.77 397.876> 645 81<238.042 397.786>
VStem: 40 110<179.845 401.465> 464 89<145.981 331.037> 465 76<530.653 599.67>
LayerCount: 2
Fore
SplineSet
319 490 m 0xf4
 460 490 553 368 553 236 c 0xf8
 553 92 448 -15 314 -15 c 0
 229 -15 40 39 40 331 c 0
 40 539 135 726 318 726 c 0
 496 726 533 590 541 544 c 1
 465 522 l 1
 450 596 398 645 315 645 c 0
 176 645 137 488 127 390 c 1
 169 453 243 490 319 490 c 0xf4
308 69 m 0
 379 69 464 116 464 237 c 0
 464 302 435 401 318 401 c 0
 228 401 150 328 150 232 c 0
 150 129 226 69 308 69 c 0
EndSplineSet
EndChar

StartChar: seven
Encoding: 55 55 24
Width: 581
VWidth: 1494
Flags: W
HStem: 0 21G<196 293> 532 21G<62.5 127.621> 625 90<144 435>
VStem: 69 85<545.636 608.391> 196 88<7.66013 203.331>
LayerCount: 2
Fore
SplineSet
46 668 m 0
 46 697 65 715 91 715 c 2
 517 715 l 1
 538 712 549 701 549 682 c 0
 549 675 547 631 522 623 c 1
 518 592 528 587 483 522 c 0
 380 387 302 206 284 0 c 1
 196 0 l 1
 211 133 268 389 411 575 c 0
 435 604 433 604 435 625 c 1
 144 625 l 1
 146 606 142 611 154 561 c 1
 69 532 l 1
 56 599 46 668 46 668 c 0
EndSplineSet
EndChar

StartChar: eight
Encoding: 56 56 25
Width: 591
VWidth: 1494
Flags: W
HStem: -19 82<213.449 378.648> 372 91<232.141 359.689> 640 92<233.58 359.092>
VStem: 39 94<142.602 297.16> 99 95<498.759 604.678> 395 94<495.438 607.022> 454 93<139.069 296.5>
LayerCount: 2
Fore
SplineSet
429 425 m 1xec
 511 383 547 293 547 223 c 0
 547 29 399 -19 294 -19 c 256
 156 -19 39 67 39 223 c 0xf2
 39 317 93 387 160 423 c 1
 128 452 99 496 99 553 c 256
 99 658 183 732 294 732 c 0
 445 732 489 621 489 553 c 0
 489 496 461 453 429 425 c 1xec
294 463 m 0
 353 463 395 500 395 553 c 0
 395 612 338 640 294 640 c 0
 263 640 194 613 194 553 c 0xec
 194 490 261 463 294 463 c 0
294 63 m 0
 388 63 454 125 454 223 c 0
 454 305 382 372 294 372 c 0
 207 372 133 307 133 223 c 0xf2
 133 125 212 63 294 63 c 0
EndSplineSet
EndChar

StartChar: nine
Encoding: 57 57 26
Width: 550
VWidth: 1494
Flags: W
HStem: -11 83<181.21 331.671> 221 90<205.869 328.967> 641 88<195.376 350.307>
VStem: 39 88<392.841 568.06> 40 78<86.0908 145> 419 98<297.113 566.531>
LayerCount: 2
Fore
SplineSet
269 729 m 0xf4
 467 729 517 577 517 395 c 0
 517 263 488 149 459 100 c 0
 414 26 348 -11 260 -11 c 0
 180 -11 75 24 40 145 c 1
 118 190 l 1xec
 131 135 173 72 256 72 c 0
 392 72 421 225 426 287 c 1
 357 221 297 221 269 221 c 0
 167 221 39 310 39 480 c 0
 39 620 132 729 269 729 c 0xf4
279 311 m 0
 355 311 419 387 419 478 c 0
 419 530.175 391.29 641 273 641 c 0
 156 641 127 537 127 482 c 0xf4
 127 370 210 311 279 311 c 0
EndSplineSet
EndChar

StartChar: colon
Encoding: 58 58 27
Width: 328
VWidth: 1494
Flags: W
HStem: -3 147<112.289 216.693> 353 146<112.289 216.975>
VStem: 91 147<16.8 122.33 372.8 477.861>
LayerCount: 2
Fore
SplineSet
164 144 m 256
 209.108 144 238 107.775 238 69 c 256
 238 25.8 206.6 -3 164 -3 c 256
 122 -3 91 25.8 91 69 c 256
 91 108.525 120.2 144 164 144 c 256
164 499 m 256
 208.4 499 238 465.7 238 425 c 256
 238 381.8 206.6 353 164 353 c 256
 122 353 91 381.8 91 425 c 256
 91 463.925 120.2 499 164 499 c 256
EndSplineSet
EndChar

StartChar: semicolon
Encoding: 59 59 28
Width: 348
VWidth: 1494
Flags: W
HStem: 353 146<112.211 217.125>
VStem: 91 147<372.875 477.888> 93 163<18.0625 121.925>
LayerCount: 2
Fore
SplineSet
172 149 m 0xa0
 216 149 256 117 256 63 c 0
 256 8 240 -67 130 -158 c 1
 73 -121 l 1
 104 -104 160 -37 170 -7 c 1
 125 -7 93 30 93 70 c 256
 93 112 126 149 172 149 c 0xa0
164 499 m 256
 208 499 238 466 238 425 c 256
 238 382 207 353 164 353 c 256
 122 353 91 382 91 425 c 256xc0
 91 464 120 499 164 499 c 256
EndSplineSet
EndChar

StartChar: less
Encoding: 60 60 29
Width: 582
VWidth: 1494
Flags: MW
LayerCount: 2
Fore
SplineSet
49 311 m 1
 532 499 l 1
 532 398 l 1
 179 259 l 1
 532 123 l 1
 532 21 l 1
 49 209 l 1
 49 311 l 1
EndSplineSet
EndChar

StartChar: equal
Encoding: 61 61 30
Width: 677
VWidth: 1494
Flags: W
HStem: 109 102<90 574> 311 102<90 574 90 574 90 90>
LayerCount: 2
Fore
SplineSet
90 311 m 1
 90 413 l 1
 574 413 l 1
 574 311 l 1
 90 311 l 1
90 109 m 1
 90 211 l 1
 574 211 l 1
 574 109 l 1
 90 109 l 1
EndSplineSet
EndChar

StartChar: greater
Encoding: 62 62 31
Width: 575
VWidth: 1494
Flags: MW
LayerCount: 2
Fore
SplineSet
531 209 m 1
 48 21 l 1
 48 123 l 1
 401 259 l 1
 48 398 l 1
 48 499 l 1
 531 311 l 1
 531 209 l 1
EndSplineSet
EndChar

StartChar: question
Encoding: 63 63 32
Width: 542
VWidth: 1494
Flags: W
HStem: -1 134<203.706 304.294> 638 84<194.798 334.418>
VStem: 187 134<14.0993 116.088> 202 104<161 296.049> 370 98<483.302 584.74>
LayerCount: 2
Fore
SplineSet
202 224 m 2xd8
 202 380 370 445 370 544 c 0
 370 564 359 638 266 638 c 0
 195 638 149 583 138 549 c 1
 69 593 l 1
 93 660 149 722 269 722 c 0
 422 722 468 619 468 550 c 0
 468 411 306 343 306 224 c 2
 306 161 l 1
 202 161 l 1
 202 224 l 2xd8
254 133 m 256
 293 133 321 105 321 64 c 256
 321 23 293 -1 254 -1 c 256
 215 -1 187 23 187 64 c 256xe8
 187 105 215 133 254 133 c 256
EndSplineSet
EndChar

StartChar: at
Encoding: 64 64 33
Width: 1031
VWidth: 1494
Flags: W
HStem: -200 80<421.122 670.42> -11 62<664.456 748.265> -1 81<398.533 503.894> 457 84<468.843 577.002> 651 82<412.1 662.575>
VStem: 78 89<126.245 388.317> 277 85<119.519 304.625> 870 82<221.914 459.83>
LayerCount: 2
Fore
SplineSet
776 -142 m 1xdf
 718 -171 634 -200 539 -200 c 0
 210 -200 78 69 78 257 c 0
 78 495 243 733 536 733 c 0
 699 733 952 640 952 332 c 0
 952 183 850 -11 703 -11 c 0xdf
 679 -11 606 -5 577 57 c 1
 577 59 575 59 575 61 c 1
 572 52 520 -1 443 -1 c 0xbf
 377 -1 277 50 277 200 c 0
 277 372 376 541 523 541 c 0
 561 541 606 525 632 492 c 1
 641 535 l 1
 731 535 l 1
 682 294 l 2
 648 128 648 154 648 119 c 0
 648 82 660 51 696 51 c 0
 761 51 870 181 870 339 c 0
 870 542 715 651 537 651 c 0
 277 651 167 423 167 254 c 0
 167 51 324 -120 542 -120 c 0
 613 -120 686 -99 773 -57 c 1
 776 -142 l 1xdf
362 211 m 0
 362 106 414 80 449 80 c 0xbf
 495 80 547 130 568 193 c 0
 597 278 602 335 602 371 c 0
 602 421 570 457 523 457 c 0
 424 457 362 274 362 211 c 0
EndSplineSet
EndChar

StartChar: A
Encoding: 65 65 34
Width: 663
VWidth: 1494
Flags: W
HStem: -18 21G<9 118.488 547.118 655> 185 93<223 439>
LayerCount: 2
Fore
SplineSet
405 692 m 0
 405 683 404 685 392 662 c 1
 655 0 l 1
 555 -18 l 1
 475 185 l 1
 187 185 l 1
 111 -18 l 1
 9 0 l 5
 281 680 l 2
 288 701 314 736 336 736 c 0
 355 736 405 717 405 692 c 0
330 564 m 1
 223 278 l 1
 439 278 l 1
 330 564 l 1
EndSplineSet
EndChar

StartChar: B
Encoding: 66 66 35
Width: 632
VWidth: 1494
Flags: W
HStem: 0 100<200 440.896> 318 99<202 393.375> 608 104<202 414.991>
VStem: 102 100<100 318 417 607.276> 435 100<455.37 585.736> 474 100<133.713 276.8>
LayerCount: 2
Fore
SplineSet
315 417 m 2xf8
 364 417 435 438 435 520 c 0
 435 583 414 608 326 608 c 2
 202 608 l 1
 202 417 l 1
 315 417 l 2xf8
350 100 m 2
 445 100 474 133 474 214 c 0xf4
 474 297 399 318 329 318 c 2
 200 318 l 1
 200 100 l 1
 350 100 l 2
574 215 m 0
 574 82 503 0 375 0 c 2
 102 0 l 1
 102 589 l 2
 102 619 56 638 56 662 c 0
 56 678 90 724 115 724 c 0
 120 724 131 719 145 712 c 1
 338 712 l 2
 448 712 535 637 535 525 c 0xf8
 535 454 506 408 466 380 c 1
 504 362 574 314 574 215 c 0
EndSplineSet
EndChar

StartChar: C
Encoding: 67 67 36
Width: 642
VWidth: 1494
Flags: W
HStem: -10 101<286.664 486.548> 616 105<276.691 442.511>
VStem: 55 105<227.795 481.712>
LayerCount: 2
Fore
SplineSet
160 356 m 256
 160 240 205 91 387 91 c 0
 479 91 523 135 540 152 c 1
 605 78 l 1
 546 12 455 -10 373 -10 c 0
 178 -10 55 129 55 356 c 256
 55 628 225 721 368 721 c 0
 438 721 522 701 581 644 c 1
 572 618 553 585 538 552 c 1
 470 612 402 616 375 616 c 0
 203 616 160 469 160 356 c 256
EndSplineSet
EndChar

StartChar: D
Encoding: 68 68 37
Width: 677
VWidth: 1494
Flags: W
HStem: 0 102<194 419.703> 610 100<194 398.995>
VStem: 94 100<102 609.797> 528 104<220.59 483.234>
LayerCount: 2
Fore
SplineSet
528 356 m 0
 528 525 445 610 278 610 c 2
 194 610 l 1
 194 102 l 1
 312 102 l 2
 442 102 528 168 528 356 c 0
49 660 m 0
 49 675 80 724 107 724 c 0
 110 724 110 727 138 710 c 1
 300 710 l 2
 566 710 632 524 632 356 c 0
 632 130 520 0 300 0 c 2
 94 0 l 1
 94 589 l 2
 94 619 49 639 49 660 c 0
EndSplineSet
EndChar

StartChar: E
Encoding: 69 69 38
Width: 563
VWidth: 1494
Flags: MW
HStem: 0 100<182 478> 318 102<182 448> 610 102<182 480>
VStem: 81 101<100 318 420 609.688>
LayerCount: 2
Fore
SplineSet
94 724 m 0
 99 724 110 719 124 712 c 1
 480 712 l 1
 480 610 l 1
 182 610 l 1
 182 420 l 1
 448 420 l 1
 448 318 l 1
 182 318 l 1
 182 100 l 1
 478 100 l 1
 478 0 l 1
 81 0 l 1
 81 589 l 2
 81 619 35 638 35 662 c 0
 35 678 69 724 94 724 c 0
EndSplineSet
EndChar

StartChar: F
Encoding: 70 70 39
Width: 532
VWidth: 1494
Flags: MW
HStem: 0 21G<85 187> 320 100<188 454> 611 99<188 483>
VStem: 85 102<0 320 420 610.184>
LayerCount: 2
Fore
SplineSet
100 723 m 0
 103 723 129 710 129 710 c 1
 483 710 l 1
 483 611 l 1
 188 611 l 1
 188 420 l 1
 454 420 l 1
 454 320 l 1
 187 320 l 1
 187 0 l 1
 85 0 l 1
 85 587 l 2
 85 617 40 637 40 658 c 0
 40 674 72 723 100 723 c 0
EndSplineSet
EndChar

StartChar: G
Encoding: 71 71 40
Width: 686
VWidth: 1494
Flags: W
HStem: -12 102<275.895 447.511> 284 103<342 495> 625 101<270.28 434.508>
VStem: 67 103<214.297 496.126> 495 95<115 283.432 552 567.94>
LayerCount: 2
Fore
SplineSet
374 90 m 0
 398 90 425 93 495 115 c 1
 495 284 l 1
 342 284 l 1
 342 387 l 1
 532 387 l 1
 543 398 555 406 570 406 c 0
 597 406 628 355 628 341 c 0
 628 321 590 308 590 278 c 2
 590 40 l 1
 519 9 447 -12 345 -12 c 0
 142 -12 67 174 67 357 c 0
 67 529 156 726 345 726 c 0
 543 726 582 591 592 552 c 1
 496 517 l 1
 489 547 466 625 345 625 c 0
 240 625 170 520 170 357 c 0
 170 162 252 90 374 90 c 0
EndSplineSet
EndChar

StartChar: H
Encoding: 72 72 41
Width: 677
VWidth: 1494
Flags: W
HStem: 0 21G<88 188 490 589> 318 102<188 490> 693 20G<88 188 490 589>
VStem: 88 100<0 318 420 713> 490 99<0 318 420 713>
LayerCount: 2
Fore
SplineSet
490 0 m 1
 490 318 l 1
 188 318 l 1
 188 0 l 1
 88 0 l 1
 88 713 l 1
 188 713 l 1
 188 420 l 1
 490 420 l 1
 490 713 l 1
 589 713 l 1
 589 0 l 1
 490 0 l 1
EndSplineSet
EndChar

StartChar: I
Encoding: 73 73 42
Width: 273
VWidth: 1494
Flags: MW
HStem: 0 21G<88 88 88 187> 693 20G
VStem: 88 99<0 713>
LayerCount: 2
Fore
SplineSet
88 0 m 1
 88 713 l 1
 187 713 l 1
 187 0 l 1
 88 0 l 1
EndSplineSet
EndChar

StartChar: J
Encoding: 74 74 43
Width: 449
VWidth: 1494
Flags: W
HStem: -11 94<82.5384 217.298> 693 20G<248 348>
VStem: 248 100<113.042 713>
LayerCount: 2
Fore
SplineSet
155 83 m 0
 186 83 248 98 248 175 c 2
 248 713 l 1
 348 713 l 1
 348 185 l 2
 335 25 242 -11 171 -11 c 0
 112 -11 57 11 24 28 c 1
 58 124 l 1
 77 104 114 83 155 83 c 0
EndSplineSet
EndChar

StartChar: K
Encoding: 75 75 44
Width: 635
VWidth: 1494
Flags: W
HStem: -9 21G<91 193 496.601 629> 693 20<91 193 484.064 577.103>
VStem: 91 102<0 324 417 713>
LayerCount: 2
Fore
SplineSet
516 -9 m 1
 193 324 l 1
 193 0 l 1
 91 0 l 1
 91 713 l 1
 193 713 l 1
 193 417 l 1
 504 729 l 1
 610 700 l 1
 275 371 l 1
 629 0 l 1
 516 -9 l 1
EndSplineSet
EndChar

StartChar: L
Encoding: 76 76 45
Width: 548
VWidth: 1494
Flags: MW
HStem: 0 91<200 520> 693 20G<99 200>
VStem: 99 101<91.3125 713>
LayerCount: 2
Fore
SplineSet
53 39 m 0
 53 63 99 82 99 112 c 2
 99 713 l 1
 200 713 l 1
 200 91 l 1
 520 91 l 1
 520 0 l 1
 158 0 l 1
 149 -9 119 -23 112 -23 c 0
 87 -23 53 23 53 39 c 0
EndSplineSet
EndChar

StartChar: M
Encoding: 77 77 46
Width: 985
VWidth: 1494
Flags: W
HStem: -15 21G<33 136.03 480.5 500.5 849.932 952>
LayerCount: 2
Fore
SplineSet
835 686 m 0
 835 678 831 673 813 647 c 1
 952 1 l 1
 854 -15 l 1
 746 516 l 1
 543 34 l 1
 548 16 546 20 546 16 c 0
 546 -7 512 -22 489 -22 c 0
 472 -22 460 -16 459 -3 c 1
 239 516 l 1
 132 -15 l 1
 33 1 l 1
 172 647 l 1
 154 673 150 678 150 686 c 0
 150 712 206 731 220 731 c 0
 243 731 271 695 277 676 c 2
 493 160 l 1
 709 676 l 2
 714 694 742 731 764 731 c 0
 785 731 835 710 835 686 c 0
EndSplineSet
EndChar

StartChar: N
Encoding: 78 78 47
Width: 708
VWidth: 1494
Flags: W
HStem: 0 21G<97 197 515.195 611> 704 20<110 139 511 611>
VStem: 97 100<0 481> 511 100<209 710>
LayerCount: 2
Fore
SplineSet
59 671 m 0
 59 688 94 724 126 724 c 0
 152 724 176 699 191 673 c 0
 199 658 193 674 389 389 c 2
 511 209 l 1
 511 710 l 1
 611 710 l 1
 611 0 l 1
 529 0 l 1
 197 481 l 1
 197 0 l 1
 97 0 l 1
 97 596 l 2
 97 627 59 649 59 671 c 0
EndSplineSet
EndChar

StartChar: O
Encoding: 79 79 48
Width: 695
VWidth: 1494
Flags: W
HStem: -13 98<268.382 427.118> 628 98<268.377 427.408>
VStem: 58 100<225.809 490.866> 535 102<220.725 491.728>
LayerCount: 2
Fore
SplineSet
348 726 m 0
 553 726 637 536 637 357 c 0
 637 168 555 -13 348 -13 c 0
 141 -13 58 170 58 357 c 0
 58 502 116 726 348 726 c 0
158 357 m 0
 158 261 196 85 348 85 c 0
 486 85 535 233 535 357 c 0
 535 472 489 628 348 628 c 256
 206 628 158 478 158 357 c 0
EndSplineSet
EndChar

StartChar: P
Encoding: 80 80 49
Width: 581
VWidth: 1494
Flags: W
HStem: 0 21G<87 187> 256 100<187 375.551> 605 107<182 214.362 214.362 375.186>
VStem: 87 100<0 256 356 605> 445 102<414.872 552.88>
LayerCount: 2
Fore
SplineSet
248 356 m 2
 401 356 445 409 445 489 c 0
 445 560 392 608 247 608 c 0
 238 608 185 608 182 605 c 1
 182 356 l 1
 248 356 l 2
547 489 m 0
 547 322 419 256 253 256 c 2
 187 256 l 1
 187 0 l 1
 87 0 l 1
 87 589 l 2
 87 619 41 638 41 662 c 0
 41 678 75 724 100 724 c 0
 105 724 116 719 130 712 c 1
 244 712 l 2
 396 712 547 655 547 489 c 0
EndSplineSet
EndChar

StartChar: Q
Encoding: 81 81 50
Width: 714
VWidth: 1494
Flags: W
HStem: -12 105<274.638 415.465> 620 105<276.744 436.507>
VStem: 67 106<221.961 489.725> 538 108<219.504 495.146>
LayerCount: 2
Fore
SplineSet
357 725 m 0
 588 725 646 510 646 357 c 0
 646 264 627 185 590 120 c 1
 685 43 l 1
 622 -31 l 1
 528 46 l 1
 481 7 424 -12 357 -12 c 0
 148 -12 67 162 67 357 c 256
 67 511 125 725 357 725 c 0
357 620 m 0
 210 620 173 463 173 357 c 0
 173 220 226 93 357 93 c 0
 389 93 418 101 444 118 c 1
 375 176 l 1
 436 250 l 1
 505 191 l 1
 527 238 538 294 538 357 c 0
 538 471 502 620 357 620 c 0
EndSplineSet
EndChar

StartChar: R
Encoding: 82 82 51
Width: 623
VWidth: 1494
Flags: W
HStem: -13 21G<87 187 454.989 573> 256 100<187 293> 605 107<182 214.523 214.523 375.186>
VStem: 87 100<0 256 356 605> 445 102<412.972 552.88>
LayerCount: 2
Fore
SplineSet
248 356 m 2
 401 356 445 409 445 489 c 0
 445 560 392 608 247 608 c 0
 246 608 184 607 182 605 c 1
 182 356 l 1
 248 356 l 2
547 489 m 0
 547 361 469 299 390 275 c 1
 573 1 l 1
 468 -13 l 1
 293 256 l 1
 187 256 l 1
 187 0 l 1
 87 0 l 1
 87 589 l 2
 87 619 41 638 41 662 c 0
 41 678 75 724 100 724 c 0
 105 724 116 719 130 712 c 1
 244 712 l 2
 396 712 547 655 547 489 c 0
EndSplineSet
EndChar

StartChar: S
Encoding: 83 83 52
Width: 626
VWidth: 1494
Flags: W
HStem: -23 98<218.304 406.164> 622 103<226.045 407.353>
VStem: 75 107<473.97 581.634> 463 104<123.461 228.74>
LayerCount: 2
Fore
SplineSet
567 189 m 0
 567 92 500 -23 315 -23 c 0
 207 -23 132 5 61 76 c 1
 135 160 l 1
 203 95 244 75 311 75 c 0
 360 75 463 96 463 179 c 0
 463 319 75 290 75 526 c 0
 75 611 134 725 305 725 c 0
 377 725 471 704 529 634 c 1
 478 550 l 1
 469 560 410 622 308 622 c 0
 233 622 182 583 182 525 c 0
 182 378 567 414 567 189 c 0
EndSplineSet
EndChar

StartChar: T
Encoding: 84 84 53
Width: 581
VWidth: 1494
Flags: W
HStem: 0 21G<233 333> 614 99<41.6797 233 333 530.095>
VStem: 233 100<0 614>
LayerCount: 2
Fore
SplineSet
511 713 m 2
 530 713 550 706 550 675 c 0
 550 645 541 614 507 614 c 2
 333 614 l 1
 333 0 l 1
 233 0 l 1
 233 614 l 1
 61 614 l 2
 26 614 20 658 20 676 c 0
 20 708 46 713 62 713 c 2
 511 713 l 2
EndSplineSet
EndChar

StartChar: U
Encoding: 85 85 54
Width: 736
VWidth: 1494
Flags: W
HStem: -12 91<267.298 475.269> 693 20G<97 196 543 641>
VStem: 97 99<146.223 713> 543 98<145.108 226 226 713>
LayerCount: 2
Fore
SplineSet
372 79 m 256
 453 79 543 108 543 226 c 2
 543 713 l 1
 641 713 l 1
 641 236 l 2
 641 85 532 -12 372 -12 c 0
 211 -12 97 67 97 236 c 2
 97 713 l 1
 196 713 l 1
 196 226 l 2
 196 108 292 79 372 79 c 256
EndSplineSet
EndChar

StartChar: V
Encoding: 86 86 55
Width: 695
VWidth: 1494
Flags: W
HStem: 706 20G<24 131.793 562.414 670>
LayerCount: 2
Fore
SplineSet
271 13 m 0
 271 21 275 26 290 49 c 1
 24 709 l 1
 124 726 l 1
 350 146 l 1
 570 726 l 1
 670 709 l 1
 398 24 l 2
 393 6 364 -30 341 -30 c 0
 321 -30 271 -6 271 13 c 0
EndSplineSet
EndChar

StartChar: W
Encoding: 87 87 56
Width: 985
VWidth: 1494
Flags: W
HStem: 707 20G<33 136.038 479.5 499 849.924 952>
LayerCount: 2
Fore
SplineSet
488 727 m 0
 510 727 547 713 547 686 c 256
 547 685 546 680 543 671 c 1
 746 190 l 1
 854 720 l 1
 952 704 l 1
 813 58 l 1
 829 37 835 27 835 19 c 0
 835 -7 777 -26 763 -26 c 0
 742 -26 714 11 709 30 c 2
 493 546 l 1
 277 30 l 2
 267 7 239 -26 221 -26 c 0
 208 -26 150 -7 150 19 c 0
 150 27 154 34 172 58 c 1
 33 704 l 1
 132 720 l 1
 239 190 l 1
 459 709 l 1
 460 721 471 727 488 727 c 0
EndSplineSet
EndChar

StartChar: X
Encoding: 88 88 57
Width: 659
VWidth: 1494
Flags: W
HStem: -9 21G<40.5714 145.333 517.865 621.476> 699 20G<60 173.714 492.09 604>
LayerCount: 2
Fore
SplineSet
531 -9 m 1
 332 294 l 1
 132 -6 l 1
 36 15 l 1
 283 378 l 1
 60 700 l 1
 161 719 l 1
 332 450 l 1
 505 718 l 1
 604 700 l 1
 378 368 l 1
 626 12 l 1
 531 -9 l 1
EndSplineSet
EndChar

StartChar: Y
Encoding: 89 89 58
Width: 597
VWidth: 1494
Flags: W
HStem: 0 21G<248 345> 708 20G<21 125.447 469.291 574>
VStem: 248 97<0 335>
LayerCount: 2
Fore
SplineSet
574 709 m 1
 546 661 546 661 538 650 c 2
 345 335 l 1
 345 0 l 1
 248 0 l 1
 248 335 l 1
 56 651 l 2
 39 679 23 708 21 710 c 1
 114 728 l 1
 296 410 l 1
 481 726 l 1
 574 709 l 1
EndSplineSet
EndChar

StartChar: Z
Encoding: 90 90 59
Width: 606
VWidth: 1494
Flags: W
HStem: 0 97<199 568> 613 97<40 405>
LayerCount: 2
Fore
SplineSet
77 -19 m 0
 47 -19 25 39 25 47 c 0
 25 70 71 94 87 118 c 2
 405 613 l 1
 40 613 l 1
 40 710 l 1
 481 710 l 1
 520 728 515 729 527 729 c 0
 556 729 579 673 579 664 c 0
 579 639 533 616 517 592 c 2
 199 97 l 1
 568 97 l 1
 568 0 l 1
 123 0 l 1
 84 -18 89 -19 77 -19 c 0
EndSplineSet
EndChar

StartChar: bracketleft
Encoding: 91 91 60
Width: 366
VWidth: 1494
Flags: MW
HStem: -138 95<164 280> 647 96<164 280>
VStem: 73 91<-43 647>
LayerCount: 2
Fore
SplineSet
73 -138 m 1
 73 743 l 1
 280 743 l 1
 280 647 l 1
 164 647 l 1
 164 -43 l 1
 280 -43 l 1
 280 -138 l 1
 73 -138 l 1
EndSplineSet
EndChar

StartChar: backslash
Encoding: 92 92 61
Width: 336
VWidth: 1494
Flags: MW
LayerCount: 2
Fore
SplineSet
269 -25 m 1
 -21 743 l 1
 69 743 l 1
 359 -25 l 1
 269 -25 l 1
EndSplineSet
EndChar

StartChar: bracketright
Encoding: 93 93 62
Width: 367
VWidth: 1494
Flags: W
HStem: -138 95<87 202> 647 96<87 202>
VStem: 202 91<-43 647>
LayerCount: 2
Fore
SplineSet
87 -138 m 1
 87 -43 l 1
 202 -43 l 1
 202 647 l 1
 87 647 l 1
 87 743 l 1
 293 743 l 1
 293 -138 l 1
 87 -138 l 1
EndSplineSet
EndChar

StartChar: asciicircum
Encoding: 94 94 63
Width: 599
VWidth: 1494
Flags: W
HStem: 318 380<238 410 238 238>
VStem: 81 435<318 318 318 318>
LayerCount: 2
Fore
SplineSet
410 318 m 1
 297 589 l 1
 187 318 l 1
 81 318 l 1
 238 698 l 1
 359 698 l 1
 516 318 l 1
 410 318 l 1
EndSplineSet
EndChar

StartChar: underscore
Encoding: 95 95 64
Width: 556
VWidth: 1494
Flags: W
HStem: -149 74<0 556>
LayerCount: 2
Fore
SplineSet
0 -149 m 1
 0 -75 l 1
 556 -75 l 1
 556 -149 l 1
 0 -149 l 1
EndSplineSet
EndChar

StartChar: grave
Encoding: 96 96 65
Width: 322
VWidth: 1494
Flags: W
HStem: 577 157<34 271 34 34>
LayerCount: 2
Fore
SplineSet
271 577 m 1
 184 577 l 1
 34 734 l 1
 173 732 l 1
 271 577 l 1
EndSplineSet
EndChar

StartChar: a
Encoding: 97 97 66
Width: 605
VWidth: 1494
Flags: W
HStem: -9 88<216.039 356.152> 438 90<214.517 356.179>
VStem: 52 92<161.204 355.873> 429 96<158.942 356.177 466 522>
LayerCount: 2
Fore
SplineSet
284 79 m 0
 376 79 421 161 429 233 c 2
 429 286 l 2
 426 314 400 438 284 438 c 0
 183 438 144 337 144 259 c 0
 144 200 171 79 284 79 c 0
525 123 m 2
 525 70 529 47 547 9 c 1
 460 -21 l 1
 439 22 437 30 435 43 c 1
 416 26 375 -9 284 -9 c 0
 111 -9 52 153 52 259 c 0
 52 386 126 528 284 528 c 0
 347 528 399 496 431 466 c 1
 431 522 l 1
 525 522 l 1
 525 123 l 2
EndSplineSet
Substitution2: "Single Substitution lookup 22 subtable" uni0E38
Substitution2: "Single Substitution lookup 22 subtable" uni0E38
EndChar

StartChar: b
Encoding: 98 98 67
Width: 602
VWidth: 1494
Flags: W
HStem: -6 90<250.21 396.234> 441 88<254.8 397.902>
VStem: 85 96<161.164 353.401 468 731> 466 92<162.59 359.737>
LayerCount: 2
Fore
SplineSet
558 263 m 0
 558 136 484 -6 326 -6 c 0
 268 -6 218 13 176 52 c 1
 173 39 170 24 149 -12 c 1
 63 18 l 1
 81 56 85 79 85 132 c 2
 85 731 l 1
 178 731 l 1
 178 468 l 1
 211 498 262 529 326 529 c 0
 494 529 558 377 558 263 c 0
326 84 m 0
 438 84 466 199 466 263 c 0
 466 325 438 441 326 441 c 0
 210 441 184 307 181 281 c 2
 181 230 l 2
 189 158 235 84 326 84 c 0
EndSplineSet
Substitution2: "Single Substitution lookup 22 subtable" uni0E39
Substitution2: "Single Substitution lookup 22 subtable" uni0E39
EndChar

StartChar: c
Encoding: 99 99 68
Width: 487
VWidth: 1494
Flags: W
HStem: -12 90<207.584 358.517> 444 91<203.226 348.663>
VStem: 42 91<158.747 364.212>
LayerCount: 2
Fore
SplineSet
42 262 m 0
 42 447 160 535 272 535 c 0
 339 535 395 508 439 468 c 1
 398 378 l 1
 371 412 332 444 271 444 c 0
 195 444 133 375 133 262 c 0
 133 117 223 78 283 78 c 0
 318 78 364 92 396 132 c 1
 456 63 l 1
 439 48 386 -12 282 -12 c 0
 186 -12 42 51 42 262 c 0
EndSplineSet
Substitution2: "Single Substitution lookup 22 subtable" uni0E3A
Substitution2: "Single Substitution lookup 22 subtable" uni0E3A
EndChar

StartChar: d
Encoding: 100 100 69
Width: 602
VWidth: 1494
Flags: W
HStem: -6 90<209.754 357.646> 441 88<211.797 353.598>
VStem: 51 91<164.238 362.523> 428 95<165.563 347.355 468 731>
LayerCount: 2
Fore
SplineSet
283 529 m 0
 346 529 398 498 431 468 c 1
 431 731 l 1
 523 731 l 1
 523 132 l 2
 523 79 528 56 546 18 c 1
 459 -12 l 1
 435 29 434 38 432 51 c 1
 391 13 342 -6 283 -6 c 0
 127 -6 51 130 51 263 c 0
 51 389 121 529 283 529 c 0
283 441 m 0
 170 441 142 326 142 263 c 0
 142 199 170 84 283 84 c 0
 373 84 421 161 428 230 c 2
 428 281 l 2
 421 347 376 441 283 441 c 0
EndSplineSet
EndChar

StartChar: e
Encoding: 101 101 70
Width: 584
VWidth: 1494
Flags: MW
HStem: -8 82<228.225 357.798> 218 88<154 438> 444 84<221.544 372.91>
VStem: 49 102<153.379 218> 438 97<306 376.754>
LayerCount: 2
Fore
SplineSet
300 528 m 0
 488 528 535 361 535 274 c 0
 535 248 533 218 475 218 c 2
 151 218 l 1
 162 126 234 74 303 74 c 0
 327 74 367 81 426 120 c 1
 483 49 l 1
 467 35 411 -8 303 -8 c 0
 150 -8 49 104 49 259 c 0
 49 367 117 528 300 528 c 0
438 306 m 1
 438 377 385 444 297 444 c 0
 263 444 175 432 154 306 c 1
 438 306 l 1
EndSplineSet
EndChar

StartChar: f
Encoding: 102 102 71
Width: 334
VWidth: 1494
Flags: W
HStem: 445 77<33 109 200 308> 650 82<211.784 288.515>
VStem: 109 91<-81.058 445 522 640.364>
LayerCount: 2
Fore
SplineSet
109 589 m 2
 109 703 181 732 242 732 c 0
 267 732 306 727 339 718 c 1
 326 638 l 1
 299 646 277 650 258 650 c 0
 223 650 200 638 200 571 c 2
 200 522 l 1
 324 522 l 1
 308 445 l 1
 200 445 l 1
 200 22 l 2
 200 -85 151 -141 138 -163 c 1
 49 -138 l 1
 83 -100 109 -54 109 21 c 2
 109 445 l 1
 16 445 l 1
 33 522 l 1
 109 522 l 1
 109 589 l 2
EndSplineSet
EndChar

StartChar: g
Encoding: 103 103 72
Width: 602
VWidth: 1494
Flags: W
HStem: -208 85<212.221 360.338> -10 89<211.039 353.282> 439 90<209.431 356.936>
VStem: 51 88<160.957 357.935> 426 96<-52.4624 46 159.548 360.24>
LayerCount: 2
Fore
SplineSet
547 502 m 1
 530 466 522 445 522 389 c 2
 523 30 l 2
 523 -93 450 -208 259 -208 c 0
 229 -208 200 -205 170 -199 c 1
 202 -117 l 1
 226 -121 248 -123 268 -123 c 0
 375 -123 429 -64 429 46 c 1
 389 9 340 -10 281 -10 c 0
 124 -10 51 126 51 260 c 0
 51 394 126 529 281 529 c 0
 342 529 392 510 431 471 c 1
 432 482 435 491 440 500 c 2
 457 532 l 1
 547 502 l 1
281 79 m 0
 373 79 418 163 426 232 c 2
 426 255 l 2
 426 362 376 439 281 439 c 0
 167 439 139 319 139 260 c 0
 139 198 170 79 281 79 c 0
EndSplineSet
EndChar

StartChar: h
Encoding: 104 104 73
Width: 602
VWidth: 1494
Flags: W
HStem: -18 21<88 179 440 507.129> 447 81<243.825 376.531>
VStem: 88 91<0 376.244 474 731> 423 91<53.4693 399.947>
LayerCount: 2
Fore
SplineSet
514 100 m 2
 514 56 517 39 538 13 c 1
 451 -18 l 1
 429 24 423 53 423 100 c 2
 423 329 l 2
 423 423 347 447 311 447 c 0
 237 447 179 378 179 294 c 2
 179 0 l 1
 88 0 l 1
 88 731 l 1
 181 731 l 1
 181 474 l 1
 216 506 261 528 314 528 c 0
 434 528 514 434 514 329 c 2
 514 100 l 2
EndSplineSet
EndChar

StartChar: i
Encoding: 105 105 74
Width: 289
VWidth: 1494
Flags: W
HStem: 0 21G<100 190> 502 20G<100 190> 590 123<96.3723 190.893>
VStem: 81 125<605.491 697.556> 100 90<0 522>
LayerCount: 2
Fore
SplineSet
145 713 m 0xf0
 180 713 206 684 206 652 c 256
 206 616 178 590 145 590 c 256
 112 590 81 615 81 652 c 256
 81 685 108 713 145 713 c 0xf0
100 0 m 1xe8
 100 522 l 1
 190 522 l 1
 190 0 l 1
 100 0 l 1xe8
EndSplineSet
EndChar

StartChar: j
Encoding: 106 106 75
Width: 289
VWidth: 1494
Flags: W
HStem: -212 79<-41.8487 71.5439> 502 20G<100 190> 592 123<94.967 189.707>
VStem: 79 126<608.005 699.859> 100 90<-94.0576 522>
LayerCount: 2
Fore
SplineSet
142 715 m 0xf0
 177 715 205 690 205 653 c 256
 205 617 174 592 142 592 c 256
 110 592 79 618 79 653 c 256
 79 690 109 715 142 715 c 0xf0
-75 -133 m 1
 90 -123 100 -101 100 -3 c 2
 100 522 l 1
 190 522 l 1
 190 3 l 2xe8
 190 -132 159 -193 -37 -212 c 1
 -75 -133 l 1
EndSplineSet
EndChar

StartChar: k
Encoding: 107 107 76
Width: 505
VWidth: 1494
Flags: W
HStem: -16 21<78 170 388 480.621> 514 20G<301 438.515>
VStem: 78 92<0 242 353 731>
LayerCount: 2
Fore
SplineSet
422 -16 m 1
 354 52 266 139 220 188 c 2
 170 242 l 1
 170 0 l 1
 78 0 l 1
 78 731 l 1
 170 731 l 1
 170 353 l 1
 181 362 196 375 215 392 c 0
 223 400 215 392 387 534 c 1
 472 501 l 1
 268 332 l 2
 248 315 234 304 227 299 c 1
 507 13 l 1
 422 -16 l 1
EndSplineSet
EndChar

StartChar: l
Encoding: 108 108 77
Width: 291
VWidth: 1494
Flags: W
HStem: 0 21G<100 191>
VStem: 100 91<0 723>
LayerCount: 2
Fore
SplineSet
100 0 m 1
 100 723 l 1
 139 758 l 1
 191 758 l 1
 191 0 l 1
 100 0 l 1
EndSplineSet
EndChar

StartChar: m
Encoding: 109 109 78
Width: 884
VWidth: 1494
Flags: W
HStem: 0 21G<87 178 399 490 729 790.125> 444 84<224.248 359.927 544.424 676.878>
VStem: 87 91<0 300 389 391.417> 399 91<0 385.296> 710 90<76.5716 408.294>
LayerCount: 2
Fore
SplineSet
290 444 m 0
 200 444 178 359 178 300 c 2
 178 0 l 1
 87 0 l 1
 87 389 l 2
 87 441 82 465 64 502 c 1
 151 532 l 1
 162 510 168 498 173 474 c 1
 209 510 252 528 303 528 c 0
 395 528 442 472 456 450 c 1
 491 500 551 528 611 528 c 0
 741 528 800 428 800 323 c 2
 800 103 l 2
 801 90 810 22 822 16 c 1
 737 -16 l 1
 729 -1 l 2
 725 6 710 37 710 103 c 2
 710 335 l 2
 710 386 690 444 611 444 c 0
 529 444 490 371 490 300 c 2
 490 0 l 1
 399 0 l 1
 399 335 l 2
 399 397 360 444 290 444 c 0
EndSplineSet
EndChar

StartChar: n
Encoding: 110 110 79
Width: 587
VWidth: 1494
Flags: W
HStem: 0 21G<87 179 425 493.419> 442 87<231.15 368.679>
VStem: 87 92<0 385.937> 410 89<71.9857 403.482>
LayerCount: 2
Fore
SplineSet
299 442 m 0
 214 442 179 367 179 302 c 2
 179 0 l 1
 87 0 l 1
 87 389 l 2
 87 441 82 465 64 502 c 1
 151 532 l 1
 163 510 169 497 173 472 c 1
 207 506 255 529 309 529 c 0
 461 529 499 408 499 333 c 2
 499 100 l 2
 499 93 504 40 525 13 c 1
 436 -18 l 1
 414 23 410 59 410 100 c 2
 410 335 l 2
 410 400 368 442 299 442 c 0
EndSplineSet
EndChar

StartChar: o
Encoding: 111 111 80
Width: 574
VWidth: 1494
Flags: W
HStem: -6 82<216.354 350.152> 444 82<216.688 347.585>
VStem: 52 92<161.925 358.708> 423 93<163.453 358.799>
LayerCount: 2
Fore
SplineSet
284 526 m 256
 442 526 516 395 516 260 c 0
 516 130 437 -6 284 -6 c 0
 124 -6 52 128 52 260 c 256
 52 395 126 526 284 526 c 256
284 76 m 0
 367 76 423 164 423 260 c 0
 423 336 380 444 284 444 c 0
 200 444 144 361 144 260 c 256
 144 159 200 76 284 76 c 0
EndSplineSet
EndChar

StartChar: p
Encoding: 112 112 81
Width: 602
VWidth: 1494
Flags: W
HStem: -221 21G<96.0968 160.5> -9 88<253.063 392.913> 441 88<251.071 392.492>
VStem: 85 91<-151.165 45 160.719 359.443> 465 91<161.817 357.716>
LayerCount: 2
Fore
SplineSet
324 79 m 0
 431 79 465 192 465 260 c 256
 465 317 437 441 324 441 c 0
 230 441 187 356 179 286 c 2
 179 233 l 2
 187 165 232 79 324 79 c 0
85 389 m 2
 85 445 77 466 60 502 c 1
 149 532 l 1
 159 514 170 495 175 469 c 1
 215 509 265 529 324 529 c 0
 480 529 556 393 556 260 c 256
 556 127 480 -9 324 -9 c 0
 265 -9 215 9 176 45 c 1
 176 -103 l 2
 176 -139 172 -181 149 -221 c 1
 67 -190 l 1
 71 -186 85 -138 85 -103 c 2
 85 389 l 2
EndSplineSet
EndChar

StartChar: q
Encoding: 113 113 82
Width: 602
VWidth: 1494
Flags: W
HStem: -221 21G<443 511.419> -9 88<211.094 350.143> 441 88<206.452 350.799>
VStem: 48 90<161.381 359.387> 428 91<-140.923 45 161.701 233 233 357.99>
LayerCount: 2
Fore
SplineSet
48 260 m 256
 48 396 124 529 280 529 c 0
 341 529 390 510 429 471 c 1
 431 484 433 491 454 532 c 1
 544 502 l 1
 527 466 519 445 519 389 c 2
 519 -103 l 2
 519 -125 522 -165 543 -190 c 1
 454 -221 l 1
 432 -180 428 -144 428 -103 c 2
 428 45 l 1
 389 9 339 -9 280 -9 c 0
 124 -9 48 124 48 260 c 256
280 79 m 0
 367 79 417 160 425 233 c 2
 425 284 l 2
 417 354 374 441 280 441 c 0
 166 441 138 322 138 260 c 256
 138 176 181 79 280 79 c 0
EndSplineSet
EndChar

StartChar: r
Encoding: 114 114 83
Width: 396
VWidth: 1494
Flags: W
HStem: 0 21G<91 184> 442 94<233.402 349.794>
VStem: 91 93<0 384.748>
LayerCount: 2
Fore
SplineSet
291 442 m 0
 227 442 184 377 184 288 c 2
 184 0 l 1
 91 0 l 1
 91 389 l 2
 91 441 87 465 69 502 c 1
 155 532 l 1
 164 517 169 510 175 475 c 1
 212 517 256 536 305 536 c 0
 339 536 375 524 414 504 c 1
 356 419 l 1
 333 434 311 442 291 442 c 0
EndSplineSet
EndChar

StartChar: s
Encoding: 115 115 84
Width: 503
VWidth: 1494
Flags: W
HStem: -9 81<181.684 346.981> 450 84<185.825 319.019>
VStem: 72 94<348.189 429.102> 371 92<96.3566 177.224>
LayerCount: 2
Fore
SplineSet
259 450 m 0
 210 450 166 430 166 387 c 256
 166 288 463 316 463 145 c 0
 463 22 344 -9 253 -9 c 0
 203 -9 139 -7 42 70 c 1
 108 135 l 1
 149 97 194 72 251 72 c 0
 306 72 371 85 371 135 c 0
 371 179 344 189 239 227 c 0
 128 264 72 315 72 380 c 0
 72 452 134 534 260 534 c 0
 318 534 395 506 436 478 c 1
 396 401 l 1
 328 445 286 450 259 450 c 0
EndSplineSet
EndChar

StartChar: t
Encoding: 116 116 85
Width: 352
VWidth: 1494
Flags: W
HStem: -12 82<203.015 264.467> 445 77<31 106 197 294>
VStem: 106 91<76.3712 445 522 641>
LayerCount: 2
Fore
SplineSet
240 70 m 0
 254 70 275 74 306 87 c 1
 335 4 l 1
 335 4 248 -12 239 -12 c 0
 121 -12 106 57 106 145 c 2
 106 445 l 1
 10 445 l 1
 31 522 l 1
 106 522 l 1
 106 641 l 1
 152 676 l 1
 197 676 l 1
 197 522 l 1
 317 522 l 1
 294 445 l 1
 197 445 l 1
 197 124 l 2
 197 88 208 70 240 70 c 0
EndSplineSet
EndChar

StartChar: u
Encoding: 117 117 86
Width: 597
VWidth: 1494
Flags: W
HStem: -12 81<225.121 362.08> 502 20G<88 179 422 513>
VStem: 88 91<113.813 522> 422 91<133.504 215 215 522>
LayerCount: 2
Fore
SplineSet
513 123 m 2
 513 70 520 47 538 9 c 1
 453 -21 l 1
 443 -4 433 15 428 40 c 1
 389 1 335 -12 286 -12 c 0
 128 -12 88 119 88 184 c 2
 88 522 l 1
 179 522 l 1
 179 182 l 2
 179 114 227 69 296 69 c 0
 377 69 422 148 422 215 c 2
 422 522 l 1
 513 522 l 1
 513 123 l 2
EndSplineSet
EndChar

StartChar: v
Encoding: 118 118 87
Width: 529
VWidth: 1494
Flags: W
HStem: -14 21G<253 281.5> 517 20G<48.069 114.092 411.222 472.75>
VStem: 22 483<508 508 508 508>
LayerCount: 2
Fore
SplineSet
268 -14 m 0
 238 -14 208 6 208 23 c 0
 208 26 212 38 212 40 c 1
 22 508 l 1
 106 537 l 1
 265 144 l 1
 419 540 l 1
 505 508 l 1
 333 84 l 2
 331 80 302 9 302 6 c 1
 300 0 295 -14 268 -14 c 0
EndSplineSet
EndChar

StartChar: w
Encoding: 119 119 88
Width: 798
VWidth: 1494
Flags: W
HStem: -19 21G<221 248 546 572> 519 20G<38.2963 108.205 375 397.5 688.861 751>
LayerCount: 2
Fore
SplineSet
384 539 m 0
 411 539 448 523 448 498 c 256
 448 497 447 492 444 483 c 1
 567 123 l 1
 695 540 l 1
 779 510 l 1
 616 37 l 1
 619 27 620 22 620 20 c 0
 620 -4 584 -19 560 -19 c 0
 532 -19 525 -5 523 1 c 2
 393 390 l 1
 271 1 l 2
 269 -5 262 -19 234 -19 c 0
 208 -19 174 -4 174 19 c 0
 174 23 178 35 178 37 c 1
 16 513 l 1
 102 540 l 1
 232 121 l 1
 353 520 l 1
 354 534 366 539 384 539 c 0
EndSplineSet
EndChar

StartChar: x
Encoding: 120 120 89
Width: 536
VWidth: 1494
Flags: MW
HStem: -15 21G<75.3846 120.673 417.135 460.778> 524 20G<72.3878 118.207 417.793 463.612>
LayerCount: 2
Fore
SplineSet
508 495 m 1
 323 260 l 1
 508 39 l 1
 433 -15 l 1
 268 193 l 1
 105 -15 l 1
 28 37 l 1
 212 260 l 1
 28 495 l 1
 103 544 l 1
 268 327 l 1
 433 544 l 1
 508 495 l 1
EndSplineSet
EndChar

StartChar: y
Encoding: 121 121 90
Width: 559
VWidth: 1494
Flags: W
HStem: -226 21G<94.5641 152.769> 523 20G<70.1579 125.479 437.12 488.077>
LayerCount: 2
Fore
SplineSet
73 -148 m 1
 187 -105 198 -98 238 30 c 1
 28 505 l 1
 117 543 l 1
 287 142 l 1
 445 543 l 1
 529 504 l 1
 290 -87 l 2
 280 -111 254 -166 168 -200 c 2
 102 -226 l 1
 73 -148 l 1
EndSplineSet
EndChar

StartChar: z
Encoding: 122 122 91
Width: 517
VWidth: 1494
Flags: MW
HStem: 0 82<188 475> 448 83<40 324>
LayerCount: 2
Fore
SplineSet
74 -3 m 0
 51 -3 36 10 36 49 c 0
 36 61 39 71 44 74 c 1
 89 90 88 93 93 100 c 2
 324 448 l 1
 40 448 l 1
 40 531 l 1
 417 531 l 1
 424 533 432 534 439 534 c 0
 454 534 476 526 476 482 c 0
 476 466 472 459 468 458 c 2
 454 452 l 2
 428 442 424 437 420 431 c 2
 188 82 l 1
 475 82 l 1
 475 0 l 1
 96 0 l 1
 89 -2 81 -3 74 -3 c 0
EndSplineSet
EndChar

StartChar: braceleft
Encoding: 123 123 92
Width: 306
VWidth: 1494
Flags: W
HStem: -154 52<170.011 233> 697 52<190.851 233>
VStem: 81 88<-96.1054 270.123 345.664 692.469>
LayerCount: 2
Fore
SplineSet
133 297 m 1
 149 282 169 252 169 224 c 2
 169 -72 l 2
 169 -102 198 -97 233 -102 c 1
 277 -154 l 1
 167 -154 l 2
 110 -154 81 -105 81 -70 c 2
 81 232 l 2
 81 260 73 268 46 275 c 1
 49 320 l 1
 75 329 81 348 81 365 c 2
 81 665 l 2
 81 699 110 749 167 749 c 2
 277 749 l 1
 233 697 l 1
 197 693 169 700 169 667 c 2
 169 371 l 2
 169 341 146 311 133 297 c 1
EndSplineSet
EndChar

StartChar: bar
Encoding: 124 124 93
Width: 276
VWidth: 1494
Flags: W
HStem: -13 741<94 182 94 182 94 94>
VStem: 94 88<-13 728>
LayerCount: 2
Fore
SplineSet
94 -13 m 1
 94 728 l 1
 182 728 l 1
 182 -13 l 1
 94 -13 l 1
EndSplineSet
EndChar

StartChar: braceright
Encoding: 125 125 94
Width: 309
VWidth: 1494
Flags: W
HStem: -154 54<84 141.427> 697 52<76 141.019>
VStem: 142 87<-95.2811 246.651 346.454 690.693>
LayerCount: 2
Fore
SplineSet
229 365 m 2
 229 348 236 329 263 320 c 1
 263 275 l 1
 239 267 229 262 229 232 c 2
 229 -70 l 2
 229 -103 202 -154 142 -154 c 2
 33 -154 l 1
 84 -100 l 1
 120 -96 142 -99 142 -72 c 2
 142 224 l 2
 142 246 154 277 176 297 c 1
 161 313 142 342 142 371 c 2
 142 667 l 2
 142 697 114 691 76 697 c 1
 33 749 l 1
 142 749 l 2
 201 749 229 699 229 665 c 2
 229 365 l 2
EndSplineSet
EndChar

StartChar: asciitilde
Encoding: 126 126 95
Width: 659
VWidth: 1494
Flags: W
HStem: 167 107<371.994 469.932> 244 108<158.764 293.097>
LayerCount: 2
Fore
SplineSet
448 274 m 0x80
 466 274 500 284 541 345 c 1
 604 259 l 1
 545 176 470 167 442 167 c 0x80
 358 167 292 244 219 244 c 0
 177 244 148 220 115 173 c 1
 67 268 l 1
 86 288 134 352 218 352 c 0x40
 300 352 377 274 448 274 c 0x80
EndSplineSet
EndChar

StartChar: uni0E33.alt1
Encoding: 65539 -1 96
Width: 556
VWidth: 1494
Flags: W
HStem: 0 21<380 481> 517 91<175.173 323.036> 734 69<-386.213 -300.164> 912 70<-385.068 -300.346>
VStem: -466 70<825.818 888.935> -289 70<825.256 889.37> 22 98<398.743 479.248> 380 101<0 439.626>
LayerCount: 2
Back
SplineSet
-342 712 m 0
 -370 712 -393 718.167 -411 730.5 c 128
 -429 742.833 -442.667 758 -452 776 c 128
 -461.333 794 -466 813.833 -466 835.5 c 128
 -466 857.167 -461.333 877 -452 895 c 128
 -442.667 913 -429 928.333 -411 941 c 128
 -393 953.667 -370 960 -342 960 c 0
 -315.333 960 -292.833 953.667 -274.5 941 c 128
 -256.167 928.333 -242.5 913 -233.5 895 c 128
 -224.5 877 -219.667 857.167 -219 835.5 c 128
 -218.333 813.833 -222.833 794 -232.5 776 c 128
 -242.167 758 -256.167 742.833 -274.5 730.5 c 128
 -292.833 718.167 -315.333 712 -342 712 c 0
-342 780 m 256
 -324 780 -310.5 785.833 -301.5 797.5 c 128
 -292.5 809.167 -288 821.667 -288 835 c 128
 -288 848.333 -292.5 860.667 -301.5 872 c 128
 -310.5 883.333 -324 889 -342 889 c 256
 -360 889 -373.5 883.333 -382.5 872 c 128
 -391.5 860.667 -396 848.333 -396 835 c 128
 -396 821.667 -391.5 809.167 -382.5 797.5 c 128
 -373.5 785.833 -360 780 -342 780 c 256
481 0 m 1
 380 0 l 1
 380 407 l 2
 378.667 415 379.833 424.167 383.5 434.5 c 128
 387.167 444.833 391.333 451.333 396 454 c 1
 381.333 469.333 363 484.167 341 498.5 c 128
 319 512.833 290 519 254 517 c 0
 228 516.333 206.833 512 190.5 504 c 128
 174.167 496 161 486 151 474 c 128
 141 462 133.5 448.833 128.5 434.5 c 128
 123.5 420.167 120.667 406 120 392 c 1
 22 392 l 1
 28 455.333 50.5 506.667 89.5 546 c 128
 128.5 585.333 184 606 256 608 c 0
 280.667 609.333 302.667 607.667 322 603 c 128
 341.333 598.333 358.833 592.333 374.5 585 c 128
 390.167 577.667 403.833 568.833 415.5 558.5 c 128
 427.167 548.167 438 538 448 528 c 1
 453.333 530 460.5 529.5 469.5 526.5 c 128
 478.5 523.5 488.333 516 499 504 c 0
 507 494.667 512.333 486.833 515 480.5 c 128
 517.667 474.167 518.167 468.167 516.5 462.5 c 128
 514.833 456.833 512 451.5 508 446.5 c 128
 504 441.5 499.667 435.667 495 429 c 256
 489.667 422.333 486 415.167 484 407.5 c 128
 482 399.833 481 389 481 375 c 2
 481 0 l 1
EndSplineSet
Fore
Refer: 261 3634 N 1 0 0 1 0 0 2
Refer: 284 3661 N 1 0 0 1 -178 0 2
EndChar

StartChar: quotedbl
Encoding: 34 34 97
Width: 429
VWidth: 1494
Flags: W
HStem: 422 278<88 163 259 333>
VStem: 72 282<653.667 700 700 700 700 700>
LayerCount: 2
Fore
SplineSet
333 422 m 1
 259 422 l 1
 242 700 l 1
 354 700 l 1
 333 422 l 1
163 422 m 1
 88 422 l 1
 72 700 l 1
 184 700 l 1
 163 422 l 1
EndSplineSet
EndChar

StartChar: exclam
Encoding: 33 33 98
Width: 384
VWidth: 1494
Flags: W
HStem: -10 131<143.2 239.338> 692 20G<132 250>
VStem: 126 131<7.20044 103.346 604.278 712> 149 83<158 265.722>
LayerCount: 2
Fore
SplineSet
232 158 m 1xd0
 149 158 l 1
 132 712 l 1
 250 712 l 1
 232 158 l 1xd0
191 121 m 256
 229 121 257 90 257 55 c 256
 257 20 229 -10 191 -10 c 256
 152 -10 126 21 126 55 c 256xe0
 126 93 156 121 191 121 c 256
EndSplineSet
EndChar

StartChar: uni0E4E.alt1
Encoding: 65540 -1 99
Width: 0
VWidth: 1494
Flags: W
HStem: 679 69<-381.919 -298.924> 1014 37<-265.989 -175.835 -186.971 -167>
VStem: -472 103<756.236 811.024> -376 92<909.846 995.129>
LayerCount: 2
Back
SplineSet
-118 1007 m 1
 -162.667 1016.33 -201.5 1016.83 -234.5 1008.5 c 128
 -267.5 1000.17 -284.5 982.5 -285.5 955.5 c 128
 -286.5 928.5 -268 907 -230 891 c 1
 -260 842 l 1
 -324 838.667 -360.333 822.667 -369 794 c 1
 -370.333 768.667 -356.333 754 -327 750 c 128
 -297.667 746 -276 748 -262 756 c 1
 -300 695 l 1
 -340 676.333 -378.167 674.167 -414.5 688.5 c 128
 -450.833 702.833 -470 731 -472 773 c 0
 -467.333 837.667 -422.667 875 -338 885 c 1
 -368 907 -380.5 933.667 -375.5 965 c 128
 -370.5 996.333 -349.5 1020 -312.5 1036 c 128
 -275.5 1052 -227 1055 -167 1045 c 1
 -118 1007 l 1
EndSplineSet
Fore
Refer: 285 3662 N 1 0 0 1 -104 0 2
EndChar

StartChar: exclamdown
Encoding: 161 161 100
Width: 376
VWidth: 1494
Flags: W
HStem: 383 131<143.2 239.338>
VStem: 132 118<-208 -100.472 400.551 496.346> 149 83<237.472 345>
LayerCount: 2
Fore
SplineSet
250 -208 m 1xc0
 132 -208 l 1xc0
 149 345 l 1
 232 345 l 1xa0
 250 -208 l 1xc0
191 514 m 256
 229 514 257 483 257 448 c 256
 257 414 229 383 191 383 c 256
 153 383 126 414 126 448 c 256
 126 486 156 514 191 514 c 256
EndSplineSet
EndChar

StartChar: cent
Encoding: 162 162 101
Width: 674
VWidth: 1494
Flags: W
HStem: -10 100<410 497.712>
VStem: 63 104<226.948 482.293> 327 83<-75 -10 97 611 720 789>
LayerCount: 2
Fore
SplineSet
63 354 m 0
 63 665 271 715 327 718 c 1
 327 789 l 1
 410 789 l 1
 410 720 l 1
 527 716 588 657 602 644 c 1
 558 552 l 1
 512 592 456 606 410 616 c 1
 410 90 l 1
 453 92 517 110 561 152 c 1
 625 78 l 1
 599.435 54.7591 526.885 -10 410 -10 c 1
 410 -75 l 1
 327 -75 l 1
 327 -7 l 1
 71 40 63 282 63 354 c 0
327 611 m 1
 221 589 167 487 167 354 c 0
 167 130 319 101 327 97 c 1
 327 611 l 1
EndSplineSet
EndChar

StartChar: sterling
Encoding: 163 163 102
Width: 674
VWidth: 1494
Flags: W
HStem: 0 96<206 586> 315 81<75 163 278 417> 634 91<278.726 425.153>
VStem: 126 101<431.025 582.717> 182 104<167.508 294.643>
LayerCount: 2
Fore
SplineSet
163 396 m 1xe8
 144 436 126 484 126 534 c 0
 126 687 264 725 350 725 c 0
 434 725 508 693 550 653 c 1
 508 574 l 1
 455 625 395 634 362 634 c 0
 313 634 227 612 227 514 c 0xf0
 227 446 260 403 260 398 c 1
 445 398 l 1
 417 317 l 1
 278 317 l 1
 284 293 286 268 286 256 c 0
 286 189 257 133 206 96 c 1
 587 96 l 1
 586 0 l 1
 84 0 l 1
 84 79 l 1
 147 129 182 185 182 255 c 0
 182 274 179 294 175 315 c 1
 51 315 l 1
 75 396 l 1
 163 396 l 1xe8
EndSplineSet
EndChar

StartChar: currency
Encoding: 164 164 103
Width: 726
VWidth: 1494
Flags: W
HStem: 146 95<298.773 430.333> 448 92<299.822 413.264>
VStem: 161 99<280.149 407.944> 468 97<293.291 406.11>
LayerCount: 2
Fore
SplineSet
534 444 m 1
 553 403 565 401 565 354 c 0
 565 309 562 296 531 241 c 1
 605 164 l 1
 540 102 l 1
 463 176 l 1
 415 151 414 146 362 146 c 0
 323 146 289 161 265 178 c 1
 187 100 l 1
 121 166 l 1
 197 244 l 1
 171 274 161 310 161 345 c 0
 161 398 182 431 196 444 c 1
 118 519 l 1
 185 586 l 1
 262 510 l 1
 285 526 321 540 361 540 c 0
 383 540 433 536 468 513 c 1
 546 589 l 1
 611 522 l 1
 534 444 l 1
363 241 m 0
 432 241 468 293 468 338 c 0
 468 398 426 448 363 448 c 0
 292 448 260 386 260 345 c 0
 260 282 309 241 363 241 c 0
EndSplineSet
EndChar

StartChar: yen
Encoding: 165 165 104
Width: 618
VWidth: 1494
Flags: W
HStem: 0 21G<260 357> 155 62<100 260 356 511> 283 61<100 259 356 511>
VStem: 260 96<0 155 217 283>
LayerCount: 2
Fore
SplineSet
593 697 m 1
 356 344 l 1
 511 344 l 1
 511 283 l 1
 356 283 l 1
 356 217 l 1
 511 217 l 1
 511 155 l 1
 356 155 l 1
 357 0 l 1
 260 0 l 1
 260 155 l 1
 100 155 l 1
 100 217 l 1
 260 217 l 1
 259 283 l 1
 100 283 l 1
 100 344 l 1
 260 344 l 1
 22 697 l 1
 94 743 l 1
 308 428 l 1
 522 743 l 1
 593 697 l 1
EndSplineSet
EndChar

StartChar: brokenbar
Encoding: 166 166 105
Width: 269
VWidth: 1494
Flags: W
HStem: 705 20G<91 179>
VStem: 91 88<-187 178 360 725>
LayerCount: 2
Fore
SplineSet
179 360 m 1
 91 360 l 1
 91 725 l 1
 179 725 l 1
 179 360 l 1
91 178 m 1
 179 178 l 1
 179 -187 l 1
 91 -187 l 1
 91 178 l 1
EndSplineSet
EndChar

StartChar: section
Encoding: 167 167 106
Width: 683
VWidth: 1494
Flags: W
HStem: -129 97<237.785 398.786> 697 104<306.534 472.412>
VStem: 85 108<349.92 443.633> 137 136<579.101 662.76> 432 115<-0.773041 99.8139> 489 112<254.385 334.455>
LayerCount: 2
Fore
SplineSet
137 628 m 0xd0
 137 732 230 801 351 801 c 0
 459 801 525 772 581 712 c 1
 507 643 l 1
 482 682 434 697 374 697 c 0
 318 697 273 659 273 613 c 0
 273 569 306 553 331 538 c 0
 502 438 601 417 601 296 c 0xd4
 601 243 572 197 544 174 c 0
 511 147 515 150 510 147 c 1
 510 142 547 103 547 47 c 0
 547 -59 462 -129 327 -129 c 0
 240 -129 189 -109 117 -42 c 1
 193 27 l 1
 221 -14 280 -32 327 -32 c 0
 409 -32 432 20 432 55 c 0
 432 84 413 101 390 114 c 2
 170 241 l 2
 120 270 85 315 85 390 c 0xe8
 85 451 113 500 169 537 c 1
 146 566 137 596 137 628 c 0xd0
244 463 m 1
 204 442 196 427 193 399 c 0xe4
 193 346 238 332 318 286 c 2
 436 218 l 1
 485 251 489 268 489 287 c 0
 489 323 465 340 453 347 c 2
 453 347 246 463 244 463 c 1
EndSplineSet
EndChar

StartChar: dieresis
Encoding: 168 168 107
Width: 328
VWidth: 1494
Flags: W
HStem: 595 133<15 111.338 217.107 313.249>
VStem: -3 132<612.776 709.996> 199 133<612.776 709.25>
LayerCount: 2
Fore
SplineSet
-3 662 m 0
 -3 696 25 728 63 728 c 256
 101 728 129 696 129 662 c 0
 129 623 98 595 63 595 c 0
 23 595 -3 627 -3 662 c 0
266 728 m 0
 305 728 332 693 332 662 c 0
 332 623 301 595 266 595 c 0
 226 595 199 627 199 662 c 0
 199 700 231 728 266 728 c 0
EndSplineSet
EndChar

StartChar: copyright
Encoding: 169 169 108
Width: 799
VWidth: 1494
Flags: W
HStem: -22 68<298.782 503.769> 114 68<337.101 489.602> 507 70<334.696 457.374> 653 69<294.666 503.575>
VStem: 43 68<236.198 464.132> 206 71<247.658 442.046> 691 67<237.346 459.245>
LayerCount: 2
Fore
SplineSet
401 722 m 256
 591 722 758 556 758 350 c 0
 758 162 613 -22 401 -22 c 0
 197 -22 43 155 43 350 c 0
 43 546 199 722 401 722 c 256
401 46 m 0
 552 46 691 179 691 350 c 256
 691 509 566 653 401 653 c 0
 245 653 111 521 111 350 c 0
 111 180 246 46 401 46 c 0
413 182 m 0
 471 182 498 209 510 221 c 1
 556 170 l 1
 518 130 465 114 414 114 c 0
 329 114 206 160 206 345 c 0
 206 525 324 577 402 577 c 0
 451 577 500 564 540 528 c 1
 540 527 539 528 508 466 c 1
 468 502 421 507 404 507 c 0
 302 507 277 411 277 345 c 256
 277 253 320 182 413 182 c 0
EndSplineSet
EndChar

StartChar: ordfeminine
Encoding: 170 170 109
Width: 424
VWidth: 1494
Flags: W
HStem: 271 73<143.772 255.023> 564 74<143.908 255.54>
VStem: 37 71<382.366 525.604> 292 73<382.509 525.518> 300 65<280 308 601 638>
LayerCount: 2
Fore
SplineSet
37 453 m 256xe8
 37 544 91 638 199 638 c 0
 238 638 271 626 299 601 c 1
 299 638 l 1
 365 638 l 1
 365 341 l 1
 368 280 l 1
 300 280 l 1
 300 308 l 1
 273 283 239 271 199 271 c 0
 91 271 37 362 37 453 c 256xe8
199 344 m 0
 261 344 292 405 292 453 c 0xf0
 292 514 255 564 199 564 c 256
 135 564 108 502 108 453 c 0
 108 422 126 344 199 344 c 0
EndSplineSet
EndChar

StartChar: guillemotleft
Encoding: 171 171 110
Width: 597
VWidth: 1494
Flags: MW
LayerCount: 2
Fore
SplineSet
52 266 m 1
 190 486 l 1
 312 486 l 1
 167 266 l 1
 312 45 l 1
 190 45 l 1
 52 266 l 1
272 266 m 1
 410 486 l 1
 532 486 l 1
 387 266 l 1
 532 45 l 1
 410 45 l 1
 272 266 l 1
EndSplineSet
EndChar

StartChar: logicalnot
Encoding: 172 172 111
Width: 684
VWidth: 1494
Flags: MW
HStem: 327 89<42 552>
VStem: 552 88<123 327>
LayerCount: 2
Fore
SplineSet
552 123 m 1
 552 327 l 1
 42 327 l 1
 42 416 l 1
 640 416 l 1
 640 123 l 1
 552 123 l 1
EndSplineSet
EndChar

StartChar: registered
Encoding: 174 174 112
Width: 804
VWidth: 1494
Flags: W
HStem: -22 68<298.782 503.769> 291 60<338 402> 504 63<336 354.285 354.285 469.364> 653 69<294.666 503.575>
VStem: 43 68<236.198 464.132> 275 63<136 291 351 504> 496 60<378.27 479.718> 691 67<237.346 459.245>
LayerCount: 2
Fore
SplineSet
401 722 m 256
 591 722 758 556 758 350 c 0
 758 162 613 -22 401 -22 c 0
 197 -22 43 155 43 350 c 0
 43 546 199 722 401 722 c 256
401 46 m 0
 552 46 691 179 691 350 c 256
 691 509 566 653 401 653 c 0
 245 653 111 521 111 350 c 0
 111 180 246 46 401 46 c 0
374 351 m 2
 467 351 496 385 496 435 c 0
 496 491 432 505 374 505 c 0
 342 505 337 504 336 504 c 1
 336 351 l 1
 374 351 l 2
372 567 m 2
 444 567 556 541 556 435 c 0
 556 380 535 328 459 303 c 1
 570 138 l 1
 507 129 l 1
 402 291 l 1
 338 291 l 1
 338 136 l 1
 275 136 l 1
 275 502 l 2
 275 523 254 525 254 544 c 0
 254 552 270 573 284 573 c 0
 292 573 297 571 303 567 c 1
 372 567 l 2
EndSplineSet
EndChar

StartChar: macron
Encoding: 175 175 113
Width: 322
VWidth: 1494
Flags: W
HStem: 598 81<42 280 42 280 42 42>
LayerCount: 2
Fore
SplineSet
42 598 m 1
 42 679 l 1
 280 679 l 1
 280 598 l 1
 42 598 l 1
EndSplineSet
EndChar

StartChar: degree
Encoding: 176 176 114
Width: 355
VWidth: 1494
Flags: W
HStem: 484 60<131.43 232.641> 688 59<129.648 231.442>
VStem: 49 60<566.896 666.715> 253 61<565.422 667.695>
LayerCount: 2
Fore
SplineSet
49 616 m 256
 49 693 110 747 181 747 c 256
 256 747 314 689 314 616 c 256
 314 540 253 484 181 484 c 256
 106 484 49 543 49 616 c 256
109 616 m 0
 112 576 141 544 181 544 c 256
 224 544 253 578 253 616 c 256
 253 659 219 688 181 688 c 256
 138 688 109 654 109 616 c 0
EndSplineSet
EndChar

StartChar: plusminus
Encoding: 177 177 115
Width: 641
VWidth: 1494
Flags: MW
HStem: 0 90<90 550> 326 96<109 272 368 532> 584 20G<274 368>
VStem: 272 96<142 326 422 604>
LayerCount: 2
Fore
SplineSet
90 90 m 1
 550 90 l 1
 550 0 l 1
 90 0 l 1
 90 90 l 1
272 142 m 1
 272 326 l 1
 109 326 l 1
 109 422 l 1
 274 422 l 1
 274 604 l 1
 368 604 l 1
 368 422 l 1
 532 422 l 1
 532 326 l 1
 368 326 l 1
 368 142 l 1
 272 142 l 1
EndSplineSet
EndChar

StartChar: twosuperior
Encoding: 178 178 116
Width: 436
VWidth: 1494
Flags: W
HStem: 284 75<179 297> 534 21G<78.5 154> 646 73<163.764 266.05>
VStem: 72 75<557.81 629.591> 283 73<534.389 613.949>
LayerCount: 2
Fore
SplineSet
356 582 m 0
 356 481 245 427 179 359 c 1
 297 359 l 1
 317 398 l 1
 366 374 360 377 377 366 c 1
 341 284 l 1
 75 284 l 2
 57 284 58 293 58 321 c 0
 58 327 59 339 84 353 c 1
 113 391 l 2
 156 446 283 523 283 582 c 0
 283 600 269 646 214 646 c 0
 171 646 147 612 147 582 c 0
 147 573 149 562 154 552 c 1
 82 534 l 1
 75 551 72 569 72 585 c 0
 72 663 140 719 215 719 c 0
 308 719 356 645 356 582 c 0
EndSplineSet
EndChar

StartChar: threesuperior
Encoding: 179 179 117
Width: 454
VWidth: 1494
Flags: W
HStem: 271 73<160.757 285.268> 634 75<151 256>
VStem: 61 71<341.792 395> 69 63<614 651.4> 321 73<378.927 493.928>
LayerCount: 2
Fore
SplineSet
394 440 m 0xd8
 394 352 327 271 228 271 c 0
 141 271 76 322 61 395 c 1xe8
 132 416 l 1
 144 364 183 344 223 344 c 0
 271 344 321 375 321 441 c 0
 321 502 269 513 253 513 c 0
 227 513 209 481 194 481 c 0
 170 481 148 512 148 517 c 0
 148 521 150 526 155 531 c 2
 256 634 l 1
 151 634 l 1
 132 581 l 1
 69 614 l 1
 96 709 l 1
 357 709 l 2
 372 709 379 703 379 690 c 0
 379 677 369 651 362 645 c 1
 358 640 351 637 342 635 c 1
 287 574 l 1
 354 574 394 517 394 440 c 0xd8
EndSplineSet
EndChar

StartChar: acute
Encoding: 180 180 118
Width: 381
VWidth: 1494
Flags: W
HStem: 577 157<206 356 356 356>
LayerCount: 2
Fore
SplineSet
217 732 m 1
 356 734 l 1
 206 577 l 1
 120 577 l 1
 217 732 l 1
EndSplineSet
EndChar

StartChar: mu
Encoding: 181 181 119
Width: 605
VWidth: 1494
Flags: W
HStem: -12 81<223.503 362.08>
VStem: 88 91<-254 15 111.988 522> 422 91<133.504 215 215 522>
LayerCount: 2
Fore
SplineSet
513 123 m 2
 513 70 517 47 535 9 c 1
 453 -21 l 1
 443 -4 433 15 428 40 c 1
 389 1 335 -12 286 -12 c 256
 240 -12 208 -1 179 15 c 1
 179 -254 l 1
 88 -254 l 1
 88 522 l 1
 179 522 l 1
 179 182 l 2
 179 114 227 69 296 69 c 0
 377 69 422 148 422 215 c 2
 422 522 l 1
 513 522 l 1
 513 123 l 2
EndSplineSet
EndChar

StartChar: paragraph
Encoding: 182 182 120
Width: 745
VWidth: 1494
Flags: W
HStem: -211 21G<489 581> 638 94<399 489 581 656>
VStem: 66 333<425.906 619.72> 309 90<-208 312> 489 92<-209 638>
LayerCount: 2
Fore
SplineSet
66 520 m 256xe8
 66 655 160 732 277 732 c 2
 656 732 l 1
 656 638 l 1
 581 638 l 1
 581 -211 l 1
 489 -209 l 1
 489 638 l 1
 399 638 l 1
 399 -208 l 1
 309 -208 l 1
 309 312 l 1xd8
 277 312 l 2
 197 312 66 374 66 520 c 256xe8
EndSplineSet
EndChar

StartChar: periodcentered
Encoding: 183 183 121
Width: 343
VWidth: 1494
Flags: W
HStem: 257 193<111.865 232.95>
VStem: 75 194<292.197 413.769>
LayerCount: 2
Fore
SplineSet
172 450 m 0
 228.087 450 269 404.812 269 353 c 256
 269 296.355 224.265 257 172 257 c 0
 122.2 257 75 295.4 75 353 c 256
 75 408.657 121.252 450 172 450 c 0
EndSplineSet
EndChar

StartChar: cedilla
Encoding: 184 184 122
Width: 322
VWidth: 1494
Flags: W
HStem: -219 58<78.3581 179.523>
VStem: 185 92<-154.589 -94.1039>
LayerCount: 2
Fore
SplineSet
277 -115 m 0
 277 -170 223 -219 131 -219 c 0
 94 -219 64 -212 39 -200 c 1
 67 -144 l 1
 77 -151 100 -161 132 -161 c 0
 165 -161 185 -145 185 -122 c 0
 185 -92 138 -84 107 -84 c 0
 101 -84 96 -85 90 -85 c 1
 149 6 l 1
 217 6 l 1
 175 -48 l 1
 183 -47 190 -46 197 -46 c 0
 251 -46 277 -84 277 -115 c 0
EndSplineSet
EndChar

StartChar: onesuperior
Encoding: 185 185 123
Width: 391
VWidth: 1494
Flags: MW
VStem: 185 75<283 602>
LayerCount: 2
Fore
SplineSet
273 678 m 0
 273 666 269 656 260 649 c 1
 260 283 l 1
 185 283 l 1
 185 602 l 1
 123 561 l 1
 81 620 l 1
 197 699 l 2
 219 714 225 720 235 720 c 0
 248 720 273 701 273 678 c 0
EndSplineSet
EndChar

StartChar: ordmasculine
Encoding: 186 186 124
Width: 376
VWidth: 1494
Flags: W
HStem: 280 70<123.754 255.213> 567 70<123.18 254.771>
VStem: 7 77<389.524 525.454> 294 75<387.421 525.608>
LayerCount: 2
Fore
SplineSet
187 637 m 0
 290 637 369 566 369 460 c 0
 369 335 271 280 187 280 c 0
 78 280 7 359 7 454 c 0
 7 564 94 637 187 637 c 0
188 350 m 0
 227 350 294 370 294 457 c 0
 294 513 259 567 188 567 c 0
 105 567 84 495 84 456 c 0
 84 369 156 350 188 350 c 0
EndSplineSet
EndChar

StartChar: guillemotright
Encoding: 187 187 125
Width: 597
VWidth: 1494
Flags: MW
LayerCount: 2
Fore
SplineSet
402 45 m 1
 280 45 l 1
 425 266 l 1
 280 486 l 1
 402 486 l 1
 540 266 l 1
 402 45 l 1
182 45 m 1
 60 45 l 1
 205 266 l 1
 60 486 l 1
 182 486 l 1
 320 266 l 1
 182 45 l 1
EndSplineSet
EndChar

StartChar: onequarter
Encoding: 188 188 126
Width: 943
VWidth: 1494
Flags: W
HStem: -9 21G<202 295> 696 20G<230 241.5 623.055 718>
VStem: 185 75<283 602>
LayerCount: 2
Fore
SplineSet
283 -9 m 1
 202 -9 l 1
 635 716 l 1
 718 716 l 1
 283 -9 l 1
273 678 m 0
 273 666 269 656 260 649 c 1
 260 283 l 1
 185 283 l 1
 185 602 l 1
 123 561 l 1
 81 620 l 1
 197 699 l 2
 219 714 225 720 235 720 c 0
 248 720 273 701 273 678 c 0
509 136 m 0
 509 118 525 99 543 97 c 2
 725 97 l 1
 725 0 l 1
 798 0 l 1
 798 97 l 1
 871 97 l 1
 871 170 l 1
 798 170 l 1
 798 386 l 1
 806 400 808 395 808 401 c 0
 808 405 784 448 770 448 c 0
 761 448 755 446 750 439 c 2
 514 154 l 2
 512 151 509 145 509 136 c 0
725 299 m 1
 725 170 l 1
 622 170 l 1
 725 299 l 1
EndSplineSet
LCarets2: 2 0 0 
Ligature2: "'frac' Diagonal Fractions in Latin lookup 0 subtable" one fraction four
Ligature2: "'frac' Diagonal Fractions in Latin lookup 0 subtable" one slash four
EndChar

StartChar: onehalf
Encoding: 189 189 127
Width: 923
VWidth: 1494
Flags: W
HStem: 0 75<644 762> 362 73<629.779 729.128> 700 20G<230 241.5 592.028 686>
VStem: 185 75<283 602> 537 74<274.897 344.644> 747 74<250.318 345.8>
LayerCount: 2
Fore
SplineSet
821 298 m 0
 821 197 710 143 644 75 c 1
 762 75 l 1
 782 114 l 1
 831 90 825 93 842 82 c 1
 806 0 l 1
 540 0 l 2
 522 0 523 9 523 37 c 0
 523 43 524 55 549 69 c 1
 578 107 l 2
 622 164 747 236 747 300 c 0
 747 324 728 362 679 362 c 0
 630 362 611 321 611 298 c 0
 611 288 614 278 619 268 c 1
 547 250 l 1
 540 267 537 285 537 301 c 0
 537 377 601 435 680 435 c 0
 774 435 821 361 821 298 c 0
273 678 m 0
 273 666 269 656 260 649 c 1
 260 283 l 1
 185 283 l 1
 185 602 l 1
 123 561 l 1
 81 620 l 1
 197 699 l 2
 219 714 225 720 235 720 c 0
 248 720 273 701 273 678 c 0
251 -9 m 1
 170 -9 l 1
 604 716 l 1
 686 716 l 1
 251 -9 l 1
EndSplineSet
LCarets2: 2 0 0 
Ligature2: "'frac' Diagonal Fractions in Latin lookup 0 subtable" one fraction two
Ligature2: "'frac' Diagonal Fractions in Latin lookup 0 subtable" one slash two
EndChar

StartChar: threequarters
Encoding: 190 190 128
Width: 938
VWidth: 1494
Flags: W
HStem: -9 21G<248 341> 271 73<160.757 285.268> 634 75<151 256>
VStem: 61 71<341.792 395> 69 63<614 651.4> 321 73<378.927 493.928>
LayerCount: 2
Fore
SplineSet
509 136 m 0xe4
 509 118 525 99 543 97 c 2
 725 97 l 1
 725 0 l 1
 798 0 l 1
 798 97 l 1
 871 97 l 1
 871 170 l 1
 798 170 l 1
 798 386 l 1
 806 400 808 395 808 401 c 0
 808 405 784 448 770 448 c 0
 761 448 755 446 750 439 c 2
 514 154 l 2
 512 151 509 145 509 136 c 0xe4
725 299 m 1
 725 170 l 1
 622 170 l 1
 725 299 l 1
394 440 m 0
 394 352 327 271 228 271 c 0
 141 271 76 322 61 395 c 1xf4
 132 416 l 1
 144 364 183 344 223 344 c 0
 271 344 321 375 321 441 c 0
 321 502 269 513 253 513 c 0
 227 513 209 481 194 481 c 0
 170 481 148 512 148 517 c 0
 148 521 150 526 155 531 c 2
 256 634 l 1
 151 634 l 1
 132 581 l 1
 69 614 l 1xec
 96 709 l 1
 357 709 l 2
 372 709 379 703 379 690 c 0
 379 677 369 651 362 645 c 1
 358 640 351 637 342 635 c 1
 287 574 l 1
 354 574 394 517 394 440 c 0
329 -9 m 1
 248 -9 l 1
 682 716 l 1
 764 716 l 1
 329 -9 l 1
EndSplineSet
LCarets2: 2 0 0 
Ligature2: "'frac' Diagonal Fractions in Latin lookup 0 subtable" three fraction four
Ligature2: "'frac' Diagonal Fractions in Latin lookup 0 subtable" three slash four
EndChar

StartChar: questiondown
Encoding: 191 191 129
Width: 596
VWidth: 1494
Flags: W
HStem: -212 84<239.742 379.894> 377 134<270.706 371.473>
VStem: 107 99<-94.7091 27.9093> 254 135<393.769 495.097> 269 105<213.058 348>
LayerCount: 2
Fore
SplineSet
374 285 m 2xe8
 374 132 206 64 206 -34 c 0
 206 -65 226 -128 305 -128 c 0
 388 -128 429 -64 438 -39 c 1
 507 -84 l 1
 482 -155 422 -212 306 -212 c 0
 165 -212 107 -121 107 -43 c 0
 107 96 269 165 269 286 c 2
 269 348 l 1
 374 348 l 1
 374 285 l 2xe8
321 377 m 256
 279 377 254 408 254 445 c 256
 254 486 282 511 321 511 c 256
 362 511 389 485 389 445 c 256xf0
 389 408 363 377 321 377 c 256
EndSplineSet
EndChar

StartChar: Aring
Encoding: 197 197 134
Width: 684
VWidth: 1494
Flags: W
HStem: -18 21<19 128.488 557.118 665> 185 93<233 449> 782 56<303.151 379.144> 927 56<304.073 379.922>
VStem: 241 56<844.956 920.144> 386 56<845.073 920.055>
LayerCount: 2
Back
SplineSet
341 851 m 0
 355.667 851 368 856.167 378 866.5 c 128
 388 876.833 393 889 393 903 c 256
 393 917 388 929.167 378 939.5 c 128
 368 949.833 355.667 955 341 955 c 0
 327 955 314.667 949.833 304 939.5 c 128
 293.333 929.167 288 917 288 903 c 0
 289.333 889 295 876.833 305 866.5 c 128
 315 856.167 327 851 341 851 c 0
341 1021 m 256
 375 1021 403.667 1009.5 427 986.5 c 128
 450.333 963.5 462 935 462 901 c 256
 462 867.667 450.333 839.5 427 816.5 c 128
 403.667 793.5 375 782 341 782 c 256
 307 782 278.5 793.5 255.5 816.5 c 128
 232.5 839.5 221 867.667 221 901 c 256
 221 935 232.5 963.5 255.5 986.5 c 128
 278.5 1009.5 307 1021 341 1021 c 256
665 0 m 1
 565 -18 l 1
 486 185 l 1
 197 185 l 1
 121 -18 l 1
 19 0 l 1
 291 680 l 2
 293 686 297.833 694.667 305.5 706 c 128
 313.167 717.333 322.333 726 333 732 c 0
 338.333 735.333 344.667 736.5 352 735.5 c 128
 359.333 734.5 366.833 732.5 374.5 729.5 c 128
 382.167 726.5 389.167 723 395.5 719 c 128
 401.833 715 406 711.667 408 709 c 0
 416 699.667 417.5 690.5 412.5 681.5 c 128
 407.5 672.5 404 666 402 662 c 1
 665 0 l 1
341 564 m 1
 233 278 l 1
 450 278 l 1
 341 564 l 1
EndSplineSet
Fore
Refer: 207 730 N 1 0 0 1 130 209 2
Refer: 34 65 N 1 0 0 1 10 0 2
EndChar

StartChar: AE
Encoding: 198 198 135
Width: 970
VWidth: 1494
Flags: W
HStem: 1 101<629 924> 184 93<335 525> 320 100<629 894> 613 102<628 924>
VStem: 525 104<102 184 277 320 420 590>
LayerCount: 2
Fore
SplineSet
599 1 m 2
 561 1 525 33 525 75 c 2
 525 184 l 1
 281 184 l 1
 149 -19 l 1
 49 27 l 1
 456 655 l 2
 481 695 517 715 564 715 c 2
 925 715 l 1
 924 613 l 1
 628 613 l 1
 628 420 l 1
 894 420 l 1
 895 320 l 1
 629 320 l 1
 629 102 l 1
 924 102 l 1
 924 1 l 1
 599 1 l 2
525 590 m 1
 335 277 l 1
 525 277 l 1
 525 590 l 1
EndSplineSet
EndChar

StartChar: Eth
Encoding: 208 208 145
Width: 780
VWidth: 1494
Flags: W
HStem: 0 102<194 419.703> 324 75<0 94 194 342> 610 100<194 398.995>
VStem: 94 100<102 324 399 609.797> 528 104<220.59 483.234>
LayerCount: 2
Fore
SplineSet
632 356 m 0
 632 130 520 0 300 0 c 2
 94 0 l 1
 94 324 l 1
 0 324 l 1
 0 399 l 1
 94 399 l 1
 94 589 l 2
 94 619 49 639 49 660 c 0
 49 675 80 724 107 724 c 0
 110 724 110 727 138 710 c 1
 300 710 l 2
 566 710 632 524 632 356 c 0
528 356 m 0
 528 525 445 610 278 610 c 2
 194 610 l 1
 194 399 l 1
 342 399 l 1
 342 324 l 1
 194 324 l 1
 194 102 l 1
 312 102 l 2
 442 102 528 168 528 356 c 0
EndSplineSet
EndChar

StartChar: multiply
Encoding: 215 215 152
Width: 641
VWidth: 1494
Flags: MW
LayerCount: 2
Fore
SplineSet
508 12 m 1
 327 202 l 1
 144 10 l 1
 79 70 l 1
 263 260 l 1
 79 450 l 1
 144 510 l 1
 326 318 l 1
 504 507 l 1
 568 447 l 1
 387 260 l 1
 573 72 l 1
 508 12 l 1
EndSplineSet
EndChar

StartChar: Oslash
Encoding: 216 216 153
Width: 730
VWidth: 1494
Flags: W
HStem: -9 99<278.335 445.33> 629 99<281.337 447.7>
VStem: 73 102<219.375 497.427> 550 102<219.797 497.3>
LayerCount: 2
Fore
SplineSet
73 360 m 0
 73 514 131 728 363 728 c 0
 425 728 479 711 525 677 c 1
 598 794 l 1
 661 755 l 1
 578 623 l 1
 627 558 652 470 652 360 c 0
 652 172 569 -9 363 -9 c 0
 302 -9 251 6 208 36 c 1
 130 -87 l 1
 67 -48 l 1
 152 88 l 1
 130 116 73 197 73 360 c 0
175 360 m 0
 175 290 188 227 214 182 c 1
 471 590 l 1
 442 616 406 629 363 629 c 0
 222 629 175 490 175 360 c 0
363 90 m 0
 506 90 550 228 550 360 c 0
 550 424 539 479 517 526 c 1
 262 123 l 1
 289 101 323 90 363 90 c 0
EndSplineSet
EndChar

StartChar: Thorn
Encoding: 222 222 159
Width: 727
VWidth: 1494
Flags: W
HStem: 96 113<200 450.247> 532 99<200 444.525>
VStem: 93 107<-126 96 209 532 631 801> 540 110<286.157 451.72>
LayerCount: 2
Fore
SplineSet
329 631 m 2
 501 634 650 558 650 374 c 0
 650 166 497 96 294 96 c 2
 200 96 l 1
 200 -126 l 1
 93 -126 l 1
 93 801 l 1
 200 801 l 1
 200 631 l 1
 329 631 l 2
312 209 m 2
 483 209 540 273 540 369 c 0
 540 485 445 532 338 532 c 2
 200 532 l 1
 200 209 l 1
 312 209 l 2
EndSplineSet
EndChar

StartChar: uni00DF
Encoding: 223 223 160
Width: 689
VWidth: 1494
Flags: W
HStem: -6 97<277 424.247> 401 97<277 408.057> 638 82<249.128 391.404>
VStem: 91 103<-191 584.34> 424 119<533.839 608.312> 514 99<170.075 324.609>
LayerCount: 2
Fore
SplineSet
613 244 m 0xf4
 613 109 500 -6 351 -6 c 2
 277 -6 l 1
 277 91 l 1
 341 91 l 2
 422 91 514 145 514 248 c 0xf4
 514 344 429 401 356 401 c 2
 275 401 l 1
 277 498 l 1
 362 498 l 2
 417 505 424 542 424 558 c 0
 424 590 399 638 322 638 c 0
 256 638 194 591 194 513 c 2
 194 -191 l 1
 194 -191 184 -194 142 -194 c 0
 112 -194 101 -193 91 -193 c 1
 91 520 l 2
 91 645 170 720 309 720 c 0
 503 720 543 609 543 558 c 0xf8
 543 539 541 490 489 448 c 1
 569 421 613 337 613 244 c 0xf4
EndSplineSet
EndChar

StartChar: ae
Encoding: 230 230 167
Width: 988
VWidth: 1494
Flags: W
HStem: -12 97<209.087 357.492 597.875 770.597> 227 91<535 830> 433 96<207.849 356.367> 444 93<603.402 765.51>
VStem: 48 90<166.735 355.807> 426 109<164.141 227> 428 101<3.1875 14 14 34 478 535> 830 100<318 381.378>
LayerCount: 2
Fore
SplineSet
525 478 m 1xed
 564 512 618 537 688 537 c 0
 833 537 930 436 930 283 c 0
 930 237 902 227 867 227 c 2
 535 227 l 1xdd
 535 129 609 87 679 87 c 0
 732 87 775 108 804 127 c 1
 862 49 l 1
 821 15 744 -7 678 -7 c 0
 629 -7 578 2 529 34 c 1
 529 14 l 2
 529 11 530 7 531 3 c 1
 429 3 l 1
 428 58 l 1xdb
 387 12 336 -12 274 -12 c 0
 122 -12 48 128 48 259 c 256
 48 405 138 529 274 529 c 0
 337 529 387 507 426 462 c 1
 426 535 l 1
 525 535 l 1
 525 478 l 1xed
281 85 m 0
 397 85 426 201 426 259 c 0
 426 319 397 433 281 433 c 0xed
 183 433 138 344 138 259 c 0
 138 165 195 85 281 85 c 0
830 318 m 1
 827 376 781 444 686 444 c 0xd9
 564 444 538 342 534 318 c 1
 830 318 l 1
EndSplineSet
EndChar

StartChar: eth
Encoding: 240 240 177
Width: 621
VWidth: 1494
Flags: W
HStem: -16 74<231.406 399.787> 456 81<217.326 396.927>
VStem: 32 91<162.636 359.668> 495 92<163.081 359.795>
LayerCount: 2
Fore
SplineSet
114 759 m 1
 121 773 141 807 154 827 c 1
 211 808 300 756 333 734 c 1
 361 745 332 736 471 794 c 1
 485 757 498 737 504 722 c 1
 440 694 449 702 396 677 c 1
 582 517 587 333 587 272 c 0
 587 73 453 -16 310 -16 c 0
 130 -16 32 119 32 258 c 0
 32 425 157 537 303 537 c 0
 362 537 411 520 451 499 c 1
 414 558 374 597 318 637 c 1
 229 597 214 584 142 555 c 1
 137 569 119 611 114 625 c 1
 128 632 227 679 256 692 c 1
 216 715 160 743 114 759 c 1
123 253 m 0
 123 132 224 58 318 58 c 0
 424 58 495 148 495 269 c 0
 495 383 409 456 308 456 c 0
 252 456 123 432 123 253 c 0
EndSplineSet
EndChar

StartChar: divide
Encoding: 247 247 184
Width: 747
VWidth: 1494
Flags: W
HStem: 1 150<312.125 413.864> 208 104<91 649> 372 151<311.872 415.148>
VStem: 290 148<24.9935 129.789 394.875 500.935>
LayerCount: 2
Fore
SplineSet
365 523 m 0
 408 523 438 486 438 447 c 0
 438 408 405 372 365 372 c 0
 320 372 290 408 290 447 c 256
 290 487 320 523 365 523 c 0
365 151 m 0
 408 151 438 117 438 78 c 0
 438 43 409 1 365 1 c 0
 323 1 290 34 290 78 c 256
 290 122 324 151 365 151 c 0
91 312 m 1
 649 312 l 1
 649 208 l 1
 91 208 l 1
 91 312 l 1
EndSplineSet
EndChar

StartChar: oslash
Encoding: 248 248 185
Width: 621
VWidth: 1494
Flags: W
HStem: -10 97<260.084 389.24> 431 97<237.028 358.7> 578 20G<479.863 522.444>
VStem: 78 85<166.281 348.715> 462 84<167.566 322.025>
LayerCount: 2
Fore
SplineSet
141 70 m 1
 90 132 78 210 78 259 c 0
 78 357 134 528 312 528 c 0
 356 528 394 517 426 496 c 1
 493 598 l 1
 546 562 l 1
 475 456 l 1
 532 393 546 308 546 259 c 0
 546 168 499 -10 312 -10 c 0
 265 -10 223 2 187 25 c 1
 117 -81 l 1
 64 -45 l 1
 141 70 l 1
312 431 m 0
 213 431 163 341 163 259 c 256
 163 217 176 178 194 149 c 1
 374 417 l 1
 356 426 335 431 312 431 c 0
312 87 m 0
 414 87 462 175 462 259 c 0
 462 295 452 341 423 378 c 1
 241 105 l 1
 262 93 285 87 312 87 c 0
EndSplineSet
EndChar

StartChar: thorn
Encoding: 254 254 191
Width: 730
VWidth: 1494
Flags: W
HStem: -27 93<305.083 447.932> 450 94<304.661 448.153>
VStem: 93 107<-236 31 484 743> 93 94<168.314 351.599> 546 94<167.619 349.016>
LayerCount: 2
Fore
SplineSet
366 450 m 256xd8
 269 450 187 368 187 259 c 256
 187 146 270 66 366 66 c 256
 465 66 546 152 546 259 c 256
 546 362 466 450 366 450 c 256xd8
366 -27 m 0
 329 -27 266 -20 200 31 c 1
 200 -236 l 1
 93 -236 l 1
 93 743 l 1
 200 743 l 1
 200 484 l 1xe8
 264 537 329 544 366 544 c 0
 519 544 640 413 640 259 c 256
 640 104 519 -27 366 -27 c 0
EndSplineSet
EndChar

StartChar: Lslash
Encoding: 321 321 193
Width: 527
VWidth: 1494
Flags: W
HStem: 0 91<193 513> 505 20G<279.605 308> 693 20G<91 193>
VStem: 91 102<91.2031 303 444 713>
LayerCount: 2
Fore
SplineSet
46 41 m 0
 46 62 91 82 91 112 c 2
 91 303 l 1
 0 241 l 1
 0 311 l 1
 91 374 l 1
 91 713 l 1
 193 713 l 1
 193 444 l 1
 308 525 l 1
 308 454 l 1
 193 374 l 1
 193 91 l 1
 513 91 l 1
 513 0 l 1
 151 0 l 1
 143 -8 112 -23 104 -23 c 0
 77 -23 46 26 46 41 c 0
EndSplineSet
EndChar

StartChar: lslash
Encoding: 322 322 194
Width: 273
VWidth: 1494
Flags: MW
HStem: 0 21G<91 182> 511 20G<255.268 284>
VStem: 91 91<0 327 460 707>
LayerCount: 2
Fore
SplineSet
0 333 m 1
 91 396 l 1
 91 707 l 1
 130 741 l 1
 182 741 l 1
 182 460 l 1
 284 531 l 1
 284 462 l 1
 182 392 l 1
 182 0 l 1
 91 0 l 1
 91 327 l 1
 0 265 l 1
 0 333 l 1
EndSplineSet
EndChar

StartChar: OE
Encoding: 338 338 195
Width: 1025
VWidth: 1494
Flags: W
HStem: -13 98<285.226 443.831> 1 101<653 949> 318 102<653 919> 611 102<653 951> 628 98<282.867 443.648>
VStem: 75 100<224.938 493.783> 550 103<221.173 318 420 493.813>
LayerCount: 2
Fore
SplineSet
552 650 m 1xae
 559 687 587 713 628 713 c 2
 951 713 l 1
 951 611 l 1
 653 611 l 1
 653 420 l 1
 919 420 l 1
 921 318 l 1
 653 318 l 1
 653 102 l 1
 949 102 l 1
 949 1 l 1
 625 1 l 2x76
 584 1 557 28 553 64 c 1
 540 51 478 -13 365 -13 c 0
 157 -13 75 170 75 357 c 0
 75 543 158 726 365 726 c 0
 450 726 510 692 552 650 c 1xae
175 357 m 0
 175 257 213 85 365 85 c 0
 476 85 540 187 550 332 c 2
 550 384 l 2
 539 528 476 628 365 628 c 0xae
 213 628 175 462 175 357 c 0
EndSplineSet
EndChar

StartChar: oe
Encoding: 339 339 196
Width: 979
VWidth: 1494
Flags: W
HStem: -10 97<215.071 349.351 616.658 750.085> 221 91<534 830> 431 95<206.609 357.307 621.084 768.741>
VStem: 46 86<168.046 350.274> 830 98<312 369.984>
LayerCount: 2
Fore
SplineSet
281 526 m 0
 330 526 414 515 472 416 c 1
 543 522 642 529 686 529 c 0
 829 529 928 432 928 277 c 0
 928 243 914 221 865 221 c 2
 534 221 l 1
 534 122 608 81 678 81 c 0
 731 81 774 102 803 121 c 1
 861 43 l 1
 814 -4 729 -15 685 -15 c 0
 651 -15 521 -9 468 96 c 1
 432 38 370 -10 281 -10 c 0
 127 -10 46 130 46 259 c 0
 46 362 108 526 281 526 c 0
281 87 m 0
 377 87 415 153 429 250 c 1
 429 316 399 431 281 431 c 256
 181 431 132 344 132 259 c 0
 132 175 182 87 281 87 c 0
830 312 m 1
 824 370 778 438 685 438 c 0
 586 438 541 366 532 312 c 1
 830 312 l 1
EndSplineSet
EndChar

StartChar: florin
Encoding: 402 402 202
Width: 533
VWidth: 1494
Flags: W
HStem: -111 80<25 40.5231 29.0114 107.101> 362 64<106 205 303 407> 643 81<352.381 465.586>
LayerCount: 2
Fore
SplineSet
483 622 m 1
 433 641 432 643 410 643 c 0
 319 643 318 548 303 426 c 1
 417 426 l 1
 407 362 l 1
 296 362 l 1
 282 247 277 208 271 170 c 2
 260 92 l 2
 247 7 219 -45 158 -87 c 0
 128 -107 94 -112 34 -112 c 0
 20 -112 7 -112 -4 -111 c 1
 14 -63 19 -56 25 -31 c 1
 36 -33 46 -34 56 -34 c 0
 129 -34 157 30 166 88 c 2
 178 161 l 2
 192 261 192 282 205 362 c 1
 93 362 l 1
 99 393 l 2
 101 400 106 423 106 426 c 1
 212 426 l 1
 226 561 232 602 268 656 c 0
 283 680 320 724 398 724 c 0
 438 724 484 712 529 686 c 1
 483 622 l 1
EndSplineSet
EndChar

StartChar: circumflex
Encoding: 710 710 203
Width: 535
VWidth: 1494
Flags: W
HStem: 692 148<175 206 206 206>
VStem: 70 387<692 692 692 692>
LayerCount: 2
Fore
SplineSet
265 788 m 1
 175 692 l 1
 70 692 l 1
 206 840 l 1
 323 840 l 1
 457 692 l 1
 354 692 l 1
 265 788 l 1
EndSplineSet
EndChar

StartChar: caron
Encoding: 711 711 204
Width: 523
VWidth: 1494
Flags: W
HStem: 753 148<323 354 354 354>
VStem: 70 387<901 901 901 901>
LayerCount: 2
Fore
SplineSet
354 901 m 1
 457 901 l 1
 323 753 l 1
 206 753 l 1
 70 901 l 1
 175 901 l 1
 265 807 l 1
 354 901 l 1
EndSplineSet
EndChar

StartChar: breve
Encoding: 728 728 205
Width: 448
VWidth: 1494
Flags: MW
HStem: 616 73<165.385 280.985>
VStem: 48 87<720.02 789> 314 88<723.729 789>
LayerCount: 2
Fore
SplineSet
402 789 m 1
 402 689 339 616 227 616 c 0
 116 616 48 680 48 789 c 1
 135 789 l 1
 135 704 197 689 224 689 c 0
 253 689 314 709 314 789 c 1
 402 789 l 1
EndSplineSet
EndChar

StartChar: dotaccent
Encoding: 729 729 206
Width: 236
VWidth: 1494
Flags: W
HStem: 616 149<67.125 170.999>
VStem: 45 149<637.211 742>
LayerCount: 2
Fore
SplineSet
120 765 m 256
 164 765 194 728 194 689 c 256
 194 645 159 616 120 616 c 256
 79 616 45 645 45 689 c 256
 45 729 75 765 120 765 c 256
EndSplineSet
EndChar

StartChar: ring
Encoding: 730 730 207
Width: 415
VWidth: 1494
Flags: W
HStem: 573 56<173.151 249.144> 718 56<174.073 249.922>
VStem: 111 56<635.956 711.144> 256 56<636.073 711.055>
LayerCount: 2
Fore
SplineSet
211 573 m 256
 153 573 111 613 111 673 c 256
 111 730 151 774 211 774 c 256
 271 774 312 729 312 673 c 256
 312 613 268 573 211 573 c 256
211 718 m 0
 187 718 167 699 167 673 c 0
 167 648 188 629 211 629 c 0
 237 629 256 649 256 673 c 0
 256 700 236 718 211 718 c 0
EndSplineSet
EndChar

StartChar: tilde
Encoding: 732 732 209
Width: 449
VWidth: 1494
Flags: MW
HStem: 582 90<233.861 330.774> 629 92<121.087 209.622>
VStem: 335 81<676.64 719>
LayerCount: 2
Fore
SplineSet
154 629 m 0
 117 629 120 603 115 581 c 1
 33 581 l 1
 33 654 62 721 139 721 c 0
 194 721 239 672 297 672 c 0
 320 672 335 683 335 719 c 1
 416 719 l 1
 416 619 359 582 309 582 c 0
 247 582 211 629 154 629 c 0
EndSplineSet
EndChar

StartChar: uni0E01
Encoding: 3585 3585 212
Width: 693
VWidth: 1494
Flags: W
HStem: 0 21G<139 242 501 604> 528 79<238.135 435.473>
VStem: 139 103<0 310.588> 501 103<0 429.855>
LayerCount: 2
Fore
SplineSet
501 381 m 2
 501 425 511 436 519 444 c 1
 519 444 451 528 344 528 c 0
 224 528 182 470 160 426 c 1
 202 395 l 1
 221 418 240 430 272 442 c 1
 318 378 l 1
 256 353 242 302 242 266 c 2
 242 0 l 1
 139 0 l 1
 139 271 l 2
 139 295 140 317 151 332 c 1
 48 399 l 1
 87 515 191 607 341 607 c 0
 477 607 544 542 567 513 c 1
 569 516 573 518 578 518 c 0
 605 518 640 481 640 458 c 0
 640 429 604 432 604 366 c 2
 604 0 l 1
 501 0 l 1
 501 381 l 2
EndSplineSet
EndChar

StartChar: uni0E02
Encoding: 3586 3586 213
Width: 653
VWidth: 1494
Flags: W
HStem: 0 90<299 462.623> 347 67<101.886 179.919> 529 82<155.141 302.031>
VStem: 27 67<421.232 499.791> 187 67<421.754 493.122> 203 105<98.7276 257.539> 325 89<370.569 503.912> 463 105<90.1057 118 118 598>
LayerCount: 2
Fore
SplineSet
27 460 m 0xfb
 27 520 78 611 232 611 c 0
 312 611 414 578 414 448 c 0
 414 406 406 358 361 313 c 2
 324 278 l 2
 314 267 308 254 308 239 c 2
 308 111 l 2
 308 109 305 95 299 90 c 1
 438 90 l 2
 455 90 463 99 463 118 c 2
 463 598 l 1
 568 598 l 1
 568 79 l 2
 568 16 510 0 475 0 c 2
 253 0 l 1
 253 0 228 -12 222 -12 c 0
 197 -12 164 35 164 51 c 0
 164 72 203 90 203 123 c 2
 203 241 l 2xf7
 203 258 207 287 256 324 c 2
 281 345 l 2
 311 370 325 408 325 442 c 0
 325 484 302 529 250 529 c 0
 244 529 238 529 232 528 c 1
 255 494 254 467 254 460 c 0
 254 395 203 347 141 347 c 256
 74 347 27 399 27 460 c 0xfb
141 414 m 256
 168 414 187 435 187 460 c 256xfb
 187 488 166 507 141 507 c 256
 113 507 94 486 94 460 c 256
 94 435 113 414 141 414 c 256
EndSplineSet
EndChar

StartChar: uni0E03
Encoding: 3587 3587 214
Width: 672
VWidth: 1494
Flags: W
HStem: 0 88<333 482.468> 299 52<97.9596 167.395> 432 54<120.571 168.441> 529 78<135.923 212.974> 537 71<321.802 366.265>
VStem: 23 70<355.804 476.711> 173 59<355.832 426.889> 242 102<97.6235 323.621> 378 82<432.91 530.097> 483 104<88.2164 117 117 598>
LayerCount: 2
Fore
SplineSet
133 351 m 256xe7c0
 154 351 173 368 173 392 c 256
 173 415 154 432 133 432 c 256
 110 432 93 413 93 392 c 256
 93 368 112 351 133 351 c 256xe7c0
204 51 m 0
 204 74 242 90 242 123 c 2
 242 244 l 2
 242 300 259 331 286 356 c 2
 312 380 l 2
 327 395 333 397 352 416 c 2
 370 438 l 2
 380 450 378 453 378 467 c 0
 378 498 360 537 347 537 c 0xefc0
 339 537 329 532 308 516 c 1
 315 496 321 496 321 483 c 0
 321 462 290 450 276 450 c 0
 245 450 258 491 212 519 c 0
 201 526 191 529 181 529 c 0
 161 529 129 511 120 483 c 1
 128 485 136 486 144 486 c 0
 200 486 232 434 232 392 c 0
 232 336 186 299 133 299 c 0
 67 299 23 353 23 435 c 0
 23 526 85 607 178 607 c 0xf7c0
 216 607 247 594 272 567 c 1
 302 591 323 608 354 608 c 0xefc0
 396 608 460 570 460 448 c 0
 460 404 428 405 356 324 c 0
 348 316 344 303 344 288 c 2
 344 114 l 2
 344 106 341 93 333 88 c 1
 457 88 l 2
 476 88 483 100 483 117 c 2
 483 598 l 1
 587 598 l 1
 587 78 l 2
 587 16 530 0 495 0 c 2
 291 0 l 1
 291 0 270 -12 262 -12 c 0
 241 -12 204 30 204 51 c 0
EndSplineSet
EndChar

StartChar: uni0E04
Encoding: 3588 3588 215
Width: 689
VWidth: 1494
Flags: W
HStem: -6 21G<147 171.5 510 613> 226 62<316.41 390.028> 381 63<316.598 391.089> 528 80<255.831 457.005>
VStem: 88 90<222.244 453.548> 398 61<295.46 372.825> 510 103<0 429.855>
LayerCount: 2
Fore
SplineSet
350 288 m 0
 379 288 398 309 398 335 c 256
 398 360 379 381 350 381 c 0
 322 381 303 360 303 335 c 256
 303 307 324 288 350 288 c 0
510 381 m 2
 510 425 520 436 528 444 c 1
 520 455 480 528 354 528 c 0
 213 528 178 439 178 371 c 0
 178 296 187 280 197 220 c 1
 244 382 257 403 291 426 c 0
 308 438 328 444 350 444 c 0
 413 444 459 394 459 335 c 256
 459 276 414 226 350 226 c 0
 327 226 306 232 288 245 c 1
 277 208 265 174 253 141 c 2
 219 60 l 2
 203 24 183 -6 160 -6 c 0
 134 -6 102 31 102 46 c 0
 102 67 131 89 131 120 c 0
 131 170 88 249 88 366 c 0
 88 510 181 608 351 608 c 0
 487 608 550 553 581 516 c 1
 583 517 586 517 588 517 c 0
 612 517 649 483 649 458 c 0
 649 429 613 432 613 366 c 2
 613 0 l 1
 510 0 l 1
 510 381 l 2
EndSplineSet
EndChar

StartChar: uni0E05
Encoding: 3589 3589 216
Width: 692
VWidth: 1494
Flags: W
HStem: -7 21G<147 174 514 617> 199 63<316.84 388.846> 354 63<310.683 389.362> 590 20G<250.5 261 437.5 456.5>
VStem: 84 89<269.912 477.06> 396 63<269.202 347.311> 514 103<0 430.039>
LayerCount: 2
Fore
SplineSet
514 386 m 2
 514 429 524 440 532 448 c 1
 507 502 465 512 445 517 c 1
 424 507 390 444 359 444 c 0
 331 444 320 485 256 519 c 1
 210 503 173 481 173 389 c 0
 173 371 170 315 197 211 c 1
 216 269 239 325 251 353 c 0
 261 373 291 417 351 417 c 0
 414 417 459 367 459 308 c 256
 459 246 410 199 351 199 c 0
 326 199 296 209 286 221 c 1
 274 185 262 152 250 123 c 2
 216 48 l 2
 211 39 192 -7 156 -7 c 0
 138 -7 101 28 101 47 c 0
 101 65 128 76 128 117 c 0
 128 151 84 249 84 389 c 0
 84 584 249 610 252 610 c 0
 270 610 323 581 362 546 c 1
 409 593 429 610 446 610 c 0
 467 610 551 585 595 519 c 1
 617 516 653 481 653 458 c 0
 653 431 617 430 617 366 c 2
 617 0 l 1
 514 0 l 1
 514 386 l 2
350 262 m 256
 375 262 396 280 396 308 c 256
 396 335 375 354 350 354 c 256
 322 354 303 333 303 308 c 256
 303 280 324 262 350 262 c 256
EndSplineSet
EndChar

StartChar: uni0E06
Encoding: 3590 3590 217
Width: 754
VWidth: 1494
Flags: W
HStem: -10 80<233.04 281.815> 200 90<239.964 283 383 443.875> 294 57<109.657 180.334> 431 55<132.484 180.441> 527 79<144.884 220.295> 536 74<315.649 393.746>
VStem: 38 67<356.199 480.162> 147 73<73.372 179.622> 185 59<355.814 426.353> 284 97<70.8405 200 290 375.718> 382 91<450.273 525.307> 580 100<0 39 170 598>
LayerCount: 2
Fore
SplineSet
147 125 m 0xf770
 147 224 216 273 284 290 c 1
 284 326 l 2
 284 368 293 396 325 421 c 2
 351 442 l 2
 372 463 382 460 382 484 c 0
 382 507 357 536 341 536 c 0xf770
 337 536 319 527 311 520 c 1
 316 511 319 503 319 496 c 0
 319 483 303 463 280 463 c 0
 244 463 267 488 219 517 c 0
 208 524 197 527 186 527 c 0
 150 527 136 492 132 483 c 1
 140 485 148 486 156 486 c 0
 212 486 244 431 244 390 c 0xfaf0
 244 323 189 294 147 294 c 0
 82 294 38 348 38 432 c 0
 38 534 96 606 184 606 c 0xfb70
 222 606 254 593 280 565 c 1
 325 600 366 610 375 610 c 0
 417 610 473 521 473 490 c 0
 473 462 447 436 414 408 c 2
 392 388 l 2
 385 382 381 369 381 351 c 2
 383 287 l 1
 457 277 552 222 580 170 c 1
 580 598 l 1
 680 598 l 1
 680 0 l 1
 580 0 l 1
 580 39 l 1
 542 120 469 185 381 200 c 1
 381 105 l 2
 381 25 332 -10 269 -10 c 0
 217 -10 147 30 147 125 c 0xf770
145 351 m 256
 168 351 185 369 185 390 c 256xf2f0
 185 414 166 431 145 431 c 256
 124 431 105 414 105 390 c 256
 105 367 124 351 145 351 c 256
255 70 m 0
 270 70 283 80 283 91 c 2
 283 200 l 1
 268 198 220 185 220 126 c 0xf370
 220 78 241 70 255 70 c 0
EndSplineSet
EndChar

StartChar: uni0E07
Encoding: 3591 3591 218
Width: 509
VWidth: 1494
Flags: W
HStem: -13 21G<317.5 332.5> 378 67<272.238 333.859> 538 67<271.56 349.538>
VStem: 197 68<452.203 531.388> 338 95<123 384> 357 76<451.897 530.115>
LayerCount: 2
Fore
SplineSet
311 605 m 0xf8
 409 605 432 542 433 496 c 2
 433 85 l 2xf4
 433 16 335 -13 330 -13 c 0
 305 -13 278 33 278 44 c 0
 278 47 280 48 280 51 c 0
 280 65.1288 50.2601 269.919 7 303 c 1
 64 383 l 1
 124.949 334.241 272.461 180.829 338 123 c 1
 338 384 l 1
 328 380 316 378 311 378 c 0
 244 378 197 430 197 492 c 256
 197 560 250 604 311 605 c 0xf8
311 445 m 256
 336 445 357 464 357 492 c 0
 357 521 337 538 311 538 c 256
 283 538 265 520 265 492 c 0
 265 466 283 445 311 445 c 256
EndSplineSet
EndChar

StartChar: uni0E08
Encoding: 3592 3592 219
Width: 656
VWidth: 1494
Flags: W
HStem: -15 21G<417 432> 205 63<259.197 329.902> 365 64<258.966 339.388> 528 80<215.267 416.229>
VStem: 33 90<312 427.323> 188 63<276.623 357.467>
LayerCount: 2
Fore
SplineSet
317 608 m 0
 427 608 499 570 544 516 c 1
 546 519 549 520 554 520 c 0
 576 520 616 483 616 458 c 0
 616 437 586 425 575 386 c 2
 525 61 l 2
 521 41 515 32 484 12 c 2
 442 -12 l 2
 438 -14 434 -15 430 -15 c 0
 404 -15 369 35 369 47 c 0
 369 57 378 59 384 73 c 1
 348 223 l 1
 333 211 315 205 293 205 c 0
 248 205 188 242 188 320 c 0
 188 363 219 429 299 429 c 0
 379 429 406 372 414 326 c 2
 447 146 l 1
 480 393 l 2
 484 419 490 435 499 442 c 1
 490 446 438 528 318 528 c 0
 201 528 123 472 123 312 c 1
 33 312 l 1
 33 549 187 608 317 608 c 0
299 268 m 256
 328 268 348 290 348 317 c 0
 348 342 328 365 299 365 c 256
 269 365 251 341 251 317 c 0
 251 290 270 268 299 268 c 256
EndSplineSet
EndChar

StartChar: uni0E09
Encoding: 3593 3593 220
Width: 702
VWidth: 1494
Flags: W
HStem: -6 69<496.787 581.272> 178 61<171.29 212> 335 61<171.735 252.759> 525 88<231.11 439.528>
VStem: 103 61<246.735 327.759> 260 61<254.537 327.265> 413 73<74.4259 146.445> 505 99<250 409.307> 593 69<73.4878 163.306>
LayerCount: 2
Fore
SplineSet
330 613 m 0xff
 482 613 546 546 571 517 c 1
 573 518 575 518 578 518 c 0
 604 518 640 482 640 458 c 0
 640 429 604 432 604 366 c 2
 604 223 l 1xff
 639 207 662 159 662 118 c 0xfe80
 662 46 606 -6 538 -6 c 0
 474 -6 413 42 413 118 c 0
 413 125 414 142 422 152 c 1
 405 146 379 132 347 100 c 2
 312 64 l 2
 268 16 260 -11 233 -11 c 0
 209 -11 178 25 178 42 c 0
 178 61 212 77 212 106 c 2
 212 178 l 1
 150 178 103 228 103 287 c 256
 103 349 153 396 212 396 c 256
 274 396 321 346 321 287 c 0
 321 265 311 243 306 233 c 1
 306 167 l 1
 396 249 472 250 505 250 c 1
 505 389 l 2
 505 409 512 426 522 438 c 1
 509 453 460 525 329 525 c 0
 255 525 153 491 114 369 c 1
 31 402 l 1
 101 573 220 613 330 613 c 0xff
212 335 m 256
 183 335 164 315 164 287 c 256
 164 258 184 239 212 239 c 256
 241 239 260 259 260 287 c 256
 260 316 240 335 212 335 c 256
540 63 m 256
 573 63 593 90 593 118 c 256xfe80
 593 148 573 173 540 173 c 256
 508 173 486 148 486 118 c 256
 486 89 507 63 540 63 c 256
EndSplineSet
EndChar

StartChar: uni0E0A
Encoding: 3594 3594 221
Width: 653
VWidth: 1494
Flags: W
HStem: 0 90<297 462.623> 347 67<101.886 179.919> 529 82<155.141 302.031>
VStem: 27 67<421.232 499.791> 187 67<421.754 493.122> 203 105<97.8311 257.539> 325 89<370.569 503.912> 463 105<90.1057 118 118 416.625>
LayerCount: 2
Fore
SplineSet
27 460 m 0xfb
 27 520 78 611 232 611 c 0
 312 611 414 578 414 448 c 0
 414 406 406 358 361 313 c 2
 324 278 l 2
 314 267 308 254 308 239 c 2
 308 111 l 2
 308 100 304 93 297 90 c 1
 438 90 l 2
 455 90 463 99 463 118 c 2
 463 396 l 2
 463 410 461 421 441 444 c 1
 434 449 427 453 419 456 c 1
 418 460 418 464 418 468 c 0
 418 522 506 596 527 614 c 2
 604 679 l 1
 665 610 l 1
 562 533 546 509 525 478 c 1
 536 472 568 448 568 401 c 2
 568 79 l 2
 568 16 510 0 475 0 c 2
 253 0 l 1
 230 -11 228 -12 223 -12 c 0
 201 -12 164 33 164 51 c 0
 164 72 203 90 203 123 c 2
 203 241 l 2xf7
 203 258 207 287 256 324 c 2
 281 345 l 2
 311 370 325 408 325 442 c 0
 325 484 302 529 250 529 c 0
 244 529 238 529 232 528 c 1
 255 494 254 467 254 460 c 0
 254 395 203 347 141 347 c 256
 74 347 27 399 27 460 c 0xfb
141 414 m 256
 168 414 187 435 187 460 c 256xfb
 187 488 166 507 141 507 c 256
 113 507 94 486 94 460 c 256
 94 435 113 414 141 414 c 256
EndSplineSet
EndChar

StartChar: uni0E0B
Encoding: 3595 3595 222
Width: 686
VWidth: 1494
Flags: W
HStem: 0 88<333 497.468> 299 52<97.9596 167.395> 432 54<120.571 168.441> 529 78<135.923 212.974>
VStem: 23 70<355.804 476.711> 173 59<355.832 426.889> 242 102<97.6235 323.621> 378 72<432.839 530.58> 498 104<88.2164 117 117 417.049>
LayerCount: 2
Fore
SplineSet
133 351 m 256
 154 351 173 368 173 392 c 256
 173 415 154 432 133 432 c 256
 110 432 93 413 93 392 c 256
 93 368 112 351 133 351 c 256
203 51 m 0
 203 72 242 90 242 123 c 2
 242 244 l 2
 242 300 259 331 286 356 c 2
 312 380 l 2
 327 395 333 397 352 416 c 2
 370 438 l 2
 379 448 378 452 378 467 c 0
 378 498 360 537 347 537 c 1
 339 535 329 532 308 516 c 1
 315 496 321 496 321 483 c 0
 321 462 290 450 276 450 c 0
 245 450 258 491 212 519 c 0
 201 526 191 529 181 529 c 0
 161 529 129 511 120 483 c 1
 128 485 136 486 144 486 c 0
 200 486 232 434 232 392 c 0
 232 336 186 299 133 299 c 0
 67 299 23 353 23 435 c 0
 23 526 85 607 178 607 c 0
 216 607 247 594 272 567 c 1
 302 591 323 608 354 608 c 0
 394 607 450 576 450 470 c 0
 450 406 397 370 356 324 c 0
 348 316 344 303 344 288 c 2
 344 114 l 2
 344 106 341 93 333 88 c 1
 472 88 l 2
 491 88 498 100 498 117 c 2
 498 396 l 2
 498 411 496 423 475 444 c 1
 468 449 461 453 453 456 c 1
 452 460 452 464 452 469 c 0
 452 522 538 596 559 614 c 2
 635 679 l 1
 697 610 l 1
 606 542 585 517 559 478 c 1
 570 472 602 448 602 401 c 2
 602 78 l 2
 602 16 545 0 510 0 c 2
 291 0 l 1
 291 0 268 -12 261 -12 c 0
 236 -12 203 35 203 51 c 0
EndSplineSet
EndChar

StartChar: uni0E0C
Encoding: 3596 3596 223
Width: 970
VWidth: 1494
Flags: W
HStem: -1 67<215.312 291.97 465.525 505.697> 158 65<242.384 291.684> 528 79<240.072 433.353>
VStem: 139 103<223 312.436> 139 67<75.1416 151.149> 300 63<72.8881 151.524> 392 67<66.3845 176.574> 501 103<268 409.875> 511 94<64.9857 185> 779 101<0 64 179 598>
LayerCount: 2
Fore
SplineSet
490 64 m 0xe6c0
 500 64 511 72 511 84 c 2
 511 193 l 1
 483 189 459 158 459 123 c 0
 459 73 478 64 490 64 c 0xe6c0
254 66 m 0
 282 66 300 87 300 112 c 256
 300 140 280 158 254 158 c 0
 225 158 206 139 206 112 c 256xee40
 206 87 225 66 254 66 c 0
507 -3 m 0
 435 -3 392 49 392 117 c 0
 392 204 452 244 501 262 c 1
 501 387 l 2
 501 392 497 424 519 444 c 1
 506 447 449 528 344 528 c 0
 224 528 182 470 160 426 c 1
 202 395 l 1
 221 418 240 430 272 442 c 1
 296 410 l 2
 305 398 316 381 318 378 c 1
 267 358 242 321 242 266 c 2
 242 223 l 1xf740
 329 223 363 158 363 112 c 0
 363 44 309 -1 248 -1 c 256
 183 -1 139 48 139 112 c 2xee40
 139 271 l 2
 139 295 140 317 151 332 c 1
 48 399 l 1
 87 515 186 607 341 607 c 0
 453 607 525 567 571 516 c 1
 573 517 575 517 578 517 c 0
 606 517 640 481 640 458 c 0
 640 429 604 432 604 366 c 2
 604 268 l 1xf740
 640 265 712 241 779 179 c 1
 779 598 l 1
 880 598 l 1
 880 0 l 1
 779 0 l 1
 779 64 l 1
 707 161 623 182 605 185 c 1
 605 100 l 2xe6c0
 605 38 570 -3 507 -3 c 0
EndSplineSet
EndChar

StartChar: uni0E0D
Encoding: 3597 3597 224
Width: 962
VWidth: 1494
Flags: W
HStem: -267 70<518.997 640.392> -111 61<518.656 590.013> -7 67<214.134 292.519> 0 90<590 769.58> 154 67<242.514 292.719> 528 79<237.502 432.743>
VStem: 139 103<220 310.588> 139 67<69.0651 147.246> 300 68<66.9163 147.168> 451 61<-192.006 -116.884> 498 103<100.166 429.546> 596 60<-179.913 -117.036> 770 104<90.2381 118 118 598> 788 72<-104.201 -102 -100 -1.66333>
LayerCount: 2
Fore
SplineSet
253 60 m 0xed80
 281 60 300 79 300 108 c 0
 300 133 281 154 253 154 c 0
 225 154 206 133 206 108 c 0
 206 79 227 60 253 60 c 0xed80
596 -155 m 0xccd0
 596 -132 578 -111 554 -111 c 0
 529 -111 512 -134 512 -153 c 0
 512 -176 529 -197 553 -197 c 0
 579 -197 596 -174 596 -155 c 0xccd0
575 517 m 0
 603 517 637 481 637 458 c 0
 637 428.513 601 431.694 601 366 c 2
 601 115 l 2
 601 110 598 95 590 90 c 1
 744 90 l 2
 761 90 770 99 770 118 c 2
 770 598 l 1
 874 598 l 1
 874 82 l 2xdea8
 874 -27 870 -66 860 -100 c 1
 860 -102 l 1
 819 -234 691 -267 613 -267 c 0
 541 -267 451 -243 451 -150 c 0
 451 -92 502 -50 556 -50 c 0
 616 -50 656 -107 656 -153 c 0
 656 -162 655 -172 652 -182 c 1
 759 -159 782 -98 788 0 c 1
 552 0 l 1xdcd4
 529.948 -7.35057 532 -7 527 -7 c 0
 501 -7 467 37 467 55 c 0
 467 72 498 79 498 109 c 2
 498 393 l 2
 498 414 509 437 516 444 c 1
 505 446 449 528 344 528 c 0
 224 528 182 470 160 426 c 1
 202 395 l 1
 221 418 240 430 272 442 c 1
 318 378 l 1
 256 353 242 302 242 266 c 2
 242 220 l 1xeea4
 243.84 220.92 245 221 253 221 c 0
 316 221 368 171 368 108 c 256
 368 42 315 -7 253 -7 c 256
 186 -7 139 46 139 108 c 2xed80
 139 271 l 2xee80
 139 295 140 317 151 332 c 1
 48 399 l 1
 87 515 188 607 341 607 c 0
 453 607 521 568 568 516 c 1
 570 517 572 517 575 517 c 0
EndSplineSet
Substitution2: "Single Substitution lookup 22 subtable" uni0E0D.alt1
Substitution2: "Single Substitution lookup 22 subtable" uni0E0D.alt1
EndChar

StartChar: uni0E0E
Encoding: 3598 3598 225
Width: 724
VWidth: 1494
Flags: W
HStem: -366 67<165.698 246.314> -199 69<165.176 231.982> -10 68<119.404 198.744> 151 69<119.454 180.582> 531 79<272.871 470.907>
VStem: 45 67<65.3289 144.143> 88 69<-289.991 -207.115> 181 105<217 315.436> 206 80<66.2897 144.149> 235 85<-135 -72> 256 68<-289.103 -235.124> 535 103<-178 408.801>
LayerCount: 2
Fore
SplineSet
82 402 m 1xfd10
 113 495 200 610 375 610 c 0
 472 610 547 584 605 517 c 1
 607 518 610 518 612 518 c 0
 641 518 674 478 674 458 c 0
 674 431 638 430 638 366 c 2
 638 -187 l 2
 638 -207 627 -219 612 -236 c 2
 536 -320 l 2
 521 -336 500 -366 484 -366 c 0
 467 -366 422 -335 422 -314 c 0
 422 -310 423 -307 425 -303 c 1
 392 -268 357 -246 323 -235 c 1
 324 -238 324 -242 324 -248 c 0xf830
 324 -312 275 -366 206 -366 c 0
 142 -366 88 -315 88 -248 c 0
 88 -183 141 -130 206 -130 c 0xfa90
 216 -130 226 -132 235 -135 c 1
 235 -72 l 1
 320 -72 l 1
 320 -151 l 1xf850
 363 -161 420 -187 477 -242 c 1
 501 -217 520 -197 535 -178 c 1
 535 394 l 2
 535 399 540 431 553 448 c 1
 539 455 486 531 378 531 c 0
 259 531 216 473 194 429 c 1
 236 398 l 1
 256 421 273 433 306 445 c 1
 349 388 348 386 353 381 c 1
 338 375 286 359 286 269 c 2xf910
 286 117 l 2xf890
 286 63 261 -10 160 -10 c 0
 95 -10 45 41 45 105 c 256
 45 168 95 220 160 220 c 0
 168 220 168 219 181 217 c 1
 181 274 l 2
 181 298 182 320 193 335 c 1
 82 402 l 1xfd10
160 58 m 0
 185 58 206 77 206 105 c 256
 206 132 185 151 160 151 c 0
 127 151 112 126 112 105 c 256xfc90
 112 79 131 58 160 58 c 0
206 -299 m 256
 233 -299 256 -278 256 -248 c 256xf830
 256 -219 234 -199 206 -199 c 256
 177 -199 157 -221 157 -248 c 256xfa90
 157 -275 177 -299 206 -299 c 256
EndSplineSet
Substitution2: "Single Substitution lookup 22 subtable" uni0E0E.alt1
Substitution2: "Single Substitution lookup 22 subtable" uni0E0E.alt1
EndChar

StartChar: uni0E0F
Encoding: 3599 3599 226
Width: 724
VWidth: 1494
Flags: W
HStem: -366 67<87.6365 168.483> -293 72<416.944 460.094> -199 69<87.539 154.162> -10 68<119.404 198.744> 151 69<119.454 180.582> 531 79<272.27 467.047>
VStem: 10 69<-289.504 -207.184> 45 67<65.3289 144.143> 157 84<-135 -55> 178 69<-288.447 -243.165> 181 105<217 315.436> 206 80<66.2897 144.149> 535 103<-172 409.043>
LayerCount: 2
Fore
SplineSet
82 402 m 1xfd28
 113 495 197 607 375 610 c 0
 472 610 547 584 605 517 c 1
 607 518 610 518 612 518 c 0
 641 518 674 478 674 458 c 0
 674 431 638 430 638 366 c 2
 638 -199 l 2
 638 -200 633 -207 624 -220 c 2
 561 -310 l 2
 548 -328 540 -342 525 -342 c 0
 506 -342 461 -324 461 -298 c 0
 461 -296 462 -294 462 -293 c 1
 370 -293 378 -366 353 -366 c 0
 350 -366 305 -354 298 -352 c 0
 294 -350 291 -347 291 -343 c 0
 291 -337 302 -320 305 -314 c 1
 290 -280 272 -261 247 -242 c 1xfc48
 247 -320 191 -366 129 -366 c 0
 62 -366 10 -314 10 -248 c 0
 10 -176 65 -130 128 -130 c 0
 139 -130 149 -132 157 -135 c 1
 157 -55 l 1
 241 -55 l 1
 241 -149 l 1xfe88
 320 -184 347 -240 356 -256 c 1
 393 -224 418 -221 433 -221 c 0
 450 -221 467 -225 484 -233 c 1
 535 -172 l 1
 535 394 l 2
 535 400 538 434 553 447 c 1
 541 450 484 531 378 531 c 0
 259 531 216 473 194 429 c 1
 236 398 l 1
 256 421 273 433 306 445 c 1
 349 388 348 386 353 381 c 1
 338 375 286 359 286 269 c 2xfc28
 286 117 l 2xfc18
 286 63 261 -10 160 -10 c 0
 95 -10 45 41 45 105 c 256
 45 168 95 220 160 220 c 0
 168 220 168 219 181 217 c 1
 181 274 l 2
 181 298 182 320 193 335 c 1
 82 402 l 1xfd28
160 58 m 0
 185 58 206 77 206 105 c 256
 206 132 185 151 160 151 c 0
 127 151 112 126 112 105 c 256xfd18
 112 79 131 58 160 58 c 0
129 -299 m 256
 155 -299 178 -277 178 -248 c 256
 178 -222 162 -199 129 -199 c 0
 101 -199 79 -219 79 -248 c 256xfe48
 79 -278 102 -299 129 -299 c 256
EndSplineSet
Substitution2: "Single Substitution lookup 22 subtable" uni0E0F.alt1
Substitution2: "Single Substitution lookup 22 subtable" uni0E0F.alt1
EndChar

StartChar: uni0E10
Encoding: 3600 3600 227
Width: 624
VWidth: 1494
Flags: W
HStem: -366 63<20.4222 102.363> -330 66<329.216 410.384> -221 58<359.744 410.85> -205 64<20.053 88.625> -87 59<359.034 428.749> -17 21G<347 367.5> 130 60<183.09 257.822> 286 61<183.624 263.762> 397 78<178.678 202.546 190.612 369.486> 496 71<547 593> 540 77<254.35 373.189>
VStem: -51 63<-294.856 -213.39> 90 85<-145 -57> 111 63<-294.079 -247.661 -250.5 -244.822 199.332 276.42> 297 59<-159.473 -90.0837> 411 85<-265 -218> 432 64<-159.627 -90.3641>
LayerCount: 2
Fore
SplineSet
393 -28 m 0x6f9b
 434 -28 496 -55 496 -121 c 2
 496 -310 l 2
 496 -319 476 -350 459 -350 c 0
 446 -350 424 -330 389 -330 c 0x6f9280
 330 -330 308 -363 291 -363 c 0
 287 -363 245 -341 245 -337 c 0
 245 -335 246 -332 248 -327 c 1
 236 -297 218 -267 173 -244 c 1
 173 -248 174 -253 174 -257 c 0
 174 -302 142 -366 61 -366 c 0
 2 -366 -51 -321 -51 -254 c 0
 -51 -182 1 -141 60 -141 c 0x9f9680
 70 -141 80 -142 90 -145 c 1
 90 -57 l 1
 175 -57 l 1
 175 -164 l 1
 265 -196 293 -259 303 -280 c 1
 333 -266 360 -264 385 -264 c 0
 394 -264 403 -264 411 -265 c 1
 411 -218 l 1
 405 -220 399 -221 393 -221 c 0
 360 -221 297 -194 297 -124 c 0
 297 -69 343 -28 393 -28 c 0x6f9b
61 -303 m 256x9f96
 89 -303 111 -283 111 -254 c 256
 111 -225 89 -205 61 -205 c 256
 32 -205 12 -227 12 -254 c 256
 12 -283 34 -303 61 -303 c 256x9f96
393 -163 m 256x2f9280
 417 -163 432 -146 432 -124 c 256
 432 -103 417 -87 393 -87 c 256
 371 -87 356 -104 356 -124 c 256
 356 -146 371 -163 393 -163 c 256x2f9280
224 190 m 256
 253 190 272 210 272 238 c 0
 272 262 254 286 224 286 c 256
 195 286 175 263 175 238 c 0x0f9a
 175 209 197 190 224 190 c 256
497 417 m 0
 532 417 558 371 558 358 c 0
 558 339 520 306 514 275 c 2
 483 66 l 2
 477 38 374 -17 361 -17 c 0
 333 -17 302 34 302 49 c 0
 302 54 304 58 318 75 c 1
 314 91 301 114 288 154 c 1
 276 137 243 130 224 130 c 0
 173 130 117 168 117 239 c 0
 117 320 184 347 226 347 c 0
 262 347 302 325 318 294 c 0
 336 268 380 171 390 108 c 1
 416 287 l 2
 425 322 423 324 436 344 c 1
 423 356 352 397 213 397 c 0
 186 397 159 396 130 392 c 1
 123 379 113 367 101 367 c 0
 88 367 45 383 45 400 c 0
 45 412 116 617 324 617 c 0x0fb2
 358 617 394 613 494 588 c 2
 550 574 l 2
 567 569 581 567 593 567 c 1
 565 501 l 1
 561 498 555 496 547 496 c 0x0fd2
 532 496 492 507 469 513 c 2
 400 531 l 2
 377 537 355 540 336 540 c 0x0fb2
 313 540 225 546 178 475 c 1
 195 476 212 476 227 476 c 0
 371 476 462 429 487 414 c 1
 488 416 492 417 497 417 c 0
EndSplineSet
Substitution2: "Single Substitution lookup 22 subtable" uni0E10.alt1
Substitution2: "Single Substitution lookup 22 subtable" uni0E10.alt1
EndChar

StartChar: uni0E11
Encoding: 3601 3601 228
Width: 813
VWidth: 1494
Flags: W
HStem: 0 21G<284 302 628 731> 293 58<104.632 174.396> 432 54<126.618 174.441> 529 77<146.212 206.518 311.446 384.425>
VStem: 31 69<356.279 476.935> 179 59<355.827 426.889> 269 103<200 394.441> 371 88<457.988 509.951> 628 103<0 492.532>
LayerCount: 2
Fore
SplineSet
139 351 m 256xfc80
 160 351 179 368 179 392 c 256
 179 415 160 432 139 432 c 256
 116 432 100 413 100 392 c 256
 100 368 118 351 139 351 c 256xfc80
767 521 m 0
 767 492 731 494 731 429 c 2
 731 0 l 1
 628 0 l 1
 628 433 l 2
 628 474 637 490 644 501 c 1
 639 506 610 514 605 514 c 1
 384 58 l 2
 371 27 309 -9 295 -9 c 0
 273 -9 238 37 238 56 c 0
 238 75 269 93 269 123 c 2
 269 339 l 2xfe80
 269 404 371 463 371 483 c 0
 371 486 356 534 334 534 c 0
 326 534 313 527 300 516 c 1
 303 510 304 504 304 499 c 0
 304 482 284 463 265 463 c 0
 231 463 250 489 208 519 c 0
 200 526 191 529 182 529 c 0
 146 529 130 491 126 483 c 1
 134 485 142 486 150 486 c 0
 206 486 238 434 238 392 c 0
 238 338 197 293 139 293 c 0
 74 293 31 354 31 435 c 0
 31 526 88 606 174 606 c 0
 210 606 240 592 265 565 c 1
 284 582 318 610 359 610 c 0
 410 610 459 513 459 497 c 0xfd80
 459 474 448 465 442 460 c 2
 414 433 l 2
 376 399 372 377 372 363 c 2
 372 200 l 1xfe80
 559 608 l 1
 612 608 664 594 691 574 c 1
 693 578 698 579 705 579 c 0
 736 579 767 542 767 521 c 0
EndSplineSet
EndChar

StartChar: uni0E12
Encoding: 3602 3602 229
Width: 959
VWidth: 1494
Flags: MW
HStem: -8 68<471.954 512.52> 175 81<617.925 693.133> 381 64<303.966 379.551> 578 20G<783 883 883 883> 590 20<249.5 256.5 438.5 454 783 883>
VStem: 78 91<245.686 474.291> 233 64<299.27 374.592> 386 64<299.689 374.369> 395 70<62.8139 172.977> 517 94<60.1048 175 260 422.887> 783 100<0 61 172 598>
LayerCount: 2
Fore
SplineSet
497 60 m 0xeee0
 507 60 517 68 517 79 c 2
 517 188 l 1
 488 184 465 155 465 120 c 0
 465 70 484 60 497 60 c 0xeee0
342 293 m 0
 367 293 386 313 386 336 c 0xef60
 386 365 364 381 342 381 c 0
 317 381 297 363 297 336 c 0
 297 312 316 293 342 293 c 0
130 102 m 0
 130 173 78 271 78 387 c 0
 78 583 248 610 251 610 c 0xef60
 262 610 303 601 362 549 c 1
 378 565 425 611 452 611 c 0xef60
 456 611 556 589 595 520 c 1
 596 520 598 521 600 521 c 0
 610 521 653 482 653 458 c 0
 653 429 613 426 613 366 c 2
 613 256 l 1
 648 253 716 233 783 172 c 1
 783 598 l 1
 883 598 l 1xf6e0
 883 0 l 1
 783 0 l 1
 783 61 l 1
 740 119 666 166 611 175 c 1
 611 96 l 2
 611 32 575 -8 511 -8 c 0
 438 -8 395 56 395 116 c 0xeee0
 395 203 459 244 513 260 c 1
 513 396 l 2
 513 411 518 432 531 445 c 1
 522 466 504 513 444 523 c 1
 410 506 379 468 356 468 c 0
 343 468 316 502 259 525 c 1
 233 516 169 495 169 383 c 0
 174 270 194 246 211 152 c 1
 243 190 290 241 294 245 c 1
 262 256 233 292 233 336 c 0
 233 398 283 445 342 445 c 0
 401 445 450 397 450 336 c 0
 450 260 394 232 312 144 c 2
 218 39 l 2
 216 37 182 -8 158 -8 c 0
 138 -8 103 32 103 45 c 0
 103 66 130 78 130 102 c 0
EndSplineSet
EndChar

StartChar: uni0E13
Encoding: 3603 3603 230
Width: 992
VWidth: 1494
Flags: W
HStem: -15 73<780.054 870.479> -7 67<222.176 301.981> 154 66<244.894 302.152> 528 79<240.072 432.078>
VStem: 139 103<215 310.588> 139 76<66.9438 146.95> 309 68<66.7161 147.559> 498 103<188 429.855> 694 74<70.043 149.461> 807 100<259.598 278 278 562> 882 72<70.5719 161.5>
LayerCount: 2
Fore
SplineSet
263 60 m 0x7780
 290 60 309 79 309 108 c 0
 309 133 291 154 263 154 c 0
 230 154 215 129 215 108 c 0
 215 79 235 60 263 60 c 0x7780
825 58 m 256xb3a0
 861 58 882 84 882 115 c 0
 882 149 861 173 825 173 c 256
 792 173 768 150 768 115 c 0
 768 84 791 58 825 58 c 256xb3a0
575 518 m 0
 601 518 637 482 637 458 c 0
 637 429 601 432 601 366 c 2
 601 188 l 1
 645 230 703 259 786 259 c 2
 803 259 l 1
 806 262 807 268 807 278 c 2
 807 562 l 1
 907 562 l 1
 907 251 l 2x7bc0
 907 239 905 231 897 223 c 1
 927 202 954 163 954 115 c 0
 954 39 893 -15 824 -15 c 0
 746 -15 694 44 694 115 c 0
 694 119 695 144 704 158 c 1
 597 127 568 -1 536 -1 c 0
 515 -1 473 31 473 54 c 0
 473 72 498 80 498 109 c 2
 498 393 l 2
 498 414 513 439 516 444 c 1
 505 446 449 528 344 528 c 0
 224 528 182 470 160 426 c 1
 202 395 l 1
 221 418 240 430 272 442 c 1
 318 378 l 1
 256 353 242 302 242 266 c 2
 242 215 l 1xbba0
 251 218 260 220 269 220 c 0
 307 220 377 186 377 108 c 0
 377 41 325 -7 263 -7 c 0
 199 -7 139 33 139 114 c 2x7780
 139 271 l 2x7b80
 139 295 140 317 151 332 c 1
 48 399 l 1
 87 515 186 607 341 607 c 0
 450 607 521 569 568 517 c 1
 570 518 572 518 575 518 c 0
EndSplineSet
EndChar

StartChar: uni0E14
Encoding: 3604 3604 231
Width: 684
VWidth: 1494
Flags: W
HStem: 0 21G<148 167 510 613> 387 67<309.081 387.457> 523 85<251.168 456.543>
VStem: 81 91<230.592 449.874> 235 67<300.864 379.633> 395 67<302.424 379.633> 510 103<0 429.855>
LayerCount: 2
Fore
SplineSet
348 608 m 0
 442 608 517 587 578 517 c 1
 580 518 583 518 585 518 c 0
 614 518 649 481 649 458 c 0
 649 429 613 432 613 366 c 2
 613 0 l 1
 510 0 l 1
 510 386 l 2
 510 421 525 440 529 444 c 1
 520 446 483 523 350 523 c 0
 208 523 173 435 172 369 c 0
 172 250 204 205 211 152 c 1
 252 201 281 226 299 244 c 1
 264 257 235 291 235 341 c 0
 235 408 286 454 348 454 c 256
 410 454 462 408 462 341 c 0
 462 256 387 218 264 84 c 2
 220 38 l 2
 204 20 176 -8 158 -8 c 0
 138 -8 103 32 103 45 c 0
 103 66 130 78 130 102 c 0
 130 174 81 251 81 375 c 0
 85 519 190 607 348 608 c 0
348 294 m 256
 376 294 395 315 395 341 c 256
 395 366 376 387 348 387 c 256
 321 387 302 366 302 341 c 256
 302 313 323 294 348 294 c 256
EndSplineSet
EndChar

StartChar: uni0E15
Encoding: 3605 3605 232
Width: 692
VWidth: 1494
Flags: W
HStem: 0 21G<157 186 514 617> 360 68<310.543 388.633> 587 20G<250.5 256.5 440.5 455.5>
VStem: 87 91<243.931 475.112> 236 67<274.711 352.686> 396 67<274.944 352.981> 514 103<0 430.039>
LayerCount: 2
Fore
SplineSet
140 99 m 0
 140 164 87 272 87 392 c 0
 87 592 249 607 252 607 c 0
 261 607 306 597 362 546 c 1
 378 562 428 610 453 610 c 0
 458 610 553 593 593 519 c 1
 595 520 596 520 598 520 c 0
 611 520 653 482 653 458 c 0
 653 431 617 430 617 366 c 2
 617 0 l 1
 514 0 l 1
 514 395 l 2
 514 410 519 431 532 444 c 1
 527 456 512 507 456 519 c 1
 436 509 382 444 357 444 c 0
 336 444 313 492 254 520 c 1
 208 496 178 473 178 392 c 256
 178 271 214 199 220 149 c 1
 251 187 277 201 299 223 c 1
 273 225 236 268 236 314 c 0
 236 381 288 428 350 428 c 256
 417 428 463 376 463 314 c 0
 463 225 371 178 344 154 c 0
 240 66 205 -11 167 -11 c 0
 147 -11 112 29 112 42 c 0
 112 63 140 75 140 99 c 0
350 268 m 256
 375 268 396 286 396 314 c 256
 396 341 375 360 350 360 c 256
 322 360 303 339 303 314 c 256
 303 286 324 268 350 268 c 256
EndSplineSet
EndChar

StartChar: uni0E16
Encoding: 3606 3606 233
Width: 689
VWidth: 1494
Flags: W
HStem: -7 67<224.654 303.671> 154 67<242.416 303.246> 528 79<240.072 435.473>
VStem: 139 103<218 310.588> 139 78<68.1594 146.95> 311 67<67.2034 146.919> 501 103<0 429.855>
LayerCount: 2
Fore
SplineSet
265 60 m 0xee
 290 60 311 79 311 108 c 0
 311 135 290 154 265 154 c 0
 232 154 217 129 217 108 c 0
 217 79 237 60 265 60 c 0xee
501 381 m 2
 501 425 511 436 519 444 c 1
 519 444 451 528 344 528 c 0
 224 528 182 470 160 426 c 1
 202 395 l 1
 221 418 240 430 272 442 c 1
 318 378 l 1
 256 353 242 302 242 266 c 2
 242 218 l 1xf6
 250 220 258 221 265 221 c 0
 330 221 378 170 378 108 c 256
 378 42 327 -7 265 -7 c 0
 204 -7 139 29 139 114 c 2xee
 139 271 l 2xf6
 139 295 140 317 151 332 c 1
 48 399 l 1
 87 515 186 607 341 607 c 0
 477 607 544 542 567 513 c 1
 569 516 573 518 578 518 c 0
 605 518 640 481 640 458 c 0
 640 429 604 432 604 366 c 2
 604 0 l 1
 501 0 l 1
 501 381 l 2
EndSplineSet
EndChar

StartChar: uni0E17
Encoding: 3607 3607 234
Width: 721
VWidth: 1494
Flags: W
HStem: 0 21G<185.5 201 541 644> 384 67<118.857 171.925> 514 90<487 493.454 474.727 543.28> 546 67<119.11 197.159>
VStem: 43 69<458.454 538.114> 172 103<217 386> 205 70<457.944 537.371> 541 103<0 467.736>
LayerCount: 2
Fore
SplineSet
680 518 m 0xed
 680 491 644 488 644 426 c 2
 644 0 l 1
 541 0 l 1
 541 438 l 2
 541 455 544 486 556 498 c 1
 547 509 526 515 500 515 c 0
 495 515 490 515 487 514 c 1
 286 58 l 2
 277 41 242 13 226 1 c 1
 207 -6 204 -8 198 -8 c 0
 173 -8 140 38 140 57 c 0
 140 77 172 97 172 124 c 2
 172 386 l 1xed
 169 385 164 384 158 384 c 0
 95 384 43 434 43 499 c 256
 43 566 97 613 158 613 c 0
 211 613 275 574 275 499 c 2xdb
 275 217 l 1
 428 604 l 1
 441 607 456 608 474 608 c 0
 532 608 585 586 605 571 c 1
 608 575 613 576 620 576 c 0
 651 576 680 536 680 518 c 0xed
158 451 m 256
 184 451 205 470 205 499 c 0
 205 527 184 546 158 546 c 256xdb
 133 546 112 527 112 499 c 0
 112 466 137 451 158 451 c 256
EndSplineSet
EndChar

StartChar: uni0E18
Encoding: 3608 3608 235
Width: 624
VWidth: 1494
Flags: W
HStem: 0 89<253 431.364> 336 97<260 414.339> 487 83<484.451 567> 531 83<246.017 452.389>
VStem: 157 103<89.5212 336> 432 102<89.3576 291.161>
LayerCount: 2
Fore
SplineSet
432 250 m 2xcc
 432 269 430 292 441 314 c 1
 425 320 333 333 260 336 c 1
 260 110 l 2
 260 99 258 92 253 89 c 1
 405 89 l 2
 421 89 432 99 432 118 c 2
 432 250 l 2xcc
534 79 m 2
 534 16 474 0 439 0 c 2
 205 1 l 1
 181 -9 184 -10 175 -10 c 0
 148 -10 118 41 118 55 c 0
 118 75 157 93 157 124 c 2
 157 347 l 1
 147 347 134 348 131 348 c 0
 108 348 102 337 90 337 c 0
 80 337 40 368 40 378 c 0
 40 391 49 386 82 453 c 0
 152 590 254 614 332 614 c 0xdc
 438 614 531 572 598 570 c 1
 567 487 l 1xec
 470 492 423 531 335 531 c 0xdc
 270 531 225 512 173 433 c 1
 301 433 404 416 493 395 c 1
 497 399 502 401 507 401 c 0
 533 401 568 359 568 344 c 0
 568 310 534 301 534 263 c 2
 534 79 l 2
EndSplineSet
EndChar

StartChar: uni0E19
Encoding: 3609 3609 236
Width: 713
VWidth: 1494
Flags: W
HStem: -9 76<497.512 589.931> 378 69<116.89 177.632> 540 68<116.604 195.744>
VStem: 42 67<454.17 532.871> 178 105<199 381> 203 80<453.754 532.076> 407 77<80.6751 163.4> 526 105<283.267 299 299 598> 604 76<80.4707 173.953>
LayerCount: 2
Fore
SplineSet
544 67 m 256xf280
 580 67 604 94 604 127 c 256
 604 159 580 188 544 188 c 256
 512 188 484 162 484 127 c 256
 484 91 512 67 544 67 c 256xf280
157 447 m 0
 184 447 203 468 203 493 c 256xf6
 203 521 182 540 157 540 c 0
 128 540 109 519 109 493 c 256
 109 468 128 447 157 447 c 0
543 -9 m 0
 464 -9 407 53 407 127 c 0
 407 146 408 155 414 170 c 1
 320 152 237 18 215 3 c 0
 211 -0 207 -2 202 -2 c 0
 176 -2 141 46 141 61 c 0
 141 81 178 98 178 130 c 2
 178 381 l 1xfa80
 170 379 162 378 154 378 c 0
 98 378 42 424 42 493 c 0
 42 558 93 608 157 608 c 0
 258 608 283 541 283 489 c 2xf6
 283 199 l 1
 346 258 439 278 504 278 c 2
 520 278 l 1
 524 285 525 290 526 299 c 2
 526 598 l 1
 631 598 l 1
 631 271 l 2xfb
 631 263 628 249 620 241 c 1
 652 218 680 178 680 127 c 0xf280
 680 46 615 -9 543 -9 c 0
EndSplineSet
EndChar

StartChar: uni0E1A
Encoding: 3610 3610 237
Width: 727
VWidth: 1494
Flags: W
HStem: 0 88<268 528.041> 378 69<112.367 172.423> 540 68<112.481 191.224>
VStem: 37 68<454.454 532.026> 173 105<101.279 381> 199 79<453.754 532.076> 538 105<88.0982 117 117 598>
LayerCount: 2
Fore
SplineSet
643 79 m 2xfa
 643 16 584 0 550 0 c 2
 220 0 l 1
 203 -7 200 -11 191 -11 c 0
 166 -11 131 37 131 54 c 0
 131 77 173 93 173 124 c 2
 173 381 l 1xfa
 165 379 157 378 149 378 c 0
 93 378 37 427 37 493 c 0
 37 559 90 608 152 608 c 0
 253 608 278 541 278 489 c 2xf6
 278 111 l 2
 278 109 278 98 268 88 c 1
 513 88 l 2
 527 88 538 93 538 117 c 2
 538 598 l 1
 643 598 l 1
 643 79 l 2xfa
152 447 m 0
 180 447 199 468 199 493 c 256xf6
 199 521 178 540 152 540 c 0
 124 540 105 519 105 493 c 256
 105 468 124 447 152 447 c 0
EndSplineSet
EndChar

StartChar: uni0E1B
Encoding: 3611 3611 238
Width: 727
VWidth: 1494
Flags: W
HStem: 0 88<268 528.041> 378 69<112.367 172.423> 540 68<112.481 191.224>
VStem: 37 68<454.454 532.026> 173 105<101.279 381> 199 79<453.754 532.076> 538 105<88.0982 117 117 822>
LayerCount: 2
Fore
SplineSet
643 79 m 2xfa
 643 16 584 0 550 0 c 2
 220 0 l 1
 203 -7 200 -11 191 -11 c 0
 166 -11 131 37 131 54 c 0
 131 77 173 93 173 124 c 2
 173 381 l 1xfa
 165 379 157 378 149 378 c 0
 93 378 37 427 37 493 c 0
 37 559 90 608 152 608 c 0
 253 608 278 541 278 489 c 2xf6
 278 111 l 2
 278 109 278 98 268 88 c 1
 513 88 l 2
 527 88 538 93 538 117 c 2
 538 822 l 1
 643 822 l 1
 643 79 l 2xfa
152 447 m 0
 180 447 199 468 199 493 c 256xf6
 199 521 178 540 152 540 c 0
 124 540 105 519 105 493 c 256
 105 468 124 447 152 447 c 0
EndSplineSet
EndChar

StartChar: uni0E1C
Encoding: 3612 3612 239
Width: 692
VWidth: 1494
Flags: W
HStem: -17 21G<97 113 533 540.5> 378 69<188.306 249.26> 540 68<170.438 249.596>
VStem: 84 104<185 381> 84 79<453.851 533.103> 257 67<454.215 532.671> 499 106<175 598>
LayerCount: 2
Fore
SplineSet
48 49 m 0xf6
 48 70 84 88 84 118 c 2
 84 483 l 2xee
 84 537 109 608 209 608 c 0
 274 608 324 557 324 493 c 0
 324 425 269 378 212 378 c 0
 204 378 196 379 188 381 c 1
 188 185 l 1
 306 311 l 2
 321 328 329 337 344 337 c 0
 355 337 366 328 380 311 c 2
 499 175 l 1
 499 598 l 1
 605 598 l 1
 605 63 l 2
 605 36 609 33 609 23 c 0
 609 12 597 6 568 -7 c 256
 556 -13 544 -17 537 -17 c 0
 529 -17 526 -9 519 -1 c 2
 342 212 l 1
 135 0 l 2
 123 -13 117 -14 109 -14 c 0
 85 -14 48 31 48 49 c 0xf6
209 540 m 0
 184 540 163 521 163 493 c 256
 163 466 184 447 209 447 c 0
 242 447 257 472 257 493 c 256
 257 519 238 540 209 540 c 0
EndSplineSet
EndChar

StartChar: uni0E1D
Encoding: 3613 3613 240
Width: 692
VWidth: 1494
Flags: W
HStem: -17 21G<97 113 533 540.5> 378 69<188.306 249.26> 540 68<170.438 249.596>
VStem: 84 104<185 381> 84 79<453.851 533.103> 257 67<454.215 532.671> 499 106<175 822>
LayerCount: 2
Fore
SplineSet
48 49 m 0xf6
 48 70 84 88 84 118 c 2
 84 483 l 2xee
 84 537 109 608 209 608 c 0
 274 608 324 557 324 493 c 0
 324 425 269 378 212 378 c 0
 204 378 196 379 188 381 c 1
 188 185 l 1
 306 311 l 2
 321 328 329 337 344 337 c 0
 355 337 366 328 380 311 c 2
 499 175 l 1
 499 822 l 1
 605 822 l 1
 605 63 l 2
 605 36 609 33 609 23 c 0
 609 12 597 6 568 -7 c 256
 556 -13 544 -17 537 -17 c 0
 529 -17 525 -10 519 -1 c 2
 342 212 l 1
 135 0 l 2
 123 -13 117 -14 109 -14 c 0
 85 -14 48 31 48 49 c 0xf6
209 540 m 0
 184 540 163 521 163 493 c 256
 163 466 184 447 209 447 c 0
 242 447 257 472 257 493 c 256
 257 519 238 540 209 540 c 0
EndSplineSet
EndChar

StartChar: uni0E1E
Encoding: 3614 3614 241
Width: 787
VWidth: 1494
Flags: W
HStem: -10 21G<176 190.5 626 642> 378 69<112.367 172.423> 540 68<112.481 190.676>
VStem: 37 68<454.454 532.026> 173 102<239 381> 199 76<453.754 532.935> 599 107<239 598>
LayerCount: 2
Fore
SplineSet
152 608 m 0xfa
 250 608 275 543 275 489 c 2xf6
 275 239 l 1
 399 562 l 2
 410 582 415 589 436 589 c 256
 458 589 463 582 474 562 c 2
 599 239 l 1
 599 598 l 1
 706 598 l 1
 706 93 l 2
 706 79 711 38 714 24 c 1
 710 1 700 5 678 -3 c 0
 661 -8 647 -10 637 -10 c 0
 615 -10 605 6 601 16 c 2
 435 405 l 1
 288 64 l 2
 261 13 228 6 200 -9 c 1
 196 -10 192 -11 189 -11 c 0
 163 -11 131 31 131 46 c 0
 131 70 173 87 173 120 c 2
 173 381 l 1
 165 379 157 378 149 378 c 0
 93 378 37 427 37 493 c 0
 37 559 90 608 152 608 c 0xfa
152 447 m 0
 180 447 199 468 199 493 c 256
 199 521 178 540 152 540 c 0
 124 540 105 519 105 493 c 256
 105 468 124 447 152 447 c 0
EndSplineSet
EndChar

StartChar: uni0E1F
Encoding: 3615 3615 242
Width: 787
VWidth: 1494
Flags: W
HStem: -10 21G<176 190.5 626 642> 378 69<112.367 172.423> 540 68<112.481 190.676>
VStem: 37 68<454.454 532.026> 173 102<239 381> 199 76<453.754 532.935> 599 107<239 821>
LayerCount: 2
Fore
SplineSet
706 93 m 2xfa
 706 79 711 38 714 24 c 1
 710 1 700 5 678 -3 c 0
 661 -8 647 -10 637 -10 c 0
 615 -10 605 6 601 16 c 2
 435 405 l 1
 288 64 l 2
 261 13 228 6 200 -9 c 1
 196 -10 192 -11 189 -11 c 0
 163 -11 131 31 131 46 c 0
 131 70 173 87 173 120 c 2
 173 381 l 1xfa
 165 379 157 378 149 378 c 0
 93 378 37 427 37 493 c 0
 37 559 90 608 152 608 c 0
 250 608 275 543 275 489 c 2xf6
 275 239 l 1
 399 562 l 2
 410 582 415 589 436 589 c 0
 452 589 468 583 472 564 c 1
 599 239 l 1
 599 821 l 1
 706 821 l 1
 706 93 l 2xfa
152 447 m 0
 180 447 199 468 199 493 c 256xf6
 199 521 178 540 152 540 c 0
 124 540 105 519 105 493 c 256
 105 468 124 447 152 447 c 0
EndSplineSet
EndChar

StartChar: uni0E20
Encoding: 3616 3616 243
Width: 716
VWidth: 1494
Flags: W
HStem: -13 68<119.404 198.744> 148 69<119.454 180.582> 528 79<272.871 467.683>
VStem: 45 67<62.3289 141.143> 181 105<214 312.436> 206 80<63.2897 141.149> 535 103<0 430.039>
LayerCount: 2
Fore
SplineSet
160 55 m 0xf6
 185 55 206 74 206 102 c 256
 206 129 185 148 160 148 c 0
 127 148 112 123 112 102 c 256
 112 76 131 55 160 55 c 0xf6
82 399 m 1
 113 492 200 607 375 607 c 0
 487 607 559 567 605 517 c 1
 607 518 610 518 612 518 c 0
 641 518 674 478 674 458 c 0
 674 431 638 430 638 366 c 2
 638 0 l 1
 535 0 l 1
 535 391 l 2
 535 409 546 436 553 444 c 1
 541 447 484 528 378 528 c 0
 259 528 216 470 194 426 c 1
 236 395 l 1
 256 418 273 430 306 442 c 1
 353 378 l 1
 338 372 286 356 286 266 c 2xfa
 286 114 l 2xf6
 286 60 261 -13 160 -13 c 0
 95 -13 45 38 45 102 c 256
 45 165 95 217 160 217 c 0
 168 217 168 216 181 214 c 1
 181 271 l 2xfa
 181 295 182 317 193 332 c 1
 82 399 l 1
EndSplineSet
EndChar

StartChar: uni0E21
Encoding: 3617 3617 244
Width: 705
VWidth: 1494
Flags: W
HStem: -11 81<158.297 199.121> 378 69<143.89 204.632> 540 68<143.604 222.562>
VStem: 66 86<73.6512 182.469> 69 67<454.17 532.871> 205 104<71.9746 199 294 381> 230 79<453.754 532.505> 523 100<0 46 188 598>
LayerCount: 2
Fore
SplineSet
183 70 m 0xf5
 194 70 205 78 205 90 c 2
 205 199 l 1
 175 195 152 165 152 129 c 0
 152 81 171 70 183 70 c 0xf5
184 608 m 0
 284 608 309 542 309 489 c 2xeb
 309 294 l 1xe5
 351 287 440 266 523 188 c 1
 523 598 l 1
 623 598 l 1
 623 0 l 1
 523 0 l 1
 523 46 l 1
 507 81 452 177 309 208 c 1xe3
 309 103 l 2
 309 12 241 -11 191 -11 c 0
 128 -11 66 41 66 126 c 0xf5
 66 221 136 274 205 288 c 1
 205 381 l 1
 197 379 189 378 181 378 c 0
 125 378 69 424 69 493 c 0xed
 69 558 120 608 184 608 c 0
184 447 m 0
 211 447 230 468 230 493 c 256
 230 521 209 540 184 540 c 0
 155 540 136 519 136 493 c 256
 136 468 155 447 184 447 c 0
EndSplineSet
EndChar

StartChar: uni0E22
Encoding: 3618 3618 245
Width: 680
VWidth: 1494
Flags: MW
HStem: 0 90<242 492.523> 250 81<254.183 354.119> 386 67<209.787 288.719> 546 67<210.876 288.083> 578 20G<493 598 598 598>
VStem: 59 97<383.078 434.176> 148 106<90.9075 250> 296 67<460.561 538.6> 493 105<90.1169 119 119 598>
LayerCount: 2
Fore
SplineSet
598 80 m 2xf380
 598 16 540 0 505 0 c 2
 196 0 l 1
 167 -10 177 -12 164 -12 c 0
 141 -12 107 38 107 54 c 0
 107 79 148 93 148 125 c 2
 148 274 l 1xf380
 68 317 59 398 59 429 c 0
 59 526 136 613 247 613 c 0xf580
 342 613 363 534 363 499 c 0
 363 433 311 386 250 386 c 0
 207 386 175 408 157 435 c 1
 156 431 156 428 156 424 c 0xf580
 156 401 179 331 266 331 c 0
 333 331 372 366 390 366 c 0
 406 366 427 313 427 305 c 0
 427 289 350 250 253 250 c 1
 254 111 l 2
 254 101 250 94 242 90 c 1
 468 90 l 2
 485 90 493 100 493 119 c 2
 493 598 l 1
 598 598 l 1xeb80
 598 80 l 2xf380
250 453 m 256
 277 453 296 474 296 499 c 256
 296 527 275 546 250 546 c 256
 222 546 203 525 203 499 c 256
 203 474 222 453 250 453 c 256
EndSplineSet
EndChar

StartChar: uni0E23
Encoding: 3619 3619 246
Width: 563
VWidth: 1494
Flags: W
HStem: -7 68<307.404 387.172> 154 69<307.941 368.423> 361 84<169 320.957> 481 86<432.677 523> 520 89<221.889 429.54>
VStem: 233 67<68.3289 146.398> 369 105<220 291.535> 395 79<68.0647 147.246>
LayerCount: 2
Fore
SplineSet
510 340 m 0xee
 510 311 474 313 474 248 c 2xee
 474 112 l 2xed
 474 58 449 -7 348 -7 c 0
 283 -7 233 44 233 108 c 0
 233 174 289 223 345 223 c 0
 353 223 361 222 369 220 c 1
 369 278 l 2
 369 286 372 308 378 318 c 1
 342 341 225 361 156 361 c 0
 101 361 105 345 83 345 c 0
 64 345 36 372 36 379 c 0
 36 391 78 484 136 540 c 0
 174 577 232 609 311 609 c 0xee
 404 609 419 581 540 567 c 1
 523 481 l 1xf6
 452 481 396 520 320 520 c 0
 234 520 194 488 169 445 c 1
 187 445 l 0
 287 445 372 422 436 395 c 1
 438 398 442 400 448 400 c 0
 475 400 510 363 510 340 c 0xee
348 61 m 0
 376 61 395 82 395 108 c 256xe5
 395 133 376 154 348 154 c 0
 315 154 300 129 300 108 c 256
 300 82 319 61 348 61 c 0
EndSplineSet
EndChar

StartChar: uni0E24
Encoding: 3620 3620 247
Width: 689
VWidth: 1494
Flags: W
HStem: -7 67<224.654 303.671> 154 67<242.416 303.246> 528 79<240.072 435.473>
VStem: 139 103<218 310.588> 139 78<68.1594 146.95> 311 67<67.2034 146.919> 501 103<-341 429.855>
LayerCount: 2
Fore
SplineSet
265 60 m 0xee
 290 60 311 79 311 108 c 0
 311 135 290 154 265 154 c 0
 232 154 217 129 217 108 c 0
 217 79 237 60 265 60 c 0xee
501 381 m 2
 501 425 511 436 519 444 c 1
 519 444 451 528 344 528 c 0
 224 528 182 470 160 426 c 1
 202 395 l 1
 221 418 240 430 272 442 c 1
 318 378 l 1
 256 353 242 302 242 266 c 2
 242 218 l 1xf6
 250 220 258 221 265 221 c 0
 330 221 378 170 378 108 c 256
 378 42 327 -7 265 -7 c 0
 204 -7 139 29 139 114 c 2xee
 139 271 l 2xf6
 139 295 140 317 151 332 c 1
 48 399 l 1
 87 515 186 607 341 607 c 0
 477 607 544 542 567 513 c 1
 569 516 573 518 578 518 c 0
 605 518 640 481 640 458 c 0
 640 429 604 432 604 366 c 2
 604 -341 l 1
 501 -341 l 1
 501 381 l 2
EndSplineSet
EndChar

StartChar: uni0E25
Encoding: 3621 3621 248
Width: 671
VWidth: 1494
Flags: W
HStem: -4 67<188.642 266.457> 155 63<211.64 267.217> 522 85<213.88 394.222>
VStem: 36 93<336 435.917> 110 71<69.7927 148.618> 274 67<70.3673 147.398> 487 103<0 30 214 413.439>
LayerCount: 2
Fore
SplineSet
626 463 m 0xf6
 626 434 590 434 590 371 c 2
 590 0 l 1
 487 0 l 1
 487 30 l 1
 470 71 402 235 309 339 c 1
 282 315 245 271 226 217 c 1
 232 218 237 218 243 218 c 0
 302 218 341 169 341 109 c 256
 341 42 289 -4 227 -4 c 0
 147 -4 110 70 110 122 c 0xee
 110 174 158 315 257 414 c 1
 256 417 256 420 256 423 c 0
 256 446 286 461 299 461 c 0
 347 461 459 281 487 214 c 1
 487 392 l 2
 487 395 490 440 505 448 c 1
 420 525 337 522 315 522 c 0
 199 522 129 460 129 336 c 1
 36 336 l 1
 36 487 134 607 315 607 c 0
 408 607 489 583 555 517 c 1
 557 521 561 523 567 523 c 0
 594 523 626 482 626 463 c 0xf6
227 63 m 256
 255 63 274 84 274 109 c 256
 274 137 253 155 227 155 c 0
 197 155 181 132 181 109 c 0
 181 82 202 63 227 63 c 256
EndSplineSet
EndChar

StartChar: uni0E26
Encoding: 3622 3622 249
Width: 720
VWidth: 1494
Flags: W
HStem: -13 68<119.404 198.744> 148 69<119.454 180.582> 528 79<272.871 467.567>
VStem: 45 67<62.3289 141.143> 181 105<214 312.436> 206 80<63.2897 141.149> 535 103<-342 408.767>
LayerCount: 2
Fore
SplineSet
160 55 m 0xf6
 185 55 206 74 206 102 c 256
 206 129 185 148 160 148 c 0
 127 148 112 123 112 102 c 256
 112 76 131 55 160 55 c 0xf6
82 399 m 1
 113 492 200 607 375 607 c 0
 487 607 558 567 604 517 c 1
 606 518 608 518 611 518 c 0
 642 518 674 478 674 458 c 0
 674 431 638 430 638 366 c 2
 638 -342 l 1
 535 -342 l 1
 535 392 l 2
 535 402 538 432 553 444 c 1
 541 447 484 528 378 528 c 0
 259 528 216 470 194 426 c 1
 236 395 l 1
 256 418 273 430 306 442 c 1
 353 378 l 1
 338 372 286 356 286 266 c 2xfa
 286 114 l 2xf6
 286 60 261 -13 160 -13 c 0
 95 -13 45 38 45 102 c 256
 45 165 95 217 160 217 c 0
 168 217 168 216 181 214 c 1
 181 271 l 2xfa
 181 295 182 317 193 332 c 1
 82 399 l 1
EndSplineSet
EndChar

StartChar: uni0E27
Encoding: 3623 3623 250
Width: 572
VWidth: 1494
Flags: MW
HStem: -9 69<327.404 406.689> 152 68<327.443 394.538> 517 91<195.195 338.21>
VStem: 36 97<339 455> 253 67<68.1375 144.831> 395 103<217 439.257> 414 84<67.5242 145.397>
LayerCount: 2
Fore
SplineSet
472 529 m 0
 499 529 534 491 534 469 c 0
 534 435 498 445 498 375 c 2
 498 111 l 2
 498 46 457 -9 368 -9 c 0
 303 -9 253 42 253 106 c 0
 253 174 315 220 370 220 c 0
 378 220 387 219 395 217 c 1
 395 414 l 2
 395 431 404 450 411 454 c 1
 351 517 305 517 282 517 c 0
 138 517 133 411 133 339 c 1
 36 339 l 1
 36 357 l 0
 36 475 86 608 287 608 c 0
 390 608 446 547 465 528 c 1
 467 529 469 529 472 529 c 0
368 60 m 0
 395 60 414 81 414 106 c 256
 414 134 393 152 368 152 c 0
 339 152 320 133 320 106 c 256
 320 81 339 60 368 60 c 0
EndSplineSet
EndChar

StartChar: uni0E28
Encoding: 3624 3624 251
Width: 690
VWidth: 1494
Flags: W
HStem: 0 21G<139.5 165 502 605> 226 62<309.557 382.429> 381 63<309.548 382.429> 528 80<248.854 449.227>
VStem: 81 89<221.113 453.006> 390 61<295.666 373.857> 502 103<0 430.039>
LayerCount: 2
Fore
SplineSet
344 608 m 0
 414 608 469 593 511 568 c 1
 524 584 543 603 568 624 c 2
 640 686 l 1
 701 617 l 1
 657 588 619 554 586 516 c 1
 615 508 641 478 641 458 c 0
 641 431 605 430 605 366 c 2
 605 0 l 1
 502 0 l 1
 502 381 l 2
 502 425 512 436 520 444 c 1
 518 449 474 528 347 528 c 0
 200 528 170 431 170 371 c 0
 170 303 183 265 190 220 c 1
 238 397 261 411 283 426 c 0
 300 438 320 444 342 444 c 0
 408 444 451 393 451 335 c 256
 451 277 408 226 342 226 c 0
 319 226 299 232 281 245 c 1
 206 17 178 -6 152 -6 c 0
 127 -6 94 31 94 46 c 0
 94 65 124 86 124 122 c 0
 124 165 81 249 81 366 c 0
 81 508 171 608 344 608 c 0
342 288 m 0
 371 288 390 309 390 335 c 256
 390 360 371 381 342 381 c 0
 315 381 296 360 296 335 c 256
 296 307 317 288 342 288 c 0
EndSplineSet
EndChar

StartChar: uni0E29
Encoding: 3625 3625 252
Width: 739
VWidth: 1494
Flags: W
HStem: 0 90<277 548.468> 193 71<400.595 494.897> 364 73<380.171 468.24> 383 67<119.71 173.409 165.869 180.949> 546 67<120.872 197.572>
VStem: 43 69<457.327 538.502> 181 106<103.279 384> 206 81<457.688 537.969> 303 70<277.481 355.684> 549 106<90.2164 119 119 244 319.838 598>
LayerCount: 2
Fore
SplineSet
158 450 m 0xddc0
 187 450 206 472 206 498 c 256
 206 522 188 546 158 546 c 0
 131 546 112 522 112 498 c 256
 112 470 133 450 158 450 c 0xddc0
150 383 m 0
 96 383 43 432 43 498 c 0
 43 564 96 613 158 613 c 0
 261 613 287 549 287 493 c 2xddc0
 287 113 l 2
 287 111 287 100 277 90 c 1
 523 90 l 2
 542 90 549 102 549 119 c 2
 549 244 l 1
 530 211 490 193 447 193 c 0
 370 193 303 233 303 317 c 0
 303 406 378 437 424 437 c 0
 484 437 498 390 498 388 c 0
 498 370 469 349 456 349 c 0
 437 349 449 364 422 364 c 0
 396 364 373 348 373 318 c 0
 373 271 425 264 437 264 c 0
 494 264 539 321 549 372 c 1
 549 598 l 1
 655 598 l 1
 655 80 l 2
 655 16 596 0 561 0 c 2
 229 0 l 1
 208 -8 205 -10 199 -10 c 0
 175 -10 140 37 140 54 c 0
 140 78 181 97 181 125 c 2
 181 384 l 1xeec0
 175 383 172 383 150 383 c 0
EndSplineSet
EndChar

StartChar: uni0E2A
Encoding: 3626 3626 253
Width: 671
VWidth: 1494
Flags: W
HStem: -4 67<188.642 266.457> 155 63<211.64 267.217> 522 85<213.88 394.163>
VStem: 36 93<336 435.917> 110 71<69.7927 148.618> 274 67<70.3673 147.398> 487 103<0 30 214 413.439>
LayerCount: 2
Fore
SplineSet
626 463 m 0xf6
 626 434 590 434 590 371 c 2
 590 0 l 1
 487 0 l 1
 487 30 l 1
 470 71 402 235 309 339 c 1
 282 315 245 271 226 217 c 1
 232 218 237 218 243 218 c 0
 302 218 341 169 341 109 c 256
 341 42 289 -4 227 -4 c 0
 147 -4 110 70 110 122 c 0xee
 110 174 158 315 257 414 c 1
 256 417 256 420 256 423 c 0
 256 446 286 461 299 461 c 0
 347 461 459 281 487 214 c 1
 487 392 l 2
 487 395 490 440 505 448 c 1
 420 525 337 522 315 522 c 0
 199 522 129 460 129 336 c 1
 36 336 l 1
 36 487 134 607 315 607 c 0
 392 607 446 591 493 564 c 1
 510 584 558 628 588 654 c 2
 625 686 l 1
 686 617 l 1
 647 588 607 555 575 520 c 1
 609 507 626 476 626 463 c 0xf6
227 63 m 256
 255 63 274 84 274 109 c 256
 274 137 253 155 227 155 c 0
 197 155 181 132 181 109 c 0
 181 82 202 63 227 63 c 256
EndSplineSet
EndChar

StartChar: uni0E2B
Encoding: 3627 3627 254
Width: 721
VWidth: 1494
Flags: W
HStem: 0 21G<187.5 204.5 540 644> 383 67<117.505 172.591> 543 67<117.319 196.01 481.182 573.533>
VStem: 43 68<456.973 536.54> 173 105<212 384> 203 75<456.754 536.103> 390 76<443.366 527.151> 540 104<0 326.714> 589 76<443.486 527.49>
LayerCount: 2
Fore
SplineSet
134 54 m 0xf3
 134 77 173 99 173 130 c 2
 173 384 l 1xfb
 169 383 164 383 157 383 c 0
 95 383 43 429 43 496 c 256
 43 568 102 608 155 610 c 0
 253 610 278 544.012 278 501 c 2xf6
 278 212 l 1
 431 398 l 1
 404 421 390 451 390 486 c 0
 390 550 446 610 528 610 c 256
 598 610 665 559 665 486 c 0xfa80
 665 443 640 402 613 387 c 1
 627 368 656 360 656 328 c 0
 656 311 644 293 644 272 c 2
 644 0 l 1
 540 0 l 1
 540 281 l 2
 540 309 542 321 547 327 c 1
 539 339 534 348 507 357 c 1
 230 10 l 2
 226 4 211 -9 198 -9 c 0
 177 -9 134 32 134 54 c 0xf3
157 450 m 0
 184 450 203 471 203 496 c 256xf6
 203 524 182 543 157 543 c 0
 129 543 111 524 111 496 c 256
 111 470 128 450 157 450 c 0
528 541 m 256
 493 541 466 516 466 486 c 256
 466 455 493 430 528 430 c 256
 562 430 589 455 589 486 c 256xf280
 589 516 562 541 528 541 c 256
EndSplineSet
EndChar

StartChar: uni0E2C
Encoding: 3628 3628 255
Width: 804
VWidth: 1494
Flags: W
HStem: -10 21G<176 190.5 626 642> 378 69<112.367 172.423> 540 68<112.481 190.676> 541 79<524.882 595.63> 716 82<525.117 604.684>
VStem: 37 68<454.454 532.026> 173 102<239 381> 199 76<453.754 532.935> 435 81<628.719 707.87> 601 103<229 544>
LayerCount: 2
Fore
SplineSet
152 608 m 0xeec0
 250 608 275 543 275 489 c 2xedc0
 275 239 l 1
 399 487 l 2
 410 507 415 514 436 514 c 256
 458 514 463 507 474 487 c 2
 601 229 l 1
 601 544 l 1
 592 540 583 541 568 541 c 0xdec0
 496 541 435 593 435 670 c 256
 435 747 497 798 568 798 c 0
 626 798 673 766 692 718 c 1
 714 736 733 758 743 768 c 1
 810 691 l 1
 704 593 l 1
 704 96 l 2
 704 84 708 43 712 24 c 1
 708 1 699 5 677 -3 c 0
 660 -8 647 -10 637 -10 c 0
 615 -10 605 6 601 16 c 2
 435 344 l 1
 288 64 l 2
 261 13 228 6 200 -9 c 1
 196 -10 192 -11 189 -11 c 0
 163 -11 131 31 131 46 c 0
 131 71 173 85 173 117 c 2
 173 381 l 1
 165 379 157 378 149 378 c 0
 93 378 37 427 37 493 c 0
 37 559 90 608 152 608 c 0xeec0
152 447 m 0
 180 447 199 468 199 493 c 256
 199 521 178 540 152 540 c 0
 124 540 105 519 105 493 c 256
 105 468 124 447 152 447 c 0
565 620 m 0xdcc0
 592 620 613 644 613 668 c 256
 613 696 590 716 565 716 c 0
 534 716 516 692 516 668 c 256
 516 643 536 620 565 620 c 0xdcc0
EndSplineSet
Substitution2: "Single Substitution lookup 22 subtable" uni0E2C.alt1
Substitution2: "Single Substitution lookup 22 subtable" uni0E2C.alt1
EndChar

StartChar: uni0E2D
Encoding: 3629 3629 256
Width: 680
VWidth: 1494
Flags: W
HStem: 0 90<260 483.47> 199 67<266.576 321.862> 360 68<245.375 322.74> 520 87<213.154 436.456>
VStem: 24 88<330 423.518> 163 103<100.409 200> 163 75<273.045 351.217> 330 69<273.404 352.981> 493 103<90.0973 411.558>
LayerCount: 2
Fore
SplineSet
284 266 m 256xfb80
 309 266 330 285 330 314 c 0
 330 341 309 360 284 360 c 256
 257 360 238 339 238 314 c 0
 238 281 263 266 284 266 c 256xfb80
326 607 m 0
 465 607 531 551 559 517 c 1
 561 521 565 522 570 522 c 0
 596 522 632 482 632 461 c 0
 632 434 596 433 596 369 c 2
 596 79 l 2
 596 16 541 0 505 0 c 2
 212 0 l 1
 212 0 185 -12 180 -12 c 0
 156 -12 124 39 124 54 c 0
 124 75 163 94 163 124 c 2xfd80
 163 308 l 2xfb80
 163 380 219 425 284 428 c 0
 351 428 399 376 399 314 c 256
 399 249 348 199 284 199 c 0
 276 199 270 199 266 200 c 1
 266 111 l 2xfd80
 266 103 261 90 260 90 c 1
 468 90 l 2
 483 90 493 95 493 117 c 2
 493 383 l 2
 493 402 495 428 511 444 c 1
 508 452 447 520 326 520 c 0
 171 520 112 436 112 330 c 1
 24 330 l 1
 24 513 156 607 326 607 c 0
EndSplineSet
EndChar

StartChar: uni0E2E
Encoding: 3630 3630 257
Width: 621
VWidth: 1494
Flags: W
HStem: 0 88<187 434.523> 146 68<196.605 253.042> 308 67<175.34 252.204> 393 81<158.729 376.313> 534 77<169.519 357.148>
VStem: 93 74<220.754 300.786> 260 69<221.314 300.345> 435 105<88.1169 117 117 426>
LayerCount: 2
Fore
SplineSet
214 214 m 256
 241 214 260 235 260 260 c 0
 260 293 235 308 214 308 c 256
 188 308 167 289 167 260 c 0
 167 235 186 214 214 214 c 256
158 498 m 0
 158 489 171 474 227 474 c 0
 301 474 358 484 398 504 c 1
 367 522 324 534 271 534 c 0
 202 534 158 517 158 498 c 0
540 79 m 2
 540 15 480 0 447 0 c 2
 141 0 l 1
 141 0 116 -12 110 -12 c 0
 87 -12 53 38 53 54 c 0
 53 77 93 93 93 124 c 2
 93 254 l 2
 93 327 150 374 214 375 c 0
 279 375 329 324 329 260 c 256
 329 193 276 146 214 146 c 0
 206 146 200 147 196 148 c 1
 196 111 l 2
 196 103 191 88 187 88 c 1
 410 88 l 2
 427 88 435 98 435 117 c 2
 435 426 l 1
 434 431 431 434 428 436 c 1
 369 409 318 393 244 393 c 0
 92 393 49 457 49 499 c 256
 49 544 92 611 271 611 c 0
 320 611 411 606 468 559 c 1
 494 588 526 645 538 668 c 1
 613 626 l 1
 594 581 560 530 529 504 c 1
 548 496 571 473 571 452 c 0
 571 428 540 420 540 398 c 2
 540 79 l 2
EndSplineSet
EndChar

StartChar: uni0E2F
Encoding: 3631 3631 258
Width: 620
VWidth: 1494
Flags: MW
HStem: -8 21G<445 459.5> 332 84<256 330.395> 540 68<131.604 210.686>
VStem: 57 67<454.854 532.871> 218 68<453.601 532.519> 441 100<85.4604 411>
LayerCount: 2
Fore
SplineSet
552 592 m 1
 546 566 541 558 541 550 c 2
 541 111 l 2
 541 72 545 47 486 3 c 1
 462 -9 461 -8 458 -8 c 0
 432 -8 399 41 399 56 c 0
 399 75 441 93 441 124 c 2
 441 411 l 1
 361 343 277 332 233 332 c 0
 155 332 57 386 57 493 c 0
 57 558 108 608 172 608 c 256
 239 608 286 555 286 493 c 0
 286 464 276 439 256 416 c 1
 328 419 438 483 468 620 c 1
 552 592 l 1
172 447 m 0
 199 447 218 468 218 493 c 256
 218 521 197 540 172 540 c 0
 143 540 124 519 124 493 c 256
 124 468 143 447 172 447 c 0
EndSplineSet
EndChar

StartChar: uni0E30
Encoding: 3632 3632 259
Width: 569
VWidth: 1494
Flags: MW
HStem: 0 84<117.776 251.656> 177 68<117.294 195.186> 339 85<117.451 251.69> 517 67<117.584 194.724>
VStem: 43 67<91.7072 170.588 430.895 508.282> 203 67<99.4131 169.314 447.689 509.639>
LayerCount: 2
Fore
SplineSet
263 433 m 1
 311 441 394 471 428 580 c 1
 513 544 l 1
 482 418 346 339 216 339 c 0
 111 339 43 392 43 470 c 0
 43 528 88 584 157 584 c 0
 221 584 270 527 270 470 c 0
 270 458 268 446 263 433 c 1
203 468 m 0
 203 500 179 517 158 517 c 0
 132 517 110 497 110 472 c 0
 110 434 138 424 153 424 c 0
 192 424 203 452 203 468 c 0
263 94 m 1
 314 102 395 133 428 241 c 1
 513 205 l 1
 482 79 347 0 216 0 c 0
 111 0 43 53 43 131 c 0
 43 189 88 245 157 245 c 0
 224 245 270 184 270 131 c 0
 270 119 268 107 263 94 c 1
203 129 m 0
 203 155 183 177 158 177 c 0
 123 177 110 151 110 133 c 0
 110 98 135 84 154 84 c 0
 186 84 203 108 203 129 c 0
EndSplineSet
EndChar

StartChar: uni0E31
Encoding: 3633 3633 260
Width: 0
VWidth: 1494
Flags: W
HStem: 724 85<-224.946 -41.7011> 912 67<-306.768 -228.834>
VStem: -381 67<826.368 904.114> -221 67<835.228 904.457>
LayerCount: 2
Fore
SplineSet
-139 809 m 0
 -9 809 63 908 97 991 c 1
 179 957 l 1
 156 892 122 842 78 808 c 0
 15 757 -60 724 -153 724 c 0
 -212 724 -278 740 -321 765 c 0
 -352 783 -381 819 -381 865 c 0
 -381 932 -329 979 -268 979 c 256
 -201 979 -154 927 -154 865 c 0
 -154 846 -166 819 -173 812 c 1
 -162 810 -151 809 -139 809 c 0
-268 819 m 256
 -240 819 -221 840 -221 865 c 256
 -221 893 -242 912 -268 912 c 256
 -293 912 -314 893 -314 865 c 256
 -314 838 -293 819 -268 819 c 256
EndSplineSet
Substitution2: "Single Substitution lookup 22 subtable" uni0E31.alt1
Substitution2: "Single Substitution lookup 22 subtable" uni0E31.alt1
EndChar

StartChar: uni0E32
Encoding: 3634 3634 261
Width: 556
VWidth: 1494
Flags: W
HStem: 0 21G<380 481> 517 91<175.173 323.036>
VStem: 22 98<398.743 479.248> 380 101<0 439.626>
LayerCount: 2
Fore
SplineSet
517 469 m 0
 517 439 481 441 481 375 c 2
 481 0 l 1
 380 0 l 1
 380 407 l 2
 380 438 390 450 396 454 c 1
 336 517 290 517 267 517 c 0
 217 517 128 508 120 392 c 1
 22 392 l 1
 30 473 72 608 272 608 c 0
 375 608 429 547 448 528 c 1
 450 529 453 529 455 529 c 0
 485 529 517 487 517 469 c 0
EndSplineSet
EndChar

StartChar: uni0E33
Encoding: 3635 3635 262
Width: 556
VWidth: 1494
Flags: W
HStem: 0 21<380 481> 517 91<175.173 323.036> 734 69<-208.213 -122.164> 912 70<-207.068 -122.346>
VStem: -288 70<825.818 888.935> -111 70<825.256 889.37> 22 98<398.743 479.248> 380 101<0 439.626>
LayerCount: 2
Back
SplineSet
-181 707 m 256
 -207.667 707 -230.333 713.167 -249 725.5 c 128
 -267.667 737.833 -281.667 753 -291 771 c 128
 -300.333 789 -305 809 -305 831 c 128
 -305 853 -300.333 873 -291 891 c 128
 -281.667 909 -268 924.167 -250 936.5 c 128
 -232 948.833 -209 955 -181 955 c 0
 -154.333 955 -131.667 948.833 -113 936.5 c 128
 -94.3333 924.167 -80.5 909 -71.5 891 c 128
 -62.5 873 -57.8333 853 -57.5 831 c 128
 -57.1667 809 -61.6667 789 -71 771 c 128
 -80.3333 753 -94.3333 737.833 -113 725.5 c 128
 -131.667 713.167 -154.333 707 -181 707 c 256
-181 776 m 256
 -163 776 -149.5 781.667 -140.5 793 c 128
 -131.5 804.333 -127 816.833 -127 830.5 c 128
 -127 844.167 -131.5 856.667 -140.5 868 c 128
 -149.5 879.333 -163 885 -181 885 c 256
 -199 885 -212.5 879.333 -221.5 868 c 128
 -230.5 856.667 -235 844.167 -235 830.5 c 128
 -235 816.833 -230.5 804.333 -221.5 793 c 128
 -212.5 781.667 -199 776 -181 776 c 256
481 0 m 1
 380 0 l 1
 380 407 l 2
 378.667 415 379.833 424.167 383.5 434.5 c 128
 387.167 444.833 391.333 451.333 396 454 c 1
 381.333 469.333 363 484.167 341 498.5 c 128
 319 512.833 290 519 254 517 c 0
 228 516.333 206.833 512 190.5 504 c 128
 174.167 496 161 486 151 474 c 128
 141 462 133.5 448.833 128.5 434.5 c 128
 123.5 420.167 120.667 406 120 392 c 1
 22 392 l 1
 28 455.333 50.5 506.667 89.5 546 c 128
 128.5 585.333 184 606 256 608 c 0
 280.667 609.333 302.667 607.667 322 603 c 128
 341.333 598.333 358.833 592.333 374.5 585 c 128
 390.167 577.667 403.833 568.833 415.5 558.5 c 128
 427.167 548.167 438 538 448 528 c 1
 453.333 530 460.5 529.5 469.5 526.5 c 128
 478.5 523.5 488.333 516 499 504 c 0
 507 494.667 512.333 486.833 515 480.5 c 128
 517.667 474.167 518.167 468.167 516.5 462.5 c 128
 514.833 456.833 512 451.5 508 446.5 c 128
 504 441.5 499.667 435.667 495 429 c 256
 489.667 422.333 486 415.167 484 407.5 c 128
 482 399.833 481 389 481 375 c 2
 481 0 l 1
EndSplineSet
Fore
Refer: 284 3661 N 1 0 0 1 0 0 2
Refer: 261 3634 N 1 0 0 1 0 0 2
Substitution2: "Single Substitution lookup 22 subtable" uni0E33.alt1
Substitution2: "Single Substitution lookup 22 subtable" uni0E33.alt1
EndChar

StartChar: uni0E34
Encoding: 3636 3636 263
Width: 0
VWidth: 1494
Flags: W
HStem: 703 63<-479.898 -236.967> 845 72<-431.589 -260.525>
LayerCount: 2
Fore
SplineSet
-577 691 m 0
 -597 691 -617 716 -617 737 c 0
 -617 746 -609 746 -577 783 c 0
 -555 817 -487 917 -352 917 c 0
 -253 917 -153 883 -91 734 c 0
 -89 729 -85 717 -85 709 c 0
 -85 698.917 -108.124 654 -131 654 c 0
 -146 654 -265 703 -421 703 c 0
 -493 703 -573 691 -577 691 c 0
-164 723 m 1
 -210 811 -288 845 -336 845 c 0
 -434 845 -473 796 -499 759 c 1
 -464 763 -431 766 -398 766 c 0
 -328 766 -253 755 -164 723 c 1
EndSplineSet
Substitution2: "Single Substitution lookup 22 subtable" uni0E34.alt1
Substitution2: "Single Substitution lookup 22 subtable" uni0E34.alt1
EndChar

StartChar: uni0E35
Encoding: 3637 3637 264
Width: 0
VWidth: 1494
Flags: MW
HStem: 702 64<-481.46 -232.688> 845 72<-429.849 -261.105>
VStem: -214 88<874 975>
LayerCount: 2
Fore
SplineSet
-126 789 m 1
 -100 754 -82 723 -82 708 c 0
 -82 693 -113 654 -129 654 c 0
 -139 654 -268 702 -433 702 c 0
 -499 702 -573 691 -577 691 c 0
 -597 691 -617 716 -617 737 c 0
 -617 757 -587 762 -578 783 c 1
 -517 870 -443 917 -353 917 c 0
 -305 917 -260 905 -214 874 c 1
 -214 975 l 1
 -126 975 l 1
 -126 789 l 1
-164 723 m 1
 -210 811 -288 845 -336 845 c 0
 -422 845 -461 810 -499 759 c 1
 -464 763 -431 766 -398 766 c 0
 -328 766 -253 755 -164 723 c 1
EndSplineSet
Substitution2: "Single Substitution lookup 22 subtable" uni0E35.alt1
Substitution2: "Single Substitution lookup 22 subtable" uni0E35.alt1
EndChar

StartChar: uni0E36
Encoding: 3638 3638 265
Width: 0
VWidth: 1494
Flags: MW
HStem: 702 64<-481.649 -233.148> 845 72<-403.897 -284.516> 926 60<-212.318 -141.37>
VStem: -138 63<852.631 922.848>
LayerCount: 2
Fore
SplineSet
-88 732 m 2
 -86 716 -85 720 -85 712 c 0
 -85 679 -104 673 -116 658 c 0
 -118 655 -121 654 -125 654 c 0
 -133 654 -265 702 -428 702 c 0
 -496 702 -574 690 -576 690 c 0
 -593 690 -616 717 -616 737 c 0
 -616 757 -589 761 -577 785 c 0
 -520 869 -443 917 -353 917 c 0
 -319 917 -292 913 -268 901 c 1
 -268 946 -228 986 -175 986 c 0
 -132 986 -82 957 -75 897 c 0
 -75 860 -89 826 -139 809 c 1
 -113 776 l 2
 -104 766 -96 752 -88 734 c 1
 -88 732 l 2
-176 849 m 0
 -161 849 -138 858 -138 891 c 256
 -138 912 -154 926 -177 926 c 0
 -202 926 -216 907 -216 890 c 0
 -216 866 -195 849 -176 849 c 0
-164 723 m 1
 -210 811 -288 845 -336 845 c 0
 -375 845 -448 840 -499 759 c 1
 -464 763 -431 766 -398 766 c 0
 -328 766 -253 755 -164 723 c 1
EndSplineSet
Substitution2: "Single Substitution lookup 22 subtable" uni0E36.alt1
Substitution2: "Single Substitution lookup 22 subtable" uni0E36.alt1
EndChar

StartChar: uni0E37
Encoding: 3639 3639 266
Width: 0
VWidth: 1494
Flags: MW
HStem: 701 65<-480.77 -232.89> 845 71<-404.23 -300.243>
VStem: -293 75<909 975> -172 78<848 975>
LayerCount: 2
Fore
SplineSet
-94 738 m 1
 -91 732 -85 716 -85 707 c 0
 -85 682 -111 666 -120 656 c 1
 -121 654 -123 654 -125 654 c 0
 -144 654 -245 701 -421 701 c 0
 -510 701 -576 691 -577 691 c 0
 -601 691 -617 717 -617 735 c 0
 -617 751 -602 752 -578 783 c 0
 -510 878 -441 916 -349 916 c 0
 -316 916 -309 914 -293 909 c 1
 -293 975 l 1
 -218 975 l 1
 -218 880 l 1
 -188 865 -179 856 -172 848 c 1
 -172 975 l 1
 -94 975 l 1
 -94 738 l 1
-164 723 m 1
 -210 811 -288 845 -336 845 c 0
 -379 845 -444 840 -499 759 c 1
 -464 763 -431 766 -398 766 c 0
 -328 766 -253 755 -164 723 c 1
EndSplineSet
Substitution2: "Single Substitution lookup 22 subtable" uni0E37.alt1
Substitution2: "Single Substitution lookup 22 subtable" uni0E37.alt1
EndChar

StartChar: uni0E38
Encoding: 3640 3640 267
Width: 0
VWidth: 1494
Flags: W
HStem: -290 63<-237.021 -175.37> -132 63<-236.242 -156.098>
VStem: -306 62<-219.551 -139.76> -175 96<-413 -288> -148 69<-219.459 -140.981>
LayerCount: 2
Fore
SplineSet
-196 -69 m 0xf0
 -126 -69 -79 -101 -79 -200 c 2xe8
 -79 -413 l 1
 -175 -413 l 1
 -175 -288 l 1
 -182 -289 -189 -290 -197 -290 c 0
 -252 -290 -306 -245 -306 -179 c 0
 -306 -115 -256 -69 -196 -69 c 0xf0
-196 -227 m 0
 -170 -227 -148 -208 -148 -179 c 0
 -148 -154 -168 -132 -196 -132 c 0
 -225 -132 -244 -154 -244 -179 c 0
 -244 -208 -224 -227 -196 -227 c 0
EndSplineSet
Substitution2: "Single Substitution lookup 21 subtable" a
Substitution2: "Single Substitution lookup 22 subtable" uni0E38.alt1
Substitution2: "Single Substitution lookup 21 subtable" a
Substitution2: "Single Substitution lookup 22 subtable" uni0E38.alt1
EndChar

StartChar: uni0E39
Encoding: 3641 3641 268
Width: 0
VWidth: 1494
Flags: MW
HStem: -398 80<-281 -181.259> -287 61<-431.583 -359.714> -130 61<-431.376 -351.442>
VStem: -501 62<-217.85 -136.418> -344 73<-218.467 -139.149> -181 97<-317.917 -105 -105 -77.5436>
LayerCount: 2
Fore
SplineSet
-133 -75 m 256
 -89 -75 -84 -87 -84 -105 c 2
 -84 -327 l 2
 -84 -384 -133 -398 -169 -398 c 2
 -308 -398 l 1
 -321 -405 -334 -408 -340 -408 c 0
 -360 -408 -383 -372 -383 -360 c 0
 -383 -342 -368 -347 -354 -315 c 1
 -354 -280 l 1
 -366 -285 -379 -287 -391 -287 c 0
 -446 -287 -501 -242 -501 -178 c 0
 -501 -114 -449 -69 -392 -69 c 0
 -295 -69 -271 -132 -271 -191 c 2
 -271 -297 l 2
 -271 -305 -278 -315 -281 -318 c 1
 -205 -318 l 2
 -191 -318 -181 -311 -181 -291 c 2
 -181 -105 l 2
 -181 -86 -175 -75 -133 -75 c 256
-392 -226 m 256
 -362 -226 -344 -202 -344 -178 c 0
 -344 -149 -364 -130 -392 -130 c 256
 -420 -130 -439 -149 -439 -178 c 0
 -439 -203 -421 -226 -392 -226 c 256
EndSplineSet
Substitution2: "Single Substitution lookup 21 subtable" b
Substitution2: "Single Substitution lookup 22 subtable" uni0E39.alt1
Substitution2: "Single Substitution lookup 21 subtable" b
Substitution2: "Single Substitution lookup 22 subtable" uni0E39.alt1
EndChar

StartChar: uni0E3A
Encoding: 3642 3642 269
Width: 0
VWidth: 1494
Flags: W
HStem: -224 146<-190.929 -84.6455>
VStem: -211 147<-203.675 -98.9153>
LayerCount: 2
Fore
SplineSet
-64 -151 m 0
 -64 -178 -82 -224 -138 -224 c 256
 -191 -224 -211 -180 -211 -151 c 0
 -211 -122 -191 -78 -138 -78 c 256
 -79 -78 -64 -128 -64 -151 c 0
EndSplineSet
Substitution2: "Single Substitution lookup 21 subtable" c
Substitution2: "Single Substitution lookup 22 subtable" uni0E3A.alt1
Substitution2: "Single Substitution lookup 21 subtable" c
Substitution2: "Single Substitution lookup 22 subtable" uni0E3A.alt1
EndChar

StartChar: uni0E3F
Encoding: 3647 3647 270
Width: 630
VWidth: 1494
Flags: W
HStem: 0 100<200 275 338 440.896> 318 99<202 275> 608 104<202 275 338 415.188>
VStem: 102 100<100 318 417 607.276> 275 63<-120 0 100 318 419 608 712 842> 435 100<457.586 588.264> 474 100<133.713 277.044>
LayerCount: 2
Fore
SplineSet
275 417 m 1xf8
 275 608 l 1
 202 608 l 1
 202 417 l 1
 275 417 l 1xf8
338 419 m 1
 364 423 435 439 435 520 c 0xfc
 435 582 415 607 338 608 c 1
 338 419 l 1
275 100 m 1
 275 318 l 1
 200 318 l 1
 200 100 l 1
 275 100 l 1
350 100 m 2
 445 100 474 133 474 214 c 0xfa
 474 256 458 312 338 318 c 1
 338 100 l 1
 350 100 l 2
115 724 m 0
 120 724 131 719 145 712 c 1
 275 712 l 1
 275 842 l 1
 338 842 l 1
 338 712 l 1
 448 712 535 637 535 525 c 0xfc
 535 454 506 408 466 380 c 1
 504 362 574 314 574 215 c 0
 574 82 503 0 375 0 c 2
 338 0 l 1
 338 -120 l 1
 275 -120 l 1
 275 0 l 1
 102 0 l 1
 102 589 l 2
 102 619 56 638 56 662 c 0
 56 678 90 724 115 724 c 0
EndSplineSet
EndChar

StartChar: uni0E40
Encoding: 3648 3648 271
Width: 366
VWidth: 1494
Flags: W
HStem: -7 67<180.33 258.919> 152 69<199.576 259.22> 578 20G<94 199>
VStem: 94 105<218 598> 94 79<68.6632 145.944> 266 67<67.3673 145.356>
LayerCount: 2
Fore
SplineSet
220 221 m 0xf4
 288 221 333 167 333 106 c 256
 333 39 282 -7 220 -7 c 0
 137 -7 94 47 94 112 c 2xec
 94 598 l 1
 199 598 l 1
 199 218 l 1
 207 221 212 221 220 221 c 0xf4
220 60 m 256
 247 60 266 81 266 106 c 0
 266 135 246 152 220 152 c 256
 192 152 173 134 173 106 c 0
 173 81 192 60 220 60 c 256
EndSplineSet
EndChar

StartChar: uni0E41
Encoding: 3649 3649 272
Width: 651
VWidth: 1494
Flags: W
HStem: -7 67<180.33 258.919 469.328 547.457> 152 69<199.576 259.22 487.585 549.016> 578 20G<94 199 383 487>
VStem: 94 105<218 598> 94 79<68.6632 145.944> 266 67<67.3673 145.356> 383 104<218 598> 383 79<68.2511 146.177> 555 67<67.3673 145.44>
LayerCount: 2
Fore
SplineSet
508 221 m 0xe680
 575 221 622 168 622 106 c 256
 622 39 570 -7 508 -7 c 0
 428 -7 383 46 383 112 c 2xe580
 383 598 l 1
 487 598 l 1
 487 218 l 1
 495 221 500 221 508 221 c 0xe680
220 221 m 0
 288 221 333 167 333 106 c 256
 333 39 282 -7 220 -7 c 0
 137 -7 94 47 94 112 c 2xec80
 94 598 l 1
 199 598 l 1
 199 218 l 1xf480
 207 221 212 221 220 221 c 0
508 60 m 256
 536 60 555 81 555 106 c 0
 555 134 536 152 508 152 c 256
 482 152 462 135 462 106 c 0xe580
 462 79 483 60 508 60 c 256
220 60 m 256
 247 60 266 81 266 106 c 0
 266 135 246 152 220 152 c 256
 192 152 173 134 173 106 c 0xec80
 173 81 192 60 220 60 c 256
EndSplineSet
EndChar

StartChar: uni0E42
Encoding: 3650 3650 273
Width: 415
VWidth: 1494
Flags: W
HStem: -9 69<247.807 320.775> 148 69<272.502 321.659> 1049 87<137.875 305.753>
VStem: 170 71<66.7529 142.659> 170 102<217 764.275> 327 71<66.1849 142.779>
LayerCount: 2
Fore
SplineSet
22 879 m 0xec
 22 877 11 868 3 868 c 0
 -5 868 -4 872 -34 883 c 0
 -50 890 -58 901 -58 916 c 0
 -58 947 -33 967 6 1021 c 0
 77 1117 162 1136 231 1136 c 0
 386 1136 457 1011 489 957 c 1
 404 918 l 1
 390 939 337 1049 230 1049 c 0
 134 1049 112 1007 67 958 c 1
 223 925 273 836 278 833 c 0
 287 826 294 817 294 807 c 0
 294 779 273 762 272 761 c 1
 272 217 l 1xec
 284 217 l 2
 350 217 398 165 398 105 c 0
 398 38 346 -9 284 -9 c 0
 218 -9 170 52 170 90 c 2xf4
 170 804 l 1
 133 842 89 867 24 882 c 1
 22 881 21 880 21 880 c 1
 21 879 22 880 22 879 c 0xec
284 60 m 256
 308 60 327 78 327 105 c 0
 327 131 307 148 284 148 c 256
 258 148 241 128 241 105 c 0xf4
 241 78 260 60 284 60 c 256
EndSplineSet
EndChar

StartChar: uni0E43
Encoding: 3651 3651 274
Width: 417
VWidth: 1494
Flags: W
HStem: -7 70<248.356 322.578> 149 69<274.77 280 277.385 322.578> 754 80<75.3025 174.452> 912 75<118.275 142.078 130.098 181.251> 1054 82<115.526 284.705>
VStem: -34 80<865.227 986.652> 172 102<218 602> 172 70<69.1243 143.141> 195 79<843.885 911.831> 329 70<69.9988 142.047> 374 93<848.323 963.377>
LayerCount: 2
Fore
SplineSet
286 63 m 256xfd40
 308 63 329 81 329 106 c 256
 329 131 308 149 286 149 c 256
 261 149 242 129 242 106 c 256
 242 83 261 63 286 63 c 256xfd40
171 987 m 0
 244 987 274 933 274 884 c 0
 274 811 203 754 126 754 c 0
 74 754 -34 787 -34 916 c 0
 -34 1048 70 1136 205 1136 c 0
 415 1136 467 976 467 863 c 0
 467 795 448 791 429 783 c 0
 392 761 309 700 274 650 c 1xfca0
 274 218 l 1xfe
 279 218 281 220 286 220 c 0
 347 220 399 172 399 106 c 256
 399 40 347 -7 286 -7 c 0
 222 -7 172 42 172 101 c 2xfd40
 172 602 l 1xfe
 162 615 147 625 147 647 c 0
 147 660 155 672 179 692 c 0
 204 719 292 797 369 852 c 1
 373 862 374 873 374 885 c 0
 374 962 309 1054 200 1054 c 0
 96 1054 46 976 46 924 c 0
 46 870 85 834 135 834 c 0
 159 834 195 842 195 881 c 0xfca0
 195 909 167 916 155 916 c 0
 141 916 139 912 134 912 c 0
 127 912 115 925 115 946 c 0
 115 979 134 987 171 987 c 0
EndSplineSet
EndChar

StartChar: uni0E44
Encoding: 3652 3652 275
Width: 415
VWidth: 1494
Flags: W
HStem: -7 67<245.167 322.702> 148 70<272.705 321.739> 1018 69<-51 46.8578>
VStem: 146 126<612.802 673> 170 69<67.9808 141.601> 170 102<218 610> 329 69<67.1544 141.402>
LayerCount: 2
Fore
SplineSet
-51 1087 m 1xf2
 8 1072 115 1018 151 952 c 1
 200 1038 336 1083 343 1083 c 0
 396 1083 513 901 513 859 c 0
 513 842 499 816 448 816 c 1
 412 800 319 737 272 673 c 1xf2
 272 218 l 1xe6
 284 218 l 2
 350 218 398 166 398 106 c 0
 398 39 346 -7 284 -7 c 256
 222 -7 170 39 170 106 c 2xea
 170 610 l 1xe6
 157 625 146 639 146 657 c 0
 146 672 155 687 158 694 c 1
 193 735 291 841 402 888 c 1
 400 912 362 968 327 987 c 1
 311 980 190 923 187 851 c 1
 179 840 168 834 154 834 c 0
 135 834 107 843 107 857 c 0
 107 859 108 860 108 865 c 0
 108 868 107 873 106 877 c 1
 67 944 -0 991 -97 1018 c 1
 -51 1087 l 1xf2
284 60 m 256
 304 60 329 75 329 105 c 0
 329 128 309 148 284 148 c 256
 259 148 239 128 239 105 c 0xea
 239 77 260 60 284 60 c 256
EndSplineSet
EndChar

StartChar: uni0E45
Encoding: 3653 3653 276
Width: 557
VWidth: 1494
Flags: W
HStem: 517 91<175.173 323.036>
VStem: 22 98<398.743 479.248> 380 101<-341 439.626>
LayerCount: 2
Fore
SplineSet
517 469 m 0
 517 439 481 441 481 375 c 2
 481 -341 l 1
 380 -341 l 1
 380 407 l 2
 380 438 390 450 396 454 c 1
 336 517 290 517 267 517 c 0
 217 517 128 508 120 392 c 1
 22 392 l 1
 30 473 72 608 272 608 c 0
 375 608 429 547 448 528 c 1
 450 529 453 529 455 529 c 0
 485 529 517 487 517 469 c 0
EndSplineSet
EndChar

StartChar: uni0E46
Encoding: 3654 3654 277
Width: 638
VWidth: 1494
Flags: W
HStem: 278 69<142.261 217.031> 435 63<142.297 217.17> 534 76<158.692 262.404 412.808 486.268>
VStem: 56 80<353.192 467.65> 223 70<353.634 428.986> 436 101<-281.151 -263 -263 404.161>
LayerCount: 2
Fore
SplineSet
400 -301 m 0
 400 -287 429 -280 436 -241 c 1
 436 318 l 2
 436 391 469 451 490 472 c 1
 490 479 452 528 441 528 c 0
 435 528 404 499 396 490 c 1
 399 482 400 475 400 469 c 0
 400 449 364 431 352 431 c 0
 325 431 333 464 290 503 c 0
 256 534 222 534 215 534 c 0
 171 534 152 508 142 481 c 1
 151 487 168 498 195 498 c 0
 242 498 293 461 293 390 c 0
 293 329 245 278 179 278 c 0
 105 278 56 345 56 431 c 0
 56 542 138 610 231 610 c 0
 282 610 325 589 359 550 c 1
 401 592 448 611 470 611 c 0
 506 611 548 555 553 547 c 1
 587 547 613 501 613 489 c 0
 613 444 537 438 537 306 c 2
 537 -263 l 2
 537 -271 538 -282 525 -302 c 1
 481 -346 465 -360 450 -360 c 0
 426 -360 400 -307 400 -301 c 0
179 347 m 256
 204 347 223 367 223 390 c 0
 223 419 201 435 179 435 c 256
 155 435 136 417 136 390 c 0
 136 364 156 347 179 347 c 256
EndSplineSet
EndChar

StartChar: uni0E47
Encoding: 3655 3655 278
Width: 0
VWidth: 1494
Flags: W
HStem: 703 76<-288.87 -178.308> 852 51<-246.5 -187.137> 933 69<-464.329 -390.5 -390.5 -345.908 -345.908 -240.542>
VStem: -577 77<808.413 898.042> -299 49<789.699 848.655> -175 51<783.394 849.044>
LayerCount: 2
Fore
SplineSet
-356 1002 m 0
 -280 1002 -192 1025 -146 1094 c 1
 -64 1067 l 1
 -99 1001 -170 932 -325 932 c 0
 -346 932 -342 933 -367 933 c 0
 -419 933 -500 925 -500 839 c 0
 -500 834 -499 806 -489 788 c 1
 -463 817 -452 834 -425 861 c 1
 -417 879 -411 879 -405 879 c 0
 -387 879 -378 881 -375 881 c 0
 -368 881 -363 876 -360 868 c 1
 -354 800 -307 775 -277 770 c 1
 -291 774 -299 801 -299 819 c 0
 -299 872 -255 903 -212 903 c 0
 -138 903 -124 844 -124 811 c 0
 -124 724 -197 703 -247 703 c 0
 -353 703 -391 759 -407 783 c 1
 -427 762 l 2
 -436 752 -442 745 -445 740 c 1
 -444 736 -443 732 -443 728 c 0
 -443 713 -462 703 -486 703 c 0
 -505 703 -524 708 -534 723 c 0
 -576 781 -577 822 -577 840 c 0
 -577 936 -525 992 -425 1000 c 0
 -402 1001 -379 1002 -356 1002 c 0
-212 779 m 256
 -192 779 -175 794 -175 816 c 256
 -175 845 -199 852 -212 852 c 256
 -233 852 -250 838 -250 816 c 256
 -250 794 -231 779 -212 779 c 256
EndSplineSet
Substitution2: "Single Substitution lookup 22 subtable" uni0E47.alt1
Substitution2: "Single Substitution lookup 22 subtable" uni0E47.alt1
EndChar

StartChar: uni0E48
Encoding: 3656 3656 279
Width: 0
VWidth: 1494
Flags: W
HStem: 1036 190<-224 -129 -224 -129 -224 -224>
VStem: -224 95<1036 1226>
LayerCount: 2
Fore
SplineSet
-224 1036 m 1
 -224 1226 l 1
 -129 1226 l 1
 -129 1036 l 1
 -224 1036 l 1
EndSplineSet
Substitution2: "Single Substitution lookup 22 subtable" uni0E48.alt2
Substitution2: "Single Substitution lookup 22 subtable" uni0E48.alt2
EndChar

StartChar: uni0E49
Encoding: 3657 3657 280
Width: 0
VWidth: 1494
Flags: W
HStem: 1159 58<-251.73 -197.391> 1293 60<-251.316 -181.028>
VStem: -318 62<1221.84 1287.81> -176 68<1220.94 1288.31>
LayerCount: 2
Fore
SplineSet
-146 1132 m 1
 14 1181 66 1269 99 1332 c 1
 163 1292 l 1
 161 1288 91 1100 -167 1046 c 0
 -176 1044 -268 1025 -273 1025 c 0
 -285 1025 -307 1067 -307 1074 c 0
 -307 1077 -304 1081 -300 1085 c 1
 -263 1098 -211 1104 -197 1161 c 1
 -204 1160 -210 1159 -217 1159 c 0
 -277 1159 -318 1204 -318 1254 c 0
 -318 1312 -270 1353 -217 1353 c 0
 -157 1353 -108 1304 -108 1247 c 0
 -108 1200 -123 1160 -146 1132 c 1
-215 1217 m 256
 -192 1217 -176 1233 -176 1254 c 256
 -176 1277 -194 1293 -215 1293 c 256
 -238 1293 -256 1277 -256 1254 c 256
 -256 1233 -238 1217 -215 1217 c 256
EndSplineSet
Substitution2: "Single Substitution lookup 22 subtable" uni0E49.alt2
Substitution2: "Single Substitution lookup 22 subtable" uni0E49.alt2
EndChar

StartChar: uni0E4A
Encoding: 3658 3658 281
Width: 0
VWidth: 1494
Flags: MW
HStem: 1031 42<-377.737 -324.421> 1140 48<-377.153 -322.861> 1233 58<-373.714 -284.856 -198.935 -148.385>
VStem: -449 69<1078.51 1175.07 1164 1216.43> -312 47<1076.63 1137.47> -134 64<1137.6 1214.67> -26 68<1187.34 1312.5 1304.05 1320.95 1320.95 1327>
LayerCount: 2
Fore
SplineSet
-78 1130 m 1
 -41 1150 -26 1196 -26 1262 c 0
 -26 1281 -27 1303 -30 1327 c 1
 36 1345 l 1
 40 1318 42 1291 42 1264 c 0
 42 1219 40 1077 -144 1031 c 1
 -146 1031 l 2
 -158 1031 -169 1054 -169 1067 c 0
 -169 1074 -134 1089 -134 1147 c 0
 -134 1195 -153 1227 -182 1227 c 0
 -191 1227 -206 1221 -206 1196 c 1
 -204 1188 -202 1181 -201 1175 c 2
 -196 1152 l 1
 -247 1152 l 1
 -252 1179 -263 1233 -327 1233 c 0
 -364 1233 -387 1203 -387 1164 c 1
 -382 1172 -367 1188 -338 1188 c 0
 -302 1188 -265 1160 -265 1113 c 0
 -265 1057 -312 1031 -348 1031 c 0
 -417 1031 -449 1098 -449 1155 c 0
 -449 1229 -399 1291 -325 1291 c 0
 -311 1291 -266 1288 -244 1248 c 1
 -234 1264 -214 1292 -169 1292 c 0
 -149 1292 -70 1280 -70 1175 c 0
 -70 1156 -73 1141 -78 1130 c 1
-348 1073 m 0
 -341 1073 -312 1080 -312 1108 c 256
 -312 1134 -336 1140 -347 1140 c 0
 -367 1140 -380 1121 -380 1106 c 0
 -380 1089 -366 1073 -348 1073 c 0
EndSplineSet
Substitution2: "Single Substitution lookup 22 subtable" uni0E4A.alt2
Substitution2: "Single Substitution lookup 22 subtable" uni0E4A.alt2
EndChar

StartChar: uni0E4B
Encoding: 3659 3659 282
Width: 0
VWidth: 1494
Flags: W
HStem: 1132 82<-312 -218 -123 -28>
VStem: -218 95<1039 1132 1214 1306>
LayerCount: 2
Fore
SplineSet
-123 1132 m 1
 -123 1039 l 1
 -218 1039 l 1
 -218 1132 l 1
 -312 1132 l 1
 -312 1214 l 1
 -218 1214 l 1
 -218 1306 l 1
 -123 1306 l 1
 -123 1214 l 1
 -28 1214 l 1
 -28 1132 l 1
 -123 1132 l 1
EndSplineSet
Substitution2: "Single Substitution lookup 22 subtable" uni0E4B.alt2
Substitution2: "Single Substitution lookup 22 subtable" uni0E4B.alt2
EndChar

StartChar: uni0E4C
Encoding: 3660 3660 283
Width: 0
VWidth: 1494
Flags: W
HStem: 978 47<-217.364 -147.578>
VStem: -276 55<1029.29 1090.3> -144 48<1028.49 1088.61>
LayerCount: 2
Fore
SplineSet
-96 1060 m 0
 -96 1012 -136 978 -180 978 c 0
 -248 978 -276 1018 -276 1066 c 0
 -276 1082 -270 1133 -221 1157 c 0
 -157 1192 -33 1179 -9 1250 c 1
 54 1217 l 1
 20 1157 -22 1127 -121 1117 c 1
 -100 1098 -96 1071 -96 1060 c 0
-182 1025 m 256
 -160 1025 -144 1041 -144 1061 c 0
 -144 1084 -161 1099 -182 1099 c 256
 -205 1099 -221 1084 -221 1061 c 0
 -221 1041 -205 1025 -182 1025 c 256
EndSplineSet
Substitution2: "Single Substitution lookup 22 subtable" uni0E4C.alt2
Substitution2: "Single Substitution lookup 22 subtable" uni0E4C.alt2
EndChar

StartChar: uni0E4D
Encoding: 3661 3661 284
Width: 0
VWidth: 1494
Flags: W
HStem: 734 69<-208.213 -122.164> 912 70<-207.068 -122.346>
VStem: -288 70<825.818 888.935> -111 70<825.256 889.37>
LayerCount: 2
Fore
SplineSet
-41 862 m 0
 -41 793 -85 734 -164 734 c 256
 -243 734 -288 792 -288 860 c 0
 -288 919 -247 982 -164 982 c 0
 -84 982 -41 920 -41 862 c 0
-218 857 m 0
 -218 838 -207 803 -164 803 c 256
 -122 803 -111 839 -111 857 c 0
 -111 874 -122 912 -164 912 c 256
 -207 912 -218 875 -218 857 c 0
EndSplineSet
Substitution2: "Single Substitution lookup 22 subtable" uni0E4D.alt1
Substitution2: "Single Substitution lookup 22 subtable" uni0E4D.alt1
EndChar

StartChar: uni0E4E
Encoding: 3662 3662 285
Width: 0
VWidth: 1494
Flags: W
HStem: 679 69<-277.919 -194.924> 1014 37<-161.989 -71.8345 -82.9705 -63>
VStem: -368 103<756.236 811.024> -272 92<909.846 995.129>
LayerCount: 2
Fore
SplineSet
-272 952 m 0xd0
 -272 1011 -212 1051 -127 1051 c 0
 -107 1051 -86 1049 -63 1045 c 1
 -13 1007 l 1
 -37 1012 -59 1014 -80 1014 c 0
 -129 1014 -180 1002 -180 951 c 0xd0
 -180 926 -161 906 -126 891 c 1
 -155 842 l 1
 -250 838 -265 802 -265 792 c 0
 -265 766 -248 748 -195 748 c 0
 -179 748 -166 751 -157 756 c 1
 -196 695 l 1
 -219 684 -241 679 -262 679 c 0
 -297 679 -368 697 -368 773 c 0xe0
 -368 834 -318 875 -233 885 c 1
 -259 904 -272 926 -272 952 c 0xd0
EndSplineSet
Substitution2: "Single Substitution lookup 22 subtable" uni0E4E.alt1
Substitution2: "Single Substitution lookup 22 subtable" uni0E4E.alt1
EndChar

StartChar: uni0E4F
Encoding: 3663 3663 286
Width: 674
VWidth: 1494
Flags: W
HStem: -4 61<249.909 424.935> 115 58<281.628 390.843> 321 59<281.62 392.153> 438 63<250.51 424.134>
VStem: 84 62<160.482 336.274> 205 57<191.32 301.644> 410 58<191.102 302.631> 526 63<160.364 335.803>
LayerCount: 2
Fore
SplineSet
336 173 m 256
 384 173 410 203 410 248 c 0
 410 292 383 321 336 321 c 256
 290 321 262 292 262 248 c 0
 262 203 289 173 336 173 c 256
336 380 m 256
 414 380 468 320 468 248 c 256
 468 176 414 115 336 115 c 256
 259 115 205 177 205 248 c 256
 205 325 265 380 336 380 c 256
336 57 m 0
 447 57 526 146 526 248 c 0
 526 351 447 438 336 438 c 0
 234 438 146 356 146 248 c 256
 146 140 234 57 336 57 c 0
84 248 m 256
 84 392 199 501 336 501 c 0
 476 501 589 385 589 248 c 0
 589 111 480 -4 336 -4 c 256
 196 -4 84 108 84 248 c 256
EndSplineSet
EndChar

StartChar: uni0E50
Encoding: 3664 3664 287
Width: 699
VWidth: 1494
Flags: W
HStem: -10 80<254.025 439.298> 351 81<252.818 448.627>
VStem: 91 82<140.063 276.822> 522 85<144.288 283.877>
LayerCount: 2
Fore
SplineSet
348 432 m 0
 474 432 607 356 607 209 c 256
 607 78 495 -10 348 -10 c 0
 190 -10 91 78 91 209 c 0
 91 320 177 432 348 432 c 0
348 70 m 0
 448 70 522 133 522 209 c 0
 522 303 447 351 348 351 c 0
 246 351 173 290 173 209 c 256
 173 126 254 70 348 70 c 0
EndSplineSet
EndChar

StartChar: uni0E51
Encoding: 3665 3665 288
Width: 732
VWidth: 1494
Flags: W
HStem: 2 82<259 380.871> 182 65<301.93 384.956> 348 84<272.5 458.041>
VStem: 99 86<139.425 267.062> 235 59<101.862 173.2> 393 63<93.3532 174.086> 549 85<80.7751 259.394>
LayerCount: 2
Fore
SplineSet
369 432 m 0
 526 432 634 317 634 179 c 0
 634 87 598 -41 442 -99 c 1
 404 -25 l 1
 491 -3 549 81 549 179 c 0
 549 280 467 348 369 348 c 0
 278 348 185 296 185 191 c 0
 185 163 196 102 253 81 c 1
 243 94 235 115 235 136 c 0
 235 199 284 247 345 247 c 0
 410 247 456 193 456 134 c 0
 456 43 363 2 284 2 c 0
 160 2 99 97 99 191 c 0
 99 336 215 432 369 432 c 0
344 84 m 256
 373 84 393 106 393 133 c 256
 393 162 371 182 344 182 c 256
 316 182 294 162 294 133 c 256
 294 104 316 84 344 84 c 256
EndSplineSet
EndChar

StartChar: uni0E52
Encoding: 3666 3666 289
Width: 795
VWidth: 1494
Flags: W
HStem: 0 78<196 615.476> 103 52<310.394 383.719> 238 54<318.202 382.783> 348 78<327.354 414.367 547.835 621.471>
VStem: 115 81<81 200.616> 222 83<161.255 278.705> 389 56<160.971 231.471> 478 75<221 271.908> 631 81<78.9911 81 106 272.887>
LayerCount: 2
Fore
SplineSet
586 428 m 0
 627 428 669 409 694 374 c 1
 697 374 701 375 704 375 c 0
 729 375 747 333 747 323 c 0
 747 297 712 282 712 244 c 2
 712 81 l 1
 700 24 663 0 599 0 c 2
 121 0 l 2
 119 -0 117 -1 116 -1 c 0
 93 -1 90 58 90 58 c 1
 90 72 95 74 115 81 c 1
 115 107 120 453 3 611 c 1
 67 665 l 1
 190 477 196 223 196 78 c 1
 599 78 l 2
 612 78 625 81 631 106 c 1
 631 250 l 2
 631 268 633 295 649 309 c 1
 632 343 602 349 587 349 c 0
 564 349 534 335 534 310 c 0
 534 296 543 311 553 221 c 1
 478 221 l 1
 474 253 464 282 449 307 c 0
 426 345 385 348 372 348 c 0
 338 348 310 318 305 280 c 1
 320 288 335 292 350 292 c 0
 401 292 445 253 445 196 c 0
 445 153 415 103 351 103 c 0
 283 103 222 149 222 241 c 0
 222 298 254 426 381 426 c 0
 425 426 459 409 484 374 c 1
 511 425 571 428 586 428 c 0
347 155 m 256
 368 155 389 172 389 196 c 0
 389 221 368 238 347 238 c 256
 325 238 305 221 305 196 c 0
 305 174 323 155 347 155 c 256
EndSplineSet
EndChar

StartChar: uni0E53
Encoding: 3667 3667 290
Width: 780
VWidth: 1494
Flags: W
HStem: -9 61<205.179 287.456> 151 61<212.98 287.784> 343 85<208.73 345.507 531.887 621.686>
VStem: 79 80<170.367 292.13> 296 63<60.154 142.056> 390 87<25.3662 270.293> 614 81<0 263.936>
LayerCount: 2
Fore
SplineSet
247 52 m 256
 276 52 296 74 296 102 c 256
 296 131 274 151 247 151 c 256
 219 151 197 131 197 102 c 256
 197 72 220 52 247 52 c 256
567 427 m 0
 614 427 653 409 677 374 c 1
 681 374 684 375 688 375 c 0
 714 375 730 332 730 322 c 0
 730 315 727 307 720 299 c 2
 704 275 l 2
 698 266 695 256 695 244 c 2
 695 0 l 1
 614 0 l 1
 614 257 l 2
 614 276 625 303 632 309 c 1
 612 334 593 342 557 342 c 0
 542 342 518 341 496 311 c 0
 483 294 477 266 477 226 c 2
 477 37 l 2
 477 25 468 25 433 25 c 256
 399 25 390 26 390 37 c 2
 390 227 l 2
 390 310 327 343 278 343 c 0
 215 343 159 298 159 213 c 0
 159 197 160 182 164 167 c 1
 194 208 230 212 247 212 c 0
 307 212 359 168 359 100 c 0
 359 41 312 -9 247 -9 c 0
 127 -9 79 107 79 212 c 0
 79 361 180 428 277 428 c 0
 329 428 397 410 431 351 c 1
 440 376 456 395 479 406 c 0
 511 421 540 427 567 427 c 0
EndSplineSet
EndChar

StartChar: uni0E54
Encoding: 3668 3668 291
Width: 730
VWidth: 1494
Flags: W
HStem: 0 76<236 405 511 647> 256 59<370.44 443.049> 351 78<217.984 524.155> 584 20G<709.5 803.478>
VStem: 91 81<160.25 311.284> 305 60<178.124 249.921> 448 60<178.326 250.678> 740 73<536.535 601.018>
LayerCount: 2
Fore
SplineSet
296 429 m 0
 500 429 679 459 740 604 c 1
 813 581 l 1
 762 394 496 351 296 351 c 0
 191 341 172 294 172 255 c 0
 172 220 185 161 236 76 c 1
 405 76 l 1
 319 134 305 187 305 215 c 0
 305 275 354 315 407 315 c 256
 460 315 508 273 508 215 c 0
 508 171 479 136 445 121 c 1
 481 90 497 82 511 76 c 1
 647 76 l 1
 647 0 l 1
 196 0 l 2
 166 0 162 9 151 37 c 1
 151 39 150 40 150 42 c 0
 150 47 153 51 158 55 c 1
 113 132 91 199 91 255 c 0
 91 373 187 429 296 429 c 0
407 173 m 256
 428 173 448 190 448 215 c 0
 448 239 428 256 407 256 c 256
 383 256 365 237 365 215 c 0
 365 190 385 173 407 173 c 256
EndSplineSet
EndChar

StartChar: uni0E55
Encoding: 3669 3669 292
Width: 730
VWidth: 1494
Flags: W
HStem: 0 78<232 404 505 649> 256 59<371.283 443.55> 351 74<216.463 329.761 382.572 435.025> 513 67<382.554 456.974> 588 20G<719.5 790.333>
VStem: 92 79<185.182 312.554> 306 60<178.311 250.107> 311 66<442.538 507.888> 448 60<177.564 251.67> 463 68<452.823 506.271> 737 72<532.896 604.722>
LayerCount: 2
Fore
SplineSet
520 448 m 1xfd60
 602 464 702 522 737 608 c 1
 809 581 l 1
 774 474 671 403 536 374 c 0
 497 366 417 351 337 351 c 0
 252 351 171 337 171 251 c 0
 171 217 180 162 232 78 c 1
 404 78 l 1
 392 83 306 141 306 215 c 0
 306 270 349 315 408 315 c 0
 466 315 508 270 508 215 c 0xfea0
 508 159 466 130 447 121 c 1
 451 116 466 96 505 78 c 1
 649 78 l 1
 649 0 l 1
 197 0 l 2
 165 0 164 10 151 40 c 1
 151 43 l 0
 151 48 153 52 158 55 c 1
 102 155 92 216 92 256 c 0
 92 393 214 425 294 425 c 0
 314 425 325 425 330 426 c 1
 316 435 311 461 311 475 c 0
 311 537 362 580 420 580 c 256
 478 580 531 538 531 475 c 0
 531 457 527 450 520 448 c 1xfd60
377 470 m 0xfd60
 377 439 396 431 418 431 c 0
 427 431 442 434 447 436 c 1
 458 444 463 455 463 469 c 0
 463 495 443 513 419 513 c 0
 394 513 377 495 377 470 c 0xfd60
408 173 m 0
 432 173 448 192 448 215 c 0
 448 239 430 256 408 256 c 0
 383 256 366 237 366 215 c 0xfea0
 366 190 385 173 408 173 c 0
EndSplineSet
EndChar

StartChar: uni0E56
Encoding: 3670 3670 293
Width: 684
VWidth: 1494
Flags: W
HStem: -13 77<203.366 345.284 260.642 424.313> 146 60<195.144 267.184> 369 82<238.704 443.281>
VStem: 130 60<69.295 141.209> 272 60<76.1115 140.364> 515 86<171.883 305.168>
LayerCount: 2
Fore
SplineSet
341 451 m 0
 473 451 601 369 601 225 c 0
 601 209 595 107 506 42 c 0
 477 22 436 -13 322 -13 c 0
 231 -13 188 15 170 28 c 0
 153 40 130 62 130 113 c 0
 130 165 175 206 230 206 c 256
 312 206 332 141 332 109 c 0
 332 99 330 73 317 61 c 1
 325 60 333 60 341 60 c 0
 443 60 515 145 515 232 c 0
 515 326 432 369 344 369 c 0
 283 369 209 346 155 293 c 0
 148 286 141 282 133 282 c 0
 112 282 95 304 95 321 c 0
 95 326 96 332 99 338 c 1
 21 414 -81 558 -87 617 c 1
 -6 623 l 1
 -6 599 7 570 60 504 c 2
 114 440 l 2
 132 420 145 403 152 389 c 1
 197 424 262 451 341 451 c 0
230 64 m 0
 255 64 272 83 272 105 c 0
 272 130 253 146 230 146 c 0
 209 146 190 130 190 105 c 0
 190 81 209 64 230 64 c 0
EndSplineSet
EndChar

StartChar: uni0E57
Encoding: 3671 3671 294
Width: 881
VWidth: 1494
Flags: W
HStem: -3 60<191.223 270.239> 149 68<190.327 270.924> 345 86<204.026 315.422 493.068 581.448>
VStem: 75 85<189.763 296.063> 278 66<64.9343 141.3> 372 87<47.3997 300.392> 610 79<239 308.103> 843 72<563.326 635.239>
LayerCount: 2
Fore
SplineSet
536 426 m 0
 640 426 689 324 689 239 c 1
 723 304 758 388 784 461 c 2
 820 565 l 2
 831 597 838 623 843 643 c 1
 915 617 l 1
 857 401 710 93 620 0 c 0
 613 -7 597 -11 595 -11 c 0
 576 -11 548 19 548 34 c 0
 548 56 576 37 600 143 c 0
 604 158 610 191 610 222 c 0
 610 278 594 339 531 339 c 0
 480 339 461 295 459 253 c 2
 459 55 l 2
 459 48 425 46 416 46 c 0
 406 46 372 48 372 55 c 2
 372 248 l 1
 364 299 324 345 272 345 c 0
 223 345 160 312 160 211 c 0
 160 203 160 196 161 188 c 1
 182 207 206 217 233 217 c 0
 298 217 344 165 344 105 c 256
 344 19 276 -3 235 -3 c 0
 123 -3 75 107 75 205 c 0
 75 316 141 431 266 431 c 0
 292 431 360 426 413 353 c 1
 455 418 507 426 536 426 c 0
232 57 m 0
 259 57 278 78 278 103 c 256
 278 131 257 149 232 149 c 0
 203 149 184 130 184 103 c 256
 184 78 203 57 232 57 c 0
EndSplineSet
EndChar

StartChar: uni0E58
Encoding: 3672 3672 295
Width: 793
VWidth: 1494
Flags: MW
HStem: -4 71<522.301 628.405> 160 70<550.678 629.481> 342 86<293 309>
VStem: 89 85<190.318 302.988> 480 64<89.8681 153.269> 637 63<74.1318 153.265> 729 81<553.072 612.638>
LayerCount: 2
Fore
SplineSet
193 0 m 2
 155 0 152 41 152 46 c 0
 152 50 154 55 157 60 c 1
 122 134 l 2
 93 196 89 231 89 255 c 0
 89 324 137 419 293 428 c 0
 556 442 693 505 729 625 c 1
 810 595 l 1
 768 399 448 342 309 342 c 0
 211 342 174 299 174 235 c 0
 174 172 216 103 233 78 c 1
 262 78 l 1
 342 250 l 2
 346 258 352 262 359 262 c 0
 364 262 421 249 421 224 c 0
 421 219 420 216 401 179 c 1
 413 132 448 100 489 81 c 1
 483 96 480 110 480 124 c 0
 480 175 519 230 590 230 c 0
 660 230 700 168 700 116 c 0
 700 68 669 -4 539 -4 c 0
 494 -4 418 3 356 94 c 1
 332 48 l 2
 311 0 296 0 288 0 c 2
 193 0 l 2
590 67 m 0
 618 67 637 88 637 114 c 256
 637 139 618 160 590 160 c 0
 562 160 544 139 544 114 c 256
 544 88 562 67 590 67 c 0
EndSplineSet
EndChar

StartChar: uni0E59
Encoding: 3673 3673 296
Width: 775
VWidth: 1494
Flags: MW
HStem: -9 63<243.426 321.045> 148 64<242.905 322.185> 345 100<294 294> 362 79<490.538 577.391>
VStem: 64 83<154.821 262.956> 329 64<60.9875 140.573> 741 69<546.548 602.898>
LayerCount: 2
Fore
SplineSet
646 378 m 1
 716 518 732 585 741 623 c 1
 810 586 l 1
 792 512 724 340 670 263 c 0
 665 256 657 253 647 253 c 0
 626 253 597 264 597 281 c 0
 597 328 569 362 536 362 c 0
 495 362 464 318 464 272 c 0
 464 267 464 262 465 256 c 1
 490 214 l 1
 560 83 l 2
 571 62 579 45 584 34 c 1
 511 -6 l 1
 438 157 340 310 294 345 c 1
 212 299 l 2
 189 287 147 260 147 201 c 0
 147 175 157 150 175 126 c 1
 184 173 227 212 283 212 c 0
 347 212 393 162 393 103 c 0
 393 45 340 -9 274 -9 c 0
 145 -9 64 96 64 205 c 0
 64 339 183 379 248 419 c 1
 264 435 279 445 294 445 c 0
 326 445 350 417 402 345 c 1
 424 414 485 441 529 441 c 0
 586 441 624 414 646 378 c 1
283 54 m 0
 308 54 329 73 329 102 c 0
 329 129 308 148 283 148 c 0
 250 148 235 123 235 102 c 0
 235 73 255 54 283 54 c 0
EndSplineSet
EndChar

StartChar: uni0E5A
Encoding: 3674 3674 297
Width: 829
VWidth: 1494
Flags: W
HStem: -8 21G<442.5 459 657 673> 332 84<256 330.395> 540 68<131.604 210.686>
VStem: 57 67<454.854 532.871> 218 68<453.601 532.519> 439 102<72.8458 294.306 294.306 347> 653 102<69.4464 323.693 323.693 411>
LayerCount: 2
Fore
SplineSet
172 447 m 0
 199 447 218 468 218 493 c 256
 218 521 197 540 172 540 c 0
 143 540 124 519 124 493 c 256
 124 468 143 447 172 447 c 0
256 416 m 1
 328 419 438 483 468 620 c 1
 555 592 l 1
 551 583 541 563 541 543 c 2
 541 435 l 1
 570 449 598 471 624 500 c 0
 652 529 671 569 682 620 c 1
 768 592 l 1
 762 576 755 561 755 543 c 2
 755 111 l 2
 755 66 754 44 700 3 c 1
 680 -6 676 -8 670 -8 c 0
 644 -8 618 42 618 47 c 0
 618 66 653 78 653 111 c 2
 653 238 l 2
 653 278 654 336 655 411 c 1
 618 380 580 359 541 347 c 1
 541 111 l 2
 541 72 545 47 486 3 c 1
 466 -6 462 -8 456 -8 c 0
 429 -8 404 43 404 48 c 0
 404 66 439 79 439 111 c 2
 439 238 l 2
 439 278 440 336 441 411 c 1
 361 343 277 332 233 332 c 0
 155 332 57 386 57 493 c 0
 57 558 108 608 172 608 c 256
 239 608 286 555 286 493 c 0
 286 464 276 439 256 416 c 1
EndSplineSet
EndChar

StartChar: uni0E5B
Encoding: 3675 3675 298
Width: 1771
VWidth: 1494
Flags: W
HStem: 26 96<322.096 504.135> 235 71<387.973 466.441> 325 44<1476.08 1568.55> 399 69<388.555 460.332> 514 20G<892.5 927> 579 103<298.306 423.809>
VStem: 117 102<235.79 482.041> 312 69<313.726 391.706> 466 111<463 536.77>
LayerCount: 2
Fore
SplineSet
312 353 m 0
 312 428 366 468 423 468 c 0
 437 468 451 466 466 463 c 1
 466 550 405 579 362 579 c 0
 276 579 219 483 219 367 c 0
 219 160 335 122 412 122 c 0
 510 122 586 188 618 260 c 0
 663 366 662 474 662 555 c 1
 753 518 819 451 840 350 c 1
 888 465 891 482 894 534 c 1
 960 494 1002 432 1024 375 c 1
 1051 429 1066 473 1078 517 c 1
 1150 466 1198 395 1209 359 c 1
 1242 405 1253 454 1253 487 c 1
 1362 427 1358 400 1623 369 c 1
 1579 339 1464 325 1412 325 c 0
 1356 325 1318 333 1297 353 c 1
 1273 255 1224 224 1194 206 c 1
 1173 275 1125 344 1103 366 c 1
 1064 261 1031 218 1003 190 c 1
 984 259 958 332 931 356 c 1
 900 250 847 193 813 161 c 1
 797 242 765 322 738 345 c 1
 730 277 670 142 610 93 c 0
 576 66 513 26 415 26 c 0
 322 26 117 68 117 370 c 0
 117 523 192 682 368 682 c 0
 493 682 577 572 577 420 c 0
 577 335 547 235 429 235 c 0
 369 235 312 285 312 353 c 0
429 306 m 0
 454 306 475 325 475 353 c 256
 475 380 454 399 429 399 c 0
 396 399 381 374 381 353 c 256
 381 327 400 306 429 306 c 0
EndSplineSet
EndChar

StartChar: zerowidthnonjoiner
Encoding: 8204 8204 299
Width: 0
VWidth: 1494
Flags: W
LayerCount: 2
Back
SplineSet
42 -460 m 1
 -40 -460 l 1
 -40 359 l 1
 42 359 l 1
 42 -460 l 1
EndSplineSet
EndChar

StartChar: zerowidthjoiner
Encoding: 8205 8205 300
Width: 0
VWidth: 1494
Flags: W
LayerCount: 2
Back
SplineSet
-40 220 m 1
 -84 197 l 1
 -105 242 l 1
 -40 277 l 1
 -105 318 l 1
 -78 363 l 1
 0 309 l 1
 79 363 l 1
 106 318 l 1
 42 277 l 1
 106 242 l 1
 85 197 l 1
 42 220 l 1
 42 -460 l 1
 -40 -460 l 1
 -40 220 l 1
EndSplineSet
EndChar

StartChar: lefttorightmark
Encoding: 8206 8206 301
Width: 0
VWidth: 1494
Flags: W
LayerCount: 2
Back
SplineSet
42 241 m 1
 42 -460 l 1
 -40 -460 l 1
 -40 309 l 1
 167 309 l 1
 127 356 l 1
 181 384 l 1
 260 277 l 1
 181 167 l 1
 127 196 l 1
 167 241 l 1
 42 241 l 1
EndSplineSet
EndChar

StartChar: righttoleftmark
Encoding: 8207 8207 302
Width: 0
VWidth: 1494
Flags: W
LayerCount: 2
Back
SplineSet
-166 241 m 1xa0
 -126 196 l 1
 -179 167 l 1
 -259 277 l 1
 -179 384 l 1
 -126 356 l 1
 -166 309 l 1
 42 309 l 1xc0
 42 -460 l 1
 -40 -460 l 1
 -40 241 l 1
 -166 241 l 1xa0
EndSplineSet
EndChar

StartChar: endash
Encoding: 8211 8211 303
Width: 750
VWidth: 1494
Flags: W
HStem: 188 105<72 640>
LayerCount: 2
Fore
SplineSet
72 188 m 1
 72 293 l 1
 640 293 l 1
 640 188 l 1
 72 188 l 1
EndSplineSet
EndChar

StartChar: emdash
Encoding: 8212 8212 304
Width: 1088
VWidth: 1494
Flags: W
HStem: 190 104<0 1088>
LayerCount: 2
Fore
SplineSet
0 190 m 1
 0 294 l 1
 1088 294 l 1
 1088 190 l 1
 0 190 l 1
EndSplineSet
EndChar

StartChar: quoteleft
Encoding: 8216 8216 305
Width: 354
VWidth: 1494
Flags: W
HStem: 450 308<167 209 209 209>
VStem: 84 163<477.239 581.915>
LayerCount: 2
Fore
SplineSet
167 450 m 0
 124 450 84 482 84 537 c 0
 84 605 109 674 209 758 c 1
 266 720 l 1
 245 709 180 640 169 607 c 1
 216 607 247 570 247 529 c 256
 247 488 213 450 167 450 c 0
EndSplineSet
EndChar

StartChar: quoteright
Encoding: 8217 8217 306
Width: 357
VWidth: 1494
Flags: W
HStem: 450 308<141 182 182 182>
VStem: 103 163<626.197 730.761>
LayerCount: 2
Fore
SplineSet
182 758 m 0
 227 758 266 726 266 671 c 0
 266 603 240 535 141 450 c 1
 84 487 l 1
 111 503 167 568 181 601 c 1
 134 601 103 638 103 679 c 256
 103 720 136 758 182 758 c 0
EndSplineSet
EndChar

StartChar: quotesinglbase
Encoding: 8218 8218 307
Width: 352
VWidth: 1494
Flags: W
HStem: -158 307<130 172 172 172>
VStem: 93 163<18.0625 121.925>
LayerCount: 2
Fore
SplineSet
172 149 m 0
 216 149 256 117 256 63 c 0
 256 8 240 -67 130 -158 c 1
 73 -121 l 1
 104 -104 160 -37 170 -7 c 1
 125 -7 93 30 93 70 c 256
 93 112 126 149 172 149 c 0
EndSplineSet
EndChar

StartChar: quotedblleft
Encoding: 8220 8220 308
Width: 597
VWidth: 1494
Flags: W
HStem: 450 157<169 221.511 405 457.64>
VStem: 84 163<477.239 581.915> 320 163<477.323 581.803>
LayerCount: 2
Fore
SplineSet
404 450 m 0
 359 450 320 482 320 537 c 0
 320 605 346 673 445 758 c 1
 502 720 l 1
 477 708 420 643 405 607 c 1
 452 607 483 570 483 529 c 256
 483 489 449 450 404 450 c 0
167 450 m 0
 124 450 84 482 84 537 c 0
 84 605 109 674 209 758 c 1
 266 720 l 1
 245 709 180 640 169 607 c 1
 216 607 247 570 247 529 c 256
 247 488 213 450 167 450 c 0
EndSplineSet
EndChar

StartChar: quotedblright
Encoding: 8221 8221 309
Width: 597
VWidth: 1494
Flags: W
HStem: 601 157<128.36 181 364.489 417>
VStem: 103 163<626.197 730.761> 339 163<626.197 730.761>
LayerCount: 2
Fore
SplineSet
182 758 m 0
 227 758 266 726 266 671 c 0
 266 603 240 535 141 450 c 1
 84 487 l 1
 111 503 167 568 181 601 c 1
 134 601 103 638 103 679 c 256
 103 720 136 758 182 758 c 0
419 758 m 0
 462 758 502 726 502 671 c 0
 502 603 476 535 377 450 c 1
 320 487 l 1
 349 505 408 575 417 601 c 1
 370 601 339 638 339 679 c 256
 339 720 373 758 419 758 c 0
EndSplineSet
EndChar

StartChar: quotedblbase
Encoding: 8222 8222 310
Width: 576
VWidth: 1494
Flags: W
HStem: -7 156<117.942 170 353.942 407>
VStem: 93 163<18.0625 121.925> 329 163<18.0625 121.925>
LayerCount: 2
Fore
SplineSet
172 149 m 0
 216 149 256 117 256 63 c 0
 256 8 240 -67 130 -158 c 1
 73 -121 l 1
 104 -104 160 -37 170 -7 c 1
 125 -7 93 30 93 70 c 256
 93 112 126 149 172 149 c 0
408 149 m 0
 452 149 492 117 492 63 c 0
 492 8 476 -67 366 -158 c 1
 309 -121 l 1
 334 -108 391 -46 407 -7 c 1
 360 -7 329 31 329 70 c 256
 329 112 362 149 408 149 c 0
EndSplineSet
EndChar

StartChar: dagger
Encoding: 8224 8224 311
Width: 645
VWidth: 1494
Flags: W
HStem: 398 100<58 269 369 587> 699 20G<269 369>
VStem: 269 100<-197 398 498 719>
LayerCount: 2
Fore
SplineSet
587 498 m 1
 587 398 l 1
 369 398 l 1
 369 -197 l 1
 269 -197 l 1
 269 398 l 1
 58 398 l 1
 58 498 l 1
 269 498 l 1
 269 719 l 1
 369 719 l 1
 369 498 l 1
 587 498 l 1
EndSplineSet
EndChar

StartChar: daggerdbl
Encoding: 8225 8225 312
Width: 650
VWidth: 1494
Flags: W
HStem: -218 21G<269 368> 70 100<57 269 368 587> 398 100<57 269 368 587>
VStem: 269 99<-218 70 170 398 498 782>
LayerCount: 2
Fore
SplineSet
587 398 m 1
 368 398 l 1
 368 170 l 1
 587 170 l 1
 587 70 l 1
 368 70 l 1
 368 -218 l 1
 269 -218 l 1
 269 70 l 1
 57 70 l 1
 57 170 l 1
 269 170 l 1
 269 398 l 1
 57 398 l 1
 57 498 l 1
 269 498 l 1
 269 782 l 1
 368 782 l 1
 368 498 l 1
 587 498 l 1
 587 398 l 1
EndSplineSet
EndChar

StartChar: bullet
Encoding: 8226 8226 313
Width: 547
VWidth: 1494
Flags: W
HStem: 144 313<180.73 347.941>
VStem: 108 314<217.242 383.953>
LayerCount: 2
Fore
SplineSet
422 300 m 0
 422 222 370 144 265 144 c 256
 157 144 108 224 108 300 c 0
 108 378 157 457 265 457 c 256
 370 457 422 379 422 300 c 0
EndSplineSet
EndChar

StartChar: ellipsis
Encoding: 8230 8230 314
Width: 853
VWidth: 1494
Flags: W
HStem: 0 146<90.2114 193.789 371.211 474.789 652.211 755.789>
VStem: 69 146<18.7072 124.888> 350 146<18.7072 124.888> 631 146<18.7072 124.888>
CounterMasks: 1 70
LayerCount: 2
Fore
SplineSet
142 146 m 256
 186 146 215 111 215 72 c 256
 215 29 184 0 142 0 c 256
 100 0 69 29 69 72 c 256
 69 111 98 146 142 146 c 256
704 146 m 256
 748 146 777 111 777 72 c 256
 777 29 746 0 704 0 c 256
 662 0 631 29 631 72 c 256
 631 111 660 146 704 146 c 256
423 146 m 256
 467 146 496 111 496 72 c 256
 496 29 465 0 423 0 c 256
 381 0 350 29 350 72 c 256
 350 111 379 146 423 146 c 256
EndSplineSet
EndChar

StartChar: perthousand
Encoding: 8240 8240 315
Width: 1210
VWidth: 1494
Flags: W
HStem: -1 80<596.24 685.594 957.741 1045.34> 303 81<595.722 685.179 956.354 1045.73> 326 81<160.018 249.758> 631 81<158.741 248.513>
VStem: 57 76<435.58 604.493> 277 76<436.786 598.711> 493 77<106.756 276.408> 713 76<108.004 273.731> 854 76<106.707 276.928> 1073 77<108.823 273.494>
LayerCount: 2
Fore
SplineSet
205 712 m 0xbfc0
 294 712 353 624 353 519 c 0
 353 435 308 326 205 326 c 0
 101 326 57 432 57 519 c 0
 57 593 96 712 205 712 c 0xbfc0
205 407 m 0
 263 407 277 482 277 519 c 0
 277 550 263 631 205 631 c 0
 148 631 133 566 133 519 c 0
 133 472 150 407 205 407 c 0
187 -33 m 1
 574 756 l 1
 664 756 l 1
 277 -33 l 1
 187 -33 l 1
641 384 m 0xdfc0
 745 384 789 278 789 191 c 0
 789 104 744 -1 641 -1 c 0
 538 -1 493 104 493 191 c 0
 493 273 537 384 641 384 c 0xdfc0
641 79 m 0
 695 79 713 146 713 191 c 0
 713 227 699 303 641 303 c 0
 584 303 570 239 570 191 c 0
 570 122 598 79 641 79 c 0
1002 384 m 0
 1105 384 1150 278 1150 191 c 0
 1150 107 1104 -1 1002 -1 c 0
 913 -1 854 81 854 191 c 0
 854 276 898 384 1002 384 c 0
1002 79 m 0
 1055 79 1073 147 1073 191 c 0
 1073 232 1056 303 1002 303 c 0
 944 303 930 238 930 191 c 0
 930 150 944 79 1002 79 c 0
EndSplineSet
EndChar

StartChar: minute
Encoding: 8242 8242 316
Width: 240
VWidth: 1494
Flags: W
HStem: 505 239<97 126 51 224 97 97>
LayerCount: 2
Fore
SplineSet
97 744 m 1
 224 746 l 1
 126 505 l 1
 51 505 l 1
 97 744 l 1
EndSplineSet
EndChar

StartChar: second
Encoding: 8243 8243 317
Width: 461
VWidth: 1494
Flags: W
HStem: 505 239<97 126 286 314 51 413 97 97>
LayerCount: 2
Fore
SplineSet
97 744 m 1
 224 746 l 1
 126 505 l 1
 51 505 l 1
 97 744 l 1
286 744 m 1
 413 746 l 1
 314 505 l 1
 239 505 l 1
 286 744 l 1
EndSplineSet
EndChar

StartChar: guilsinglleft
Encoding: 8249 8249 318
Width: 364
VWidth: 1494
Flags: W
HStem: 45 441<190 312 190 190>
VStem: 52 260<266 486 266 266>
LayerCount: 2
Fore
SplineSet
52 266 m 1
 190 486 l 1
 312 486 l 1
 167 266 l 1
 312 45 l 1
 190 45 l 1
 52 266 l 1
EndSplineSet
EndChar

StartChar: guilsinglright
Encoding: 8250 8250 319
Width: 363
VWidth: 1494
Flags: W
HStem: 45 441<52 175 52 52>
VStem: 52 260<45 266 45 45>
LayerCount: 2
Fore
SplineSet
175 45 m 1
 52 45 l 1
 197 266 l 1
 52 486 l 1
 175 486 l 1
 312 266 l 1
 175 45 l 1
EndSplineSet
EndChar

StartChar: fraction
Encoding: 8260 8260 320
Width: 260
VWidth: 1494
Flags: W
VStem: -84 422<-78 774 -78 -78>
LayerCount: 2
Fore
SplineSet
-84 -78 m 1
 248 774 l 1
 338 774 l 1
 6 -78 l 1
 -84 -78 l 1
EndSplineSet
EndChar

StartChar: Euro
Encoding: 8364 8364 321
Width: 744
VWidth: 1494
Flags: W
HStem: -10 101<376.877 582.157> 221 82<66 152 275 514> 377 79<66 151 266 514> 616 105<370.179 538.991>
VStem: 151 106<303 313.523 313.523 324.154 324.154 377> 158 108<474.737 563.066>
LayerCount: 2
Fore
SplineSet
483 91 m 0xf8
 574 91 618 134 635 152 c 1
 701 78 l 1
 641 13 552 -10 469 -10 c 0
 347 -10 209 46 164 221 c 1
 66 221 l 1
 66 303 l 1
 152 303 l 1
 151 310 151 318 151 324 c 2
 151 377 l 1xf8
 66 377 l 1
 66 456 l 1
 158 456 l 1
 192 649 332 721 464 721 c 0
 534 721 618 701 677 644 c 1
 634 552 l 1
 572 607 508 616 471 616 c 0
 363 616 291 560 266 456 c 1xf4
 514 456 l 1
 514 377 l 1
 256 377 l 1
 256 346 l 2
 256 324 256 310 257 303 c 1
 514 303 l 1
 514 221 l 1
 275 221 l 1
 314 109 430 91 483 91 c 0xf8
EndSplineSet
EndChar

StartChar: uni2113
Encoding: 8467 8467 322
Width: 331
VWidth: 1494
Flags: W
HStem: -7 74<149.227 256.759> 623 74<172.993 217.899>
VStem: 93 82<67.7712 281 422 620.878> 225 74<464.777 604.694>
LayerCount: 2
Fore
SplineSet
93 281 m 1
 80 273 56 262 48 256 c 1
 29 272 25 286 6 303 c 1
 93 363 l 1
 93 555 l 2
 93 676 150 697 189 697 c 0
 233 697 299 662 299 556 c 0
 299 463 241 365 175 321 c 1
 175 106 l 2
 175 80 182 67 205 67 c 0
 236 67 276 99 288 105 c 1
 288 31 l 1
 257.072 14.4313 219.6 -7 174 -7 c 0
 122 -7 95 29 93 102 c 2
 93 281 l 1
225 556 m 0
 225 589 217 622 193 623 c 0
 175 623 170 607 170 568 c 2
 170 422 l 1
 210 451 225 517 225 556 c 0
EndSplineSet
EndChar

StartChar: trademark
Encoding: 8482 8482 323
Width: 944
VWidth: 1494
Flags: MW
LayerCount: 2
Fore
SplineSet
390 619 m 1
 390 686 l 1
 67 686 l 1
 67 619 l 1
 191 619 l 1
 191 286 l 1
 265 286 l 1
 265 619 l 1
 390 619 l 1
604 284 m 1
 520 602 l 1
 501 278 l 1
 428 286 l 1
 454 641 l 2
 459 686 508 690 523 690 c 0
 554 690 572 671 578 647 c 2
 647 381 l 1
 716 647 l 2
 722 671 741 690 772 690 c 0
 785 690 835 686 840 641 c 2
 867 286 l 1
 794 278 l 1
 774 602 l 1
 689 284 l 1
 604 284 l 1
EndSplineSet
EndChar

StartChar: Ohm
Encoding: 8486 8486 324
Width: 861
VWidth: 1494
Flags: W
HStem: 0 97<78.177 318 540 780.874> 665 33<322.833 534.949>
VStem: 51 136<338.244 522.198> 54 1<119.846 182> 318 50<97 175> 490 50<97 175> 671 136<337.844 522.198> 803 1<119.846 182>
LayerCount: 2
Fore
SplineSet
51 429 m 0xec
 51 590 212 698 429 698 c 256
 646 698 807 590 807 429 c 0xee
 807 277 662 190 540 175 c 1
 540 97 l 1
 704 97 l 2
 778 97 795 119 803 182 c 1
 804 182 l 1
 804 0 l 1xcd
 490 0 l 1
 490 208 l 1
 621 235 671 349 671 436 c 0
 671 573 564 665 429 665 c 0
 293 665 187 573 187 436 c 0xee
 187 349 237 235 368 208 c 1
 368 0 l 1
 54 0 l 1
 54 182 l 1
 55 182 l 1xdc
 63 119 83 97 154 97 c 2
 318 97 l 1
 318 175 l 1
 193 190 51 279 51 429 c 0xec
EndSplineSet
EndChar

StartChar: estimated
Encoding: 8494 8494 325
Width: 554
VWidth: 1494
Flags: W
HStem: -9 75<219.177 363.586> 232 68<152 404> 441 84<212.286 347.267>
VStem: 51 98<138.97 232 300 368.527> 51 444<242.469 297.027> 404 91<300 378.359>
LayerCount: 2
Fore
SplineSet
51 256 m 0xe8
 51 382 123 525 280 525 c 0
 458 525 495 352 495 278 c 0xe8
 495 241 453 232 435 232 c 2
 149 232 l 1xf0
 149 92 254 66 280 66 c 0
 328 66 381 94 399 109 c 1
 433 37 l 1
 407 19 353 -9 273 -9 c 0
 140 -9 51 104 51 256 c 0xe8
404 306 m 0xe4
 404 372 357 441 278 441 c 256
 201 441 152 368 152 300 c 1
 404 300 l 1
 404 306 l 0xe4
EndSplineSet
EndChar

StartChar: partialdiff
Encoding: 8706 8706 326
Width: 542
VWidth: 1494
Flags: W
HStem: -7 64<179.401 296.825> 395 57<210.209 318.101> 691 60<285.224 371.361>
VStem: 55 83<103.677 304.699> 402 83<344.342 601.851>
LayerCount: 2
Fore
SplineSet
305 751 m 0
 377 751 485 688 485 436 c 0
 485 280 435 -7 234 -7 c 0
 91 -7 55 122 55 202 c 0
 55 323 124 452 245 452 c 0
 358 452 383 363 386 341 c 1
 389 375 402 429 402 534 c 0
 402 611 387 691 329 691 c 0
 277 691 258 615 210 615 c 0
 175 615 161 641 161 655 c 0
 161 702 250 751 305 751 c 0
239 57 m 0
 336 57 361 182 361 251 c 0
 361 313 338 392 268 395 c 0
 188 395 138 295 138 196 c 0
 138 125 166 57 239 57 c 0
EndSplineSet
EndChar

StartChar: Delta
Encoding: 8710 8710 327
Width: 653
VWidth: 1494
Flags: W
HStem: 0 78<112 477>
LayerCount: 2
Fore
SplineSet
323 765 m 1
 640 0 l 1
 12 0 l 1
 323 765 l 1
297 522 m 1
 112 78 l 1
 477 78 l 1
 297 522 l 1
EndSplineSet
EndChar

StartChar: product
Encoding: 8719 8719 328
Width: 908
VWidth: 1494
Flags: W
HStem: -120 53<79 169 272 356 550 635 740 828> 771 42<79 169 272 635 740 828>
VStem: 169 103<-67 771> 635 105<-67 771>
LayerCount: 2
Fore
SplineSet
828 771 m 1
 740 771 l 1
 740 -67 l 1
 828 -67 l 1
 828 -120 l 1
 550 -120 l 1
 550 -67 l 1
 635 -67 l 1
 635 771 l 1
 272 771 l 1
 272 -67 l 1
 356 -67 l 1
 356 -120 l 1
 79 -120 l 1
 79 -67 l 1
 169 -67 l 1
 169 771 l 1
 79 771 l 1
 79 813 l 1
 828 813 l 1
 828 771 l 1
EndSplineSet
EndChar

StartChar: summation
Encoding: 8721 8721 329
Width: 780
VWidth: 1494
Flags: W
HStem: -215 91<190 600.171> 670 56<208 562.484>
LayerCount: 2
Fore
SplineSet
726 46 m 1
 689 -118 l 2
 680 -172 626 -215 564 -215 c 2
 31 -215 l 1
 398 220 l 1
 43 726 l 1
 555 726 l 2
 647 726 669 697 677 635 c 2
 700 471 l 1
 652 471 l 1
 593 647 599 670 416 670 c 2
 208 670 l 1
 514 260 l 1
 190 -124 l 1
 463 -124 l 2
 619 -124 622 -108 680 46 c 1
 726 46 l 1
EndSplineSet
EndChar

StartChar: minus
Encoding: 8722 8722 330
Width: 733
VWidth: 1494
Flags: W
HStem: 241 110<78 649>
LayerCount: 2
Fore
SplineSet
649 351 m 1
 649 241 l 1
 78 241 l 1
 78 351 l 1
 649 351 l 1
EndSplineSet
EndChar

StartChar: radical
Encoding: 8730 8730 331
Width: 638
VWidth: 1494
Flags: W
HStem: -22 21G<249.798 295.497> 765 38<583 658>
LayerCount: 2
Fore
SplineSet
549 803 m 1
 658 803 l 1
 658 765 l 1
 583 765 l 1
 288 -22 l 1
 257 -22 l 1
 100 414 l 1
 39 392 l 1
 28 420 l 1
 181 483 l 1
 300 144 l 1
 549 803 l 1
EndSplineSet
EndChar

StartChar: infinity
Encoding: 8734 8734 332
Width: 1029
VWidth: 1494
Flags: W
HStem: 90 76<185.543 332.898> 90 85<676.475 856.519> 448 90<178.983 363.218 699.234 854.199>
VStem: 46 59<231.342 381.648> 929 58<240.053 386.248>
LayerCount: 2
Fore
SplineSet
517 389 m 1xb8
 583 496 653 538 744 538 c 0
 900 538 987 431 987 311 c 0
 987 201 901 90 761 90 c 0x78
 645 90 572 163 528 239 c 1
 509 206 432 90 288 90 c 0
 158 90 46 187 46 314 c 256
 46 453 149 538 272 538 c 0
 419 538 495 427 517 389 c 1xb8
105 308 m 0
 105 218 177 166 248 166 c 0xb8
 373 166 424 278 454 344 c 1
 423 406 353 448 268 448 c 0
 181 448 105 403 105 308 c 0
577 286 m 1
 611 218 697 175 770 175 c 0x78
 855 175 929 227 929 314 c 0
 929 379 881 450 777 450 c 0
 697 450 632 388 577 286 c 1
EndSplineSet
EndChar

StartChar: integral
Encoding: 8747 8747 333
Width: 551
VWidth: 1494
Flags: W
HStem: -199 75<22 35.6598 35.6598 58.9063 47.283 134.548> 679 80<406.268 490.905 481.483 500.328 500.328 514>
LayerCount: 2
Fore
SplineSet
262 -46 m 2
 242 -153 182 -206 83 -206 c 0
 62 -206 40 -204 16 -199 c 1
 22 -124 l 1
 36 -127 49 -128 62 -128 c 0
 131 -128 172 -89 187 -10 c 2
 283 598 l 2
 295 704 352 759 455 759 c 0
 478 759 502 757 529 752 c 1
 514 674 l 1
 500 677 486 679 474 679 c 0
 412 679 374 643 362 570 c 2
 262 -46 l 2
EndSplineSet
EndChar

StartChar: approxequal
Encoding: 8776 8776 334
Width: 724
VWidth: 1494
Flags: W
HStem: 48 118<408.114 585.062> 109 118<138.882 326.709> 265 118<408.114 585.062> 326 118<138.882 326.709>
LayerCount: 2
Fore
SplineSet
238 444 m 0x10
 338 444 428 383 504 383 c 0
 546 383 588 400 629 435 c 1
 629 314 l 1
 586 281 540 265 490 265 c 0x20
 437 265 283 326 223 326 c 0
 181 326 137 309 90 274 c 1
 90 392 l 1
 123 427 172 444 238 444 c 0x10
238 227 m 0x40
 338 227 428 166 504 166 c 0
 546 166 588 183 629 218 c 1
 629 97 l 1
 586 64 540 48 490 48 c 0x80
 437 48 283 109 223 109 c 0
 181 109 137 92 90 57 c 1
 90 175 l 1
 123 210 172 227 238 227 c 0x40
EndSplineSet
EndChar

StartChar: notequal
Encoding: 8800 8800 335
Width: 618
VWidth: 1494
Flags: W
HStem: -22 21G<191 281.956> 91 91<67 220 327 552 67 552 67 67> 305 91<67 274 383 552>
LayerCount: 2
Fore
SplineSet
359 305 m 1
 327 182 l 1
 552 182 l 1
 552 91 l 1
 305 91 l 1
 277 -22 l 1
 191 -22 l 1
 220 91 l 1
 67 91 l 1
 67 182 l 1
 242 182 l 1
 274 305 l 1
 67 305 l 1
 67 396 l 1
 297 396 l 1
 335 546 l 1
 420 546 l 1
 383 396 l 1
 552 396 l 1
 552 305 l 1
 359 305 l 1
EndSplineSet
EndChar

StartChar: lessequal
Encoding: 8804 8804 336
Width: 662
VWidth: 1494
Flags: W
HStem: 0 91<90 574> 587 20G<521.617 573>
VStem: 90 484<0 91 91 419 1.53064e-18 1.53064e-18>
LayerCount: 2
Fore
SplineSet
90 419 m 1
 573 607 l 1
 573 505 l 1
 220 366 l 1
 573 230 l 1
 573 129 l 1
 90 317 l 1
 90 419 l 1
90 0 m 1
 90 91 l 1
 574 91 l 1
 574 0 l 1
 90 0 l 1
EndSplineSet
EndChar

StartChar: greaterequal
Encoding: 8805 8805 337
Width: 639
VWidth: 1494
Flags: W
HStem: 0 91<90 574> 587 20G<91 142.383>
VStem: 90 484<0 91 0 317 1.53064e-18 1.53064e-18>
LayerCount: 2
Fore
SplineSet
574 317 m 1
 91 129 l 1
 91 230 l 1
 444 366 l 1
 91 505 l 1
 91 607 l 1
 574 419 l 1
 574 317 l 1
90 0 m 1
 90 91 l 1
 574 91 l 1
 574 0 l 1
 90 0 l 1
EndSplineSet
EndChar

StartChar: lozenge
Encoding: 9674 9674 338
Width: 588
VWidth: 1494
Flags: W
VStem: 63 465<345 345 345 345>
LayerCount: 2
Fore
SplineSet
528 345 m 1
 294 -138 l 1
 63 345 l 1
 294 825 l 1
 528 345 l 1
294 54 m 1
 436 345 l 1
 294 632 l 1
 154 345 l 1
 294 54 l 1
EndSplineSet
EndChar

StartChar: dottedcircle
Encoding: 9676 9676 339
Width: 633
VWidth: 1494
Flags: W
HStem: 48 69<182.59 248.288 376.579 439.421> 100 70<101.712 168.288 454.723 520.421> 182 71<47.7122 113.41 508.59 575.277> 278 70<46.4114 75.5886 546.314 577.646> 372 70<48.25 112.922 509.078 574.653> 456 69<102.234 167.766 453.422 519.938> 510 68<182.59 248.288 375.59 439.421> 528 70<278.239 324.359>
VStem: 25 72<282.05 344.592> 46 69<183.712 251.277 373.856 440.431> 100 70<101.712 168.288 457.446 523.144> 181 69<49.8127 115.421 511.579 576.288> 275 72<31.05 93.5916 532.059 594.283> 375 66<49.3616 115.515 511.362 576.523> 453 69<102.521 167.479 457.891 522.578> 507 70<183.712 251.277 373.856 440.431> 528 70<298.001 345.209>
LayerCount: 2
Fore
SplineSet
522 487 m 0x3c1e
 522 466 511 456 489 456 c 0
 464 456 451 466 451 487 c 0
 451 512 464 525 489 525 c 0
 511 525 522 512 522 487 c 0x3c1e
441 543 m 0
 441 521 430 510 408 510 c 0
 385 510 374 521 374 543 c 0
 374 566 385 578 408 578 c 0x3a1c
 430 578 441 566 441 543 c 0
577 410 m 0x381d
 577 385 565 372 541 372 c 0
 518 372 507 385 507 410 c 0
 507 431 519 442 543 442 c 0
 566 442 577 431 577 410 c 0x381d
250 543 m 0
 250 521 238 510 215 510 c 256
 192 510 181 521 181 543 c 0
 181 566 192 578 215 578 c 256x3a1c
 238 578 250 566 250 543 c 0
577 217 m 0x381d
 577 194 565 182 541 182 c 0
 518 182 507 194 507 217 c 0
 507 241 518 253 541 253 c 0
 565 253 577 241 577 217 c 0x381d
170 487 m 0x3c3c
 170 466 158 456 135 456 c 0
 112 456 100 466 100 487 c 0
 100 512 112 525 135 525 c 0
 158 525 170 512 170 487 c 0x3c3c
522 135 m 0x781e
 522 112 511 100 489 100 c 0
 465 100 453 112 453 135 c 0
 453 158 465 170 489 170 c 0
 511 170 522 158 522 135 c 0x781e
441 81 m 0
 441 59 430 48 408 48 c 256
 386 48 375 59 375 81 c 0
 375 105 386 117 408 117 c 256xb81c
 430 117 441 105 441 81 c 0
115 410 m 0x385c
 115 385 104 372 82 372 c 0
 58 372 46 385 46 410 c 0
 46 431 58 442 81 442 c 256
 104 442 115 431 115 410 c 0x385c
115 217 m 0
 115 194 104 182 81 182 c 256
 58 182 46 194 46 217 c 0
 46 241 58 253 81 253 c 256
 104 253 115 241 115 217 c 0
250 84 m 0
 250 60 238 48 215 48 c 256
 192 48 181 59 181 81 c 0
 181 105 192 117 215 117 c 256xb81c
 238 117 250 106 250 84 c 0
170 135 m 0x783c
 170 112 158 100 135 100 c 0
 112 100 100 112 100 135 c 0
 100 158 112 170 135 170 c 0
 158 170 170 158 170 135 c 0x783c
311 598 m 256x391c
 325 598 347 585 347 562 c 0
 347 542 324 528 311 528 c 256
 297 528 275 543 275 562 c 0
 275 585 297 598 311 598 c 256x391c
311 97 m 256
 320 97 347 90 347 61 c 0
 347 44 327 27 311 27 c 256
 295 27 275 44 275 61 c 0
 275 90 302 97 311 97 c 256
564 348 m 0
 577 348 598 337 598 312 c 0
 598 295 578 278 564 278 c 0
 535 278 528 303 528 312 c 0x381c80
 528 341 548 348 564 348 c 0
61 348 m 256
 70 348 97 341 97 312 c 0
 97 295 77 278 61 278 c 256
 45 278 25 295 25 312 c 0x389c
 25 341 52 348 61 348 c 256
EndSplineSet
EndChar

StartChar: uni0E10.alt1
Encoding: 63232 63232 340
Width: 624
VWidth: 1494
Flags: W
HStem: -17 21G<347 367.5> 130 60<183.09 257.822> 286 61<183.624 263.762> 397 78<178.678 202.546 190.612 369.486> 496 71<547 593> 540 77<254.35 373.189>
VStem: 117 58<198.701 277.09>
LayerCount: 2
Fore
SplineSet
224 190 m 256xf2
 253 190 272 210 272 238 c 0
 272 262 254 286 224 286 c 256
 195 286 175 263 175 238 c 0
 175 209 197 190 224 190 c 256xf2
497 417 m 0
 532 417 558 371 558 358 c 0
 558 339 520 306 514 275 c 2
 483 66 l 2
 477 38 374 -17 361 -17 c 0
 333 -17 302 34 302 49 c 0
 302 54 304 58 318 75 c 1
 314 91 301 114 288 154 c 1
 276 137 243 130 224 130 c 0
 173 130 117 168 117 239 c 0
 117 320 184 347 226 347 c 0
 262 347 302 325 318 294 c 0
 336 268 380 171 390 108 c 1
 416 287 l 2
 425 322 423 324 436 344 c 1
 423 356 352 397 213 397 c 0
 186 397 159 396 130 392 c 1
 123 379 113 367 101 367 c 0
 88 367 45 383 45 400 c 0
 45 412 116 617 324 617 c 0xf6
 358 617 394 613 494 588 c 2
 550 574 l 2
 567 569 581 567 593 567 c 1
 565 501 l 1
 561 498 555 496 547 496 c 0xfa
 532 496 492 507 469 513 c 2
 400 531 l 2
 377 537 355 540 336 540 c 0xf6
 313 540 225 546 178 475 c 1
 195 476 212 476 227 476 c 0
 371 476 462 429 487 414 c 1
 488 416 492 417 497 417 c 0
EndSplineSet
EndChar

